<svg width="1449" height="2270" viewBox="0 0 1449 2270" fill="none" xmlns="http://www.w3.org/2000/svg">
<path d="M183.63 1243.53C181.69 1243.56 179.713 1244.29 177.7 1245.7C175.13 1247.04 173.04 1247.58 169.99 1248.14C168.343 1248.45 167.06 1247.7 166.14 1245.9C166.069 1245.76 165.969 1245.64 165.846 1245.55C165.723 1245.46 165.581 1245.39 165.43 1245.36C165.278 1245.32 165.121 1245.32 164.969 1245.36C164.817 1245.39 164.674 1245.46 164.55 1245.55C160.957 1248.29 157.34 1250.9 153.7 1253.39C150 1255.91 145.66 1256.9 140.68 1256.35C132.81 1255.49 132.45 1251.07 128.88 1245.39C128.291 1244.46 127.356 1243.8 126.28 1243.56C126.273 1243.56 124.77 1243.37 121.77 1242.98C113.69 1241.95 111.04 1236.07 109.87 1228.88C109.05 1223.8 111.1 1219.96 113.75 1215.58C113.789 1215.52 113.811 1215.44 113.815 1215.37C113.818 1215.29 113.803 1215.22 113.77 1215.15C113.737 1215.08 113.688 1215.02 113.627 1214.98C113.566 1214.94 113.495 1214.91 113.42 1214.9L110.97 1214.57C110.732 1214.54 110.514 1214.42 110.36 1214.23C107.59 1210.95 104.67 1204.77 105.63 1200.05C106.76 1194.48 110.14 1189.19 115.64 1187.38C117.32 1186.83 118.383 1186.4 118.83 1186.1C118.962 1186.01 119.062 1185.89 119.114 1185.73C119.167 1185.58 119.169 1185.42 119.12 1185.26C118.227 1182.39 118.637 1179.54 120.35 1176.73C123.9 1170.91 132.18 1162.4 139.47 1160.89C145.65 1159.61 152.32 1161.58 155.3 1167.51C155.365 1167.64 155.457 1167.75 155.571 1167.84C155.684 1167.93 155.815 1167.99 155.955 1168.02C156.095 1168.05 156.24 1168.05 156.379 1168.02C156.518 1167.99 156.648 1167.93 156.76 1167.84C160.613 1164.85 164.777 1162.85 169.25 1161.82C178.33 1159.74 189.1 1164.47 192.48 1173.47C194.433 1178.68 194.55 1184.06 192.83 1189.61C192.45 1190.81 191.39 1192.5 191.21 1193.54C191.183 1193.71 191.217 1193.88 191.305 1194.02C191.393 1194.16 191.53 1194.27 191.69 1194.32C194.683 1195.27 197.283 1197.8 199.49 1201.91C203.797 1209.94 204.137 1217.78 200.51 1225.45C196.75 1233.4 191.52 1239.58 183.63 1243.53ZM119.12 1213.53C115.56 1219.53 111.08 1225.4 113.11 1230.59C115.96 1237.89 120.82 1240.95 128.96 1239.66C129.411 1239.59 129.873 1239.66 130.275 1239.88C130.678 1240.09 130.999 1240.44 131.19 1240.85C131.47 1241.45 132.5 1243.87 134.28 1248.11C136.62 1253.67 145.02 1253.9 149.56 1251.34C151.427 1250.29 153.843 1248.61 156.81 1246.3C157.214 1245.98 157.562 1245.61 157.84 1245.19C160.173 1241.72 163.047 1238.45 166.46 1235.37C166.511 1235.32 166.573 1235.29 166.64 1235.28C166.707 1235.27 166.776 1235.28 166.839 1235.31C166.902 1235.33 166.956 1235.38 166.995 1235.43C167.034 1235.49 167.057 1235.55 167.06 1235.62L167.24 1241.93C167.254 1242.4 167.44 1242.84 167.763 1243.18C168.086 1243.52 168.523 1243.72 168.99 1243.76C174.2 1244.14 178.58 1241.83 183.61 1239.06C191.87 1234.49 199.46 1224.75 198.7 1214.74C198.17 1207.79 196.59 1202.13 191.39 1197.5C191.1 1197.24 190.727 1197.09 190.337 1197.08C189.946 1197.07 189.565 1197.2 189.26 1197.45L182.98 1202.55C182.733 1202.75 182.552 1203.02 182.461 1203.32C182.37 1203.62 182.373 1203.95 182.47 1204.25C183.163 1206.42 183.07 1208.26 182.19 1209.77C179.74 1213.97 175.91 1218.86 171.26 1220.42C171.164 1220.45 171.076 1220.51 171.006 1220.58C170.936 1220.65 170.884 1220.74 170.855 1220.84C170.827 1220.94 170.823 1221.04 170.842 1221.14C170.862 1221.24 170.906 1221.34 170.97 1221.42L171.57 1222.16C171.7 1222.32 171.796 1222.5 171.852 1222.7C171.909 1222.89 171.925 1223.1 171.9 1223.3C170.88 1231.46 164.5 1234.45 157.03 1236.36C155.85 1236.66 154.623 1236.7 153.43 1236.49L146.66 1235.29C146.607 1235.28 146.556 1235.27 146.51 1235.25L142.59 1233.37C142.28 1233.22 141.943 1233.14 141.6 1233.13C139.187 1233.06 137.713 1232.88 137.18 1232.57C134.527 1231.06 132.27 1229.89 130.41 1229.07C129.922 1228.86 129.483 1228.55 129.12 1228.17C125.19 1224.04 122.9 1218.84 122.75 1212.79C122.697 1210.61 122.24 1208.56 121.38 1206.63C121.144 1206.11 121.054 1205.54 121.12 1204.97C121.647 1200.14 123.17 1195.65 125.69 1191.48C125.955 1191.04 126.286 1190.65 126.67 1190.31L128.58 1188.66C128.726 1188.53 128.857 1188.38 128.97 1188.22C134.85 1179.66 142.83 1177.12 152.91 1180.6C154.113 1181.02 155.405 1181.09 156.64 1180.81L161.69 1179.67C162.323 1179.52 162.98 1179.51 163.62 1179.63C166.987 1180.24 170.163 1181.54 173.15 1183.53C173.652 1183.87 174.09 1184.29 174.44 1184.79C177.273 1188.84 178.877 1191.35 179.25 1192.31C180.23 1194.84 181.147 1196.76 182 1198.08C182.09 1198.22 182.21 1198.34 182.351 1198.43C182.493 1198.52 182.652 1198.58 182.818 1198.6C182.984 1198.62 183.153 1198.6 183.312 1198.55C183.472 1198.5 183.618 1198.41 183.74 1198.3C187.5 1194.8 188.18 1190.15 190.1 1185.52C190.411 1184.78 190.59 1183.99 190.63 1183.18C191.043 1175.49 187.847 1169.83 181.04 1166.18C173.69 1162.25 161.81 1165.65 157.05 1172.73C156.875 1172.99 156.631 1173.19 156.345 1173.32C156.06 1173.45 155.744 1173.49 155.435 1173.44C155.126 1173.4 154.835 1173.27 154.598 1173.07C154.36 1172.86 154.184 1172.6 154.09 1172.3C151.56 1164.18 142.58 1160.91 135.43 1165.95C131.323 1168.85 128.277 1171.46 126.29 1173.77C124.21 1176.21 119.76 1182.23 122 1184.89C124.22 1187.53 125.353 1188.88 125.4 1188.93C125.463 1189 125.5 1189.09 125.507 1189.19C125.514 1189.28 125.49 1189.38 125.438 1189.46C125.386 1189.54 125.309 1189.6 125.219 1189.63C125.129 1189.67 125.031 1189.67 124.94 1189.64C115.48 1186.45 109.57 1194.64 108.65 1203.04C108.61 1203.43 108.637 1203.83 108.73 1204.21C110 1209.28 112.91 1213.75 118.74 1212.96C118.811 1212.95 118.883 1212.96 118.948 1212.99C119.014 1213.02 119.07 1213.07 119.109 1213.13C119.149 1213.18 119.171 1213.25 119.173 1213.33C119.175 1213.4 119.156 1213.47 119.12 1213.53ZM148.87 1186.25C148.784 1186.27 148.696 1186.25 148.619 1186.21C148.543 1186.17 148.482 1186.11 148.446 1186.03C148.41 1185.95 148.402 1185.86 148.423 1185.77C148.444 1185.69 148.492 1185.61 148.56 1185.56C149.32 1184.95 149.76 1184.45 149.88 1184.05C149.949 1183.82 149.924 1183.57 149.81 1183.35C149.696 1183.14 149.502 1182.97 149.27 1182.9C144.817 1181.45 141.29 1181.54 138.69 1183.17C131.737 1187.51 127.103 1193.53 124.79 1201.23C124.3 1202.88 124.17 1205.42 124.68 1207.36C124.746 1207.61 124.864 1207.84 125.027 1208.04C125.191 1208.24 125.395 1208.4 125.626 1208.52C125.858 1208.63 126.111 1208.69 126.368 1208.7C126.626 1208.71 126.882 1208.66 127.12 1208.56L133.17 1206.02C133.421 1205.91 133.646 1205.75 133.829 1205.55C134.012 1205.35 134.149 1205.11 134.23 1204.85C134.93 1202.59 135.67 1200.14 136.91 1198.2C141.19 1191.49 147.487 1189.23 155.8 1191.41C156.146 1191.5 156.509 1191.5 156.856 1191.41C157.202 1191.32 157.52 1191.14 157.78 1190.9L159.76 1189.04C159.94 1188.87 160.176 1188.77 160.42 1188.77C163.78 1188.77 167.7 1195.91 168.6 1198.16C168.893 1198.89 169.517 1201.56 170.47 1206.17C171.17 1209.62 170.64 1213.02 170.97 1216.57C170.982 1216.69 171.024 1216.8 171.092 1216.89C171.16 1216.99 171.252 1217.06 171.358 1217.11C171.464 1217.16 171.581 1217.18 171.697 1217.17C171.813 1217.16 171.924 1217.12 172.02 1217.05C175.52 1214.6 178.08 1211.39 179.7 1207.43C180.173 1206.26 180.173 1204.73 179.7 1202.82C178.107 1196.45 175.457 1191.12 171.75 1186.81C170.403 1185.24 169.097 1184.31 167.83 1184.02C165.09 1183.37 161.903 1183.03 158.27 1183C158.158 1183 158.045 1183.03 157.94 1183.08L154.62 1185C154.375 1185.15 154.104 1185.25 153.82 1185.3L148.87 1186.25ZM140.85 1221.49C140.923 1221.36 141.243 1221.1 141.81 1220.73C141.984 1220.61 142.13 1220.46 142.237 1220.28C142.344 1220.1 142.41 1219.9 142.429 1219.69C142.448 1219.49 142.421 1219.28 142.348 1219.09C142.276 1218.9 142.16 1218.73 142.01 1218.59C138.423 1215.29 135.867 1211.86 134.34 1208.31C134.262 1208.13 134.128 1207.98 133.957 1207.89C133.787 1207.79 133.591 1207.76 133.4 1207.79C131.327 1208.12 129.347 1209.13 127.46 1210.8C125.85 1212.23 125.93 1214.92 126.27 1216.76C127.137 1221.36 129.547 1225 133.5 1227.69C133.612 1227.77 133.742 1227.82 133.88 1227.85L138.19 1228.68C138.474 1228.73 138.749 1228.84 139 1228.99C141.027 1230.24 142.35 1230.94 142.97 1231.09C146.543 1231.92 149.22 1232.48 151 1232.76C154.767 1233.35 158.44 1232.85 162.02 1231.24C166.107 1229.41 168.067 1226.19 167.9 1221.59C167.52 1210.95 167.26 1202.12 162.2 1194.45C161.918 1194.02 161.508 1193.69 161.029 1193.51C160.55 1193.33 160.026 1193.3 159.53 1193.43L157.13 1194.06C157.017 1194.09 156.903 1194.1 156.79 1194.1L147.67 1193.77C147.551 1193.76 147.435 1193.78 147.33 1193.82C142.997 1195.36 139.957 1198.14 138.21 1202.17C137.27 1204.33 137.347 1205.98 138.44 1207.11C138.63 1207.3 138.864 1207.44 139.12 1207.51C142.24 1208.41 145.06 1209.23 147.68 1208.01C147.848 1207.93 147.994 1207.82 148.104 1207.67C148.215 1207.52 148.287 1207.35 148.314 1207.17C148.341 1206.99 148.322 1206.8 148.258 1206.63C148.195 1206.46 148.089 1206.3 147.95 1206.18L146.48 1204.87C146.329 1204.74 146.217 1204.57 146.155 1204.38C146.094 1204.19 146.085 1203.98 146.13 1203.79C146.47 1202.36 147.167 1201.31 148.22 1200.62C148.494 1200.44 148.816 1200.33 149.15 1200.32C151.48 1200.18 156.78 1200.12 157.32 1196.97C157.346 1196.81 157.408 1196.65 157.5 1196.52C158.167 1195.54 159.05 1195.23 160.15 1195.58C160.284 1195.62 160.407 1195.7 160.509 1195.79C160.611 1195.89 160.69 1196.01 160.74 1196.14C161.013 1196.87 160.62 1198.12 159.56 1199.91C159.386 1200.2 159.281 1200.53 159.253 1200.87C159.225 1201.21 159.275 1201.56 159.4 1201.88L160.62 1205.03C160.699 1205.23 160.74 1205.45 160.74 1205.66C160.693 1210.48 159.473 1214.67 157.08 1218.22C153.44 1223.63 147.12 1222.9 141.21 1222.22C141.129 1222.21 141.051 1222.18 140.985 1222.14C140.918 1222.09 140.864 1222.03 140.828 1221.95C140.792 1221.88 140.775 1221.8 140.779 1221.72C140.783 1221.64 140.807 1221.56 140.85 1221.49ZM138.61 1208.55C138.491 1208.45 138.34 1208.4 138.186 1208.41C138.032 1208.42 137.888 1208.49 137.782 1208.6C137.676 1208.71 137.615 1208.86 137.613 1209.01C137.611 1209.17 137.667 1209.32 137.77 1209.43C138.563 1210.38 140.673 1212.94 144.1 1217.11C144.913 1218.1 145.967 1218.68 147.26 1218.83C152.72 1219.47 156.2 1216.01 156.86 1210.82C157.36 1206.81 158.14 1203.9 154.43 1201.91C154.195 1201.78 153.935 1201.71 153.669 1201.69C153.402 1201.67 153.135 1201.71 152.885 1201.8C152.635 1201.9 152.407 1202.04 152.219 1202.23C152.03 1202.42 151.884 1202.65 151.79 1202.9L149.68 1208.51C149.537 1208.89 149.266 1209.22 148.91 1209.43C146.937 1210.6 144.757 1211.08 142.37 1210.86C141.822 1210.81 141.298 1210.61 140.86 1210.27L138.61 1208.55Z" fill="#211612"/>
<path d="M118.74 1212.96C112.91 1213.75 110 1209.28 108.73 1204.21C108.637 1203.83 108.61 1203.43 108.65 1203.04C109.57 1194.64 115.48 1186.45 124.94 1189.64C125.031 1189.67 125.129 1189.67 125.219 1189.63C125.309 1189.6 125.386 1189.54 125.438 1189.46C125.49 1189.38 125.514 1189.28 125.507 1189.19C125.5 1189.09 125.463 1189 125.4 1188.93C125.353 1188.88 124.22 1187.53 122 1184.89C119.76 1182.23 124.21 1176.21 126.29 1173.77C128.277 1171.46 131.323 1168.85 135.43 1165.95C142.58 1160.91 151.56 1164.18 154.09 1172.3C154.184 1172.6 154.36 1172.86 154.598 1173.07C154.836 1173.27 155.126 1173.4 155.435 1173.44C155.744 1173.49 156.06 1173.45 156.345 1173.32C156.631 1173.19 156.875 1172.99 157.05 1172.73C161.81 1165.65 173.69 1162.25 181.04 1166.18C187.847 1169.83 191.043 1175.49 190.63 1183.18C190.59 1183.99 190.411 1184.78 190.1 1185.52C188.18 1190.15 187.5 1194.8 183.74 1198.3C183.618 1198.41 183.472 1198.5 183.313 1198.55C183.153 1198.6 182.985 1198.62 182.818 1198.6C182.652 1198.58 182.493 1198.52 182.351 1198.43C182.21 1198.34 182.09 1198.22 182 1198.08C181.147 1196.76 180.23 1194.84 179.25 1192.31C178.877 1191.35 177.273 1188.84 174.44 1184.79C174.09 1184.29 173.652 1183.87 173.15 1183.53C170.163 1181.54 166.987 1180.24 163.62 1179.63C162.98 1179.51 162.323 1179.52 161.69 1179.67L156.64 1180.81C155.405 1181.09 154.113 1181.02 152.91 1180.6C142.83 1177.12 134.85 1179.66 128.97 1188.22C128.857 1188.38 128.726 1188.53 128.58 1188.66L126.67 1190.31C126.286 1190.65 125.955 1191.04 125.69 1191.48C123.17 1195.65 121.647 1200.14 121.12 1204.97C121.054 1205.54 121.144 1206.11 121.38 1206.63C122.24 1208.56 122.697 1210.61 122.75 1212.79C122.9 1218.84 125.19 1224.04 129.12 1228.17C129.483 1228.55 129.922 1228.86 130.41 1229.07C132.27 1229.89 134.527 1231.06 137.18 1232.57C137.713 1232.88 139.187 1233.06 141.6 1233.13C141.943 1233.14 142.28 1233.22 142.59 1233.37L146.51 1235.25C146.557 1235.27 146.607 1235.28 146.66 1235.29L153.43 1236.49C154.623 1236.7 155.85 1236.66 157.03 1236.36C164.5 1234.45 170.88 1231.46 171.9 1223.3C171.925 1223.1 171.909 1222.89 171.852 1222.7C171.796 1222.5 171.7 1222.32 171.57 1222.16L170.97 1221.42C170.906 1221.34 170.862 1221.24 170.843 1221.14C170.823 1221.04 170.827 1220.94 170.856 1220.84C170.884 1220.74 170.936 1220.65 171.006 1220.58C171.077 1220.51 171.164 1220.45 171.26 1220.42C175.91 1218.86 179.74 1213.97 182.19 1209.77C183.07 1208.26 183.163 1206.42 182.47 1204.25C182.373 1203.95 182.37 1203.62 182.461 1203.32C182.552 1203.02 182.733 1202.75 182.98 1202.55L189.26 1197.45C189.565 1197.2 189.946 1197.07 190.337 1197.08C190.727 1197.09 191.1 1197.24 191.39 1197.5C196.59 1202.13 198.17 1207.79 198.7 1214.74C199.46 1224.75 191.87 1234.49 183.61 1239.06C178.58 1241.83 174.2 1244.14 168.99 1243.76C168.523 1243.72 168.086 1243.52 167.763 1243.18C167.44 1242.84 167.254 1242.4 167.24 1241.93L167.06 1235.62C167.057 1235.55 167.034 1235.49 166.995 1235.43C166.956 1235.38 166.902 1235.33 166.839 1235.31C166.776 1235.28 166.707 1235.27 166.64 1235.28C166.573 1235.29 166.511 1235.32 166.46 1235.37C163.047 1238.45 160.173 1241.72 157.84 1245.19C157.562 1245.61 157.214 1245.98 156.81 1246.3C153.843 1248.61 151.427 1250.29 149.56 1251.34C145.02 1253.9 136.62 1253.67 134.28 1248.11C132.5 1243.87 131.47 1241.45 131.19 1240.85C130.999 1240.44 130.678 1240.09 130.275 1239.88C129.873 1239.66 129.411 1239.59 128.96 1239.66C120.82 1240.95 115.96 1237.89 113.11 1230.59C111.08 1225.4 115.56 1219.53 119.12 1213.53C119.157 1213.47 119.175 1213.4 119.173 1213.33C119.171 1213.25 119.149 1213.18 119.109 1213.13C119.07 1213.07 119.014 1213.02 118.949 1212.99C118.883 1212.96 118.811 1212.95 118.74 1212.96Z" fill="#C88C6A"/>
<path d="M148.87 1186.25L153.82 1185.3C154.104 1185.25 154.375 1185.15 154.62 1185L157.94 1183.08C158.045 1183.03 158.158 1183 158.27 1183C161.903 1183.03 165.09 1183.37 167.83 1184.02C169.097 1184.31 170.403 1185.24 171.75 1186.81C175.456 1191.12 178.106 1196.45 179.7 1202.82C180.173 1204.73 180.173 1206.26 179.7 1207.43C178.08 1211.39 175.52 1214.6 172.02 1217.05C171.924 1217.12 171.813 1217.16 171.697 1217.17C171.581 1217.18 171.464 1217.16 171.358 1217.11C171.252 1217.06 171.16 1216.99 171.092 1216.89C171.024 1216.8 170.982 1216.69 170.97 1216.57C170.64 1213.02 171.17 1209.62 170.47 1206.17C169.517 1201.56 168.893 1198.89 168.6 1198.16C167.7 1195.91 163.78 1188.77 160.42 1188.77C160.176 1188.77 159.939 1188.87 159.76 1189.04L157.78 1190.9C157.52 1191.14 157.202 1191.32 156.855 1191.41C156.509 1191.5 156.146 1191.5 155.8 1191.41C147.487 1189.23 141.19 1191.49 136.91 1198.2C135.67 1200.14 134.93 1202.59 134.23 1204.85C134.149 1205.11 134.012 1205.35 133.829 1205.55C133.646 1205.75 133.421 1205.91 133.17 1206.02L127.12 1208.56C126.882 1208.66 126.626 1208.71 126.368 1208.7C126.111 1208.69 125.857 1208.63 125.626 1208.52C125.395 1208.4 125.19 1208.24 125.027 1208.04C124.864 1207.84 124.746 1207.61 124.68 1207.36C124.17 1205.42 124.3 1202.88 124.79 1201.23C127.103 1193.53 131.737 1187.51 138.69 1183.17C141.29 1181.54 144.817 1181.45 149.27 1182.9C149.502 1182.97 149.696 1183.14 149.81 1183.35C149.924 1183.57 149.949 1183.82 149.88 1184.05C149.76 1184.45 149.32 1184.95 148.56 1185.56C148.492 1185.61 148.443 1185.69 148.423 1185.77C148.402 1185.86 148.41 1185.95 148.446 1186.03C148.481 1186.1 148.543 1186.17 148.619 1186.21C148.696 1186.25 148.784 1186.27 148.87 1186.25Z" fill="#C88C6A"/>
<path d="M141.21 1222.22C147.12 1222.9 153.44 1223.63 157.08 1218.22C159.473 1214.67 160.693 1210.48 160.74 1205.66C160.74 1205.45 160.699 1205.23 160.62 1205.03L159.4 1201.88C159.275 1201.56 159.225 1201.21 159.253 1200.87C159.28 1200.53 159.385 1200.2 159.56 1199.91C160.62 1198.12 161.013 1196.87 160.74 1196.14C160.69 1196.01 160.611 1195.89 160.509 1195.79C160.407 1195.7 160.284 1195.62 160.15 1195.58C159.05 1195.23 158.166 1195.54 157.5 1196.52C157.408 1196.65 157.346 1196.81 157.32 1196.97C156.78 1200.12 151.48 1200.18 149.15 1200.32C148.816 1200.33 148.494 1200.44 148.22 1200.62C147.166 1201.31 146.47 1202.36 146.13 1203.79C146.085 1203.98 146.093 1204.19 146.155 1204.38C146.217 1204.57 146.329 1204.74 146.48 1204.87L147.95 1206.18C148.088 1206.3 148.194 1206.45 148.258 1206.63C148.322 1206.8 148.341 1206.99 148.314 1207.17C148.287 1207.35 148.215 1207.52 148.104 1207.67C147.993 1207.82 147.847 1207.93 147.68 1208.01C145.06 1209.23 142.24 1208.41 139.12 1207.51C138.864 1207.44 138.63 1207.3 138.44 1207.11C137.346 1205.98 137.27 1204.33 138.21 1202.17C139.956 1198.14 142.996 1195.36 147.33 1193.82C147.435 1193.78 147.551 1193.76 147.67 1193.77L156.79 1194.1C156.903 1194.1 157.017 1194.09 157.13 1194.06L159.53 1193.43C160.026 1193.3 160.55 1193.33 161.029 1193.51C161.508 1193.69 161.917 1194.02 162.2 1194.45C167.26 1202.12 167.52 1210.95 167.9 1221.59C168.066 1226.19 166.106 1229.41 162.02 1231.24C158.44 1232.85 154.766 1233.35 151 1232.76C149.22 1232.48 146.543 1231.92 142.97 1231.09C142.35 1230.94 141.026 1230.24 139 1228.99C138.748 1228.84 138.474 1228.73 138.19 1228.68L133.88 1227.85C133.741 1227.82 133.612 1227.77 133.5 1227.69C129.546 1225 127.136 1221.36 126.27 1216.76C125.93 1214.92 125.85 1212.23 127.46 1210.8C129.346 1209.13 131.326 1208.12 133.4 1207.79C133.591 1207.76 133.787 1207.79 133.957 1207.89C134.127 1207.98 134.262 1208.13 134.34 1208.31C135.866 1211.86 138.423 1215.29 142.01 1218.59C142.16 1218.73 142.275 1218.9 142.348 1219.09C142.421 1219.28 142.448 1219.49 142.429 1219.69C142.41 1219.9 142.344 1220.1 142.237 1220.28C142.13 1220.46 141.984 1220.61 141.81 1220.73C141.243 1221.1 140.923 1221.36 140.85 1221.49C140.807 1221.56 140.782 1221.64 140.779 1221.72C140.775 1221.8 140.792 1221.88 140.828 1221.95C140.864 1222.03 140.917 1222.09 140.984 1222.14C141.051 1222.18 141.129 1222.21 141.21 1222.22Z" fill="#C88C6A"/>
<path d="M138.61 1208.55L140.86 1210.27C141.298 1210.61 141.822 1210.81 142.37 1210.86C144.757 1211.08 146.937 1210.6 148.91 1209.43C149.266 1209.22 149.538 1208.89 149.68 1208.51L151.79 1202.9C151.884 1202.65 152.03 1202.42 152.219 1202.23C152.408 1202.04 152.635 1201.9 152.885 1201.8C153.135 1201.71 153.402 1201.67 153.669 1201.69C153.936 1201.71 154.195 1201.78 154.43 1201.91C158.14 1203.9 157.36 1206.81 156.86 1210.82C156.2 1216.01 152.72 1219.47 147.26 1218.83C145.967 1218.68 144.913 1218.1 144.1 1217.11C140.673 1212.94 138.563 1210.38 137.77 1209.43C137.667 1209.32 137.611 1209.17 137.613 1209.01C137.616 1208.86 137.676 1208.71 137.782 1208.6C137.888 1208.49 138.033 1208.42 138.186 1208.41C138.34 1208.4 138.491 1208.45 138.61 1208.55Z" fill="#C88C6A"/>
<path d="M177.7 1245.7C179.713 1244.29 181.69 1243.56 183.63 1243.53C190.957 1251.44 197.453 1259.87 203.12 1268.83C203.16 1268.89 203.219 1268.93 203.287 1268.96C203.356 1268.98 203.43 1268.98 203.497 1268.96C203.564 1268.93 203.621 1268.89 203.658 1268.83C203.695 1268.77 203.71 1268.7 203.7 1268.63C203.273 1264.62 202.99 1261.33 202.85 1258.76C202.25 1248.12 205.02 1235.19 211.64 1226.14C215.173 1221.31 219.123 1217.33 223.49 1214.19C223.874 1213.92 224.345 1213.79 224.814 1213.84C225.283 1213.89 225.719 1214.1 226.04 1214.45C228.533 1217.17 230.103 1220.35 230.75 1223.98C234.003 1242.34 229.94 1258.49 218.56 1272.42C216.48 1274.97 214.057 1277.23 211.29 1279.18C210.968 1279.41 210.726 1279.73 210.6 1280.1C210.474 1280.48 210.471 1280.88 210.59 1281.26C211.55 1284.31 212.39 1286.61 213.11 1288.14C215.99 1294.23 220.23 1303.25 219.5 1309C219.477 1309.18 219.411 1309.36 219.306 1309.52C219.201 1309.68 219.06 1309.82 218.89 1309.92C218.721 1310.03 218.527 1310.1 218.321 1310.14C218.115 1310.18 217.9 1310.18 217.69 1310.14C216.717 1309.97 216.083 1309.31 215.79 1308.17C214.63 1303.66 213.463 1299.95 212.29 1297.04C212.207 1296.83 212.077 1296.65 211.91 1296.5C211.743 1296.36 211.543 1296.25 211.328 1296.2C211.112 1296.14 210.887 1296.14 210.67 1296.19C210.453 1296.24 210.251 1296.34 210.08 1296.48C208.72 1297.62 207.03 1298.48 205.01 1299.05C187.977 1303.86 172.5 1301.5 158.58 1291.97C154.727 1289.33 151.923 1286.51 150.17 1283.5C149.881 1283 149.771 1282.42 149.859 1281.85C149.946 1281.28 150.225 1280.76 150.65 1280.37C151.877 1279.24 153.363 1278.3 155.11 1277.54C163.783 1273.78 173.257 1272.95 183.53 1275.06C190.73 1276.54 197.927 1279.23 205.12 1283.13C205.264 1283.21 205.429 1283.25 205.593 1283.23C205.758 1283.22 205.914 1283.15 206.041 1283.05C206.169 1282.94 206.262 1282.8 206.308 1282.64C206.354 1282.49 206.351 1282.32 206.3 1282.16C206.253 1282.03 206.087 1281.73 205.8 1281.26C199.933 1271.69 196.783 1266.59 196.35 1265.94C192.4 1260.11 188 1253.71 182.53 1249.44C180.91 1248.17 179.3 1246.93 177.7 1245.7ZM207.47 1268.67C207.49 1268.73 207.528 1268.78 207.58 1268.82C207.632 1268.86 207.694 1268.88 207.756 1268.88C207.819 1268.87 207.879 1268.85 207.926 1268.81C207.974 1268.77 208.007 1268.72 208.02 1268.66C209.593 1262.07 210.73 1256.62 211.43 1252.32C212.01 1248.74 213.91 1242.58 215.85 1240.13C216.323 1239.53 216.76 1239.21 217.16 1239.17C217.272 1239.16 217.385 1239.18 217.489 1239.22C217.594 1239.26 217.687 1239.32 217.763 1239.41C217.838 1239.49 217.894 1239.59 217.924 1239.7C217.955 1239.81 217.96 1239.92 217.94 1240.03C214.56 1258.12 212.623 1268.27 212.13 1270.49C212.123 1270.51 212.123 1271.49 212.13 1273.43C212.13 1273.52 212.151 1273.6 212.192 1273.68C212.232 1273.75 212.29 1273.81 212.362 1273.86C212.433 1273.91 212.515 1273.94 212.6 1273.95C212.685 1273.96 212.771 1273.94 212.85 1273.91C213.61 1273.58 214.383 1273.03 215.17 1272.28C215.29 1272.16 215.4 1272.03 215.5 1271.88C218.533 1267.28 221.12 1262.64 223.26 1257.95C226.033 1251.9 227.663 1244.25 228.15 1235.02C228.463 1229.18 227.517 1223.61 225.31 1218.3C225.263 1218.19 225.193 1218.09 225.103 1218.01C225.013 1217.93 224.907 1217.87 224.792 1217.84C224.676 1217.81 224.555 1217.8 224.437 1217.82C224.32 1217.84 224.208 1217.89 224.11 1217.96C215.68 1223.92 210.21 1235.62 207.32 1245.94C205.43 1252.69 205.57 1262.45 207.47 1268.67ZM206.7 1289.53C206.783 1289.54 206.868 1289.53 206.942 1289.49C207.015 1289.45 207.072 1289.38 207.104 1289.3C207.135 1289.22 207.139 1289.14 207.115 1289.06C207.091 1288.98 207.039 1288.91 206.97 1288.86C192.1 1278.01 172.45 1274 155.29 1281.43C155.079 1281.52 154.89 1281.66 154.735 1281.83C154.58 1282 154.463 1282.2 154.391 1282.42C154.319 1282.64 154.295 1282.87 154.319 1283.1C154.342 1283.33 154.415 1283.55 154.53 1283.75C156.33 1286.83 160.77 1289.46 164.66 1291.58C165.847 1292.22 168.89 1293.44 173.79 1295.23C184.29 1299.07 194.9 1298.9 205.52 1295.08C205.638 1295.04 205.738 1294.96 205.806 1294.85C205.875 1294.75 205.907 1294.62 205.899 1294.5C205.892 1294.37 205.844 1294.25 205.763 1294.16C205.682 1294.06 205.572 1294 205.45 1293.97L183.31 1289.08C183.043 1289.02 182.799 1288.88 182.609 1288.69C182.419 1288.49 182.291 1288.25 182.24 1287.98L182.16 1287.57C182.13 1287.41 182.139 1287.24 182.186 1287.08C182.233 1286.93 182.316 1286.78 182.429 1286.66C182.542 1286.55 182.682 1286.45 182.837 1286.4C182.992 1286.35 183.157 1286.33 183.32 1286.35L206.7 1289.53Z" fill="#41120A"/>
<path d="M207.47 1268.67C205.57 1262.45 205.43 1252.69 207.32 1245.94C210.21 1235.62 215.68 1223.92 224.11 1217.96C224.208 1217.89 224.319 1217.84 224.437 1217.82C224.555 1217.8 224.676 1217.81 224.791 1217.84C224.907 1217.87 225.013 1217.93 225.103 1218.01C225.192 1218.09 225.263 1218.19 225.31 1218.3C227.517 1223.61 228.463 1229.18 228.15 1235.02C227.663 1244.25 226.033 1251.9 223.26 1257.95C221.12 1262.64 218.533 1267.28 215.5 1271.88C215.4 1272.03 215.29 1272.16 215.17 1272.28C214.383 1273.03 213.61 1273.58 212.85 1273.91C212.771 1273.94 212.685 1273.96 212.6 1273.95C212.515 1273.94 212.433 1273.91 212.362 1273.86C212.29 1273.82 212.232 1273.75 212.192 1273.68C212.151 1273.6 212.13 1273.52 212.13 1273.43C212.123 1271.49 212.123 1270.51 212.13 1270.49C212.623 1268.27 214.56 1258.12 217.94 1240.03C217.96 1239.92 217.955 1239.81 217.924 1239.7C217.894 1239.59 217.838 1239.49 217.763 1239.41C217.687 1239.32 217.594 1239.26 217.489 1239.22C217.385 1239.18 217.272 1239.16 217.16 1239.17C216.76 1239.21 216.323 1239.53 215.85 1240.13C213.91 1242.58 212.01 1248.74 211.43 1252.32C210.73 1256.62 209.593 1262.07 208.02 1268.66C208.007 1268.72 207.974 1268.77 207.926 1268.81C207.879 1268.85 207.819 1268.87 207.756 1268.88C207.694 1268.88 207.632 1268.86 207.58 1268.82C207.528 1268.78 207.49 1268.73 207.47 1268.67Z" fill="#9EA269"/>
<path d="M206.7 1289.53L183.32 1286.35C183.157 1286.33 182.992 1286.35 182.837 1286.4C182.682 1286.45 182.542 1286.55 182.429 1286.66C182.316 1286.78 182.232 1286.93 182.186 1287.08C182.139 1287.24 182.13 1287.41 182.16 1287.57L182.24 1287.98C182.291 1288.25 182.419 1288.49 182.609 1288.69C182.799 1288.88 183.043 1289.02 183.31 1289.08L205.45 1293.97C205.572 1294 205.682 1294.06 205.763 1294.16C205.844 1294.25 205.892 1294.37 205.899 1294.5C205.907 1294.62 205.875 1294.75 205.806 1294.85C205.738 1294.96 205.637 1295.04 205.52 1295.08C194.9 1298.9 184.29 1299.07 173.79 1295.23C168.89 1293.44 165.847 1292.22 164.66 1291.58C160.77 1289.46 156.33 1286.83 154.53 1283.75C154.414 1283.55 154.342 1283.33 154.318 1283.1C154.294 1282.87 154.319 1282.64 154.391 1282.42C154.463 1282.2 154.58 1282 154.735 1281.83C154.89 1281.66 155.079 1281.52 155.29 1281.43C172.45 1274 192.1 1278.01 206.97 1288.86C207.039 1288.91 207.09 1288.98 207.115 1289.06C207.139 1289.14 207.135 1289.22 207.104 1289.3C207.072 1289.38 207.015 1289.45 206.942 1289.49C206.868 1289.53 206.783 1289.54 206.7 1289.53Z" fill="#9EA269"/>
</svg>
