<svg width="1449" height="2270" viewBox="0 0 1449 2270" fill="none" xmlns="http://www.w3.org/2000/svg">
<path d="M1206.98 1949.82C1206.43 1948.28 1205.55 1946.96 1204.36 1945.85L1201.81 1940.9C1201.7 1940.69 1201.63 1940.46 1201.6 1940.22C1200.61 1932.15 1201.67 1924.57 1204.79 1917.46C1204.87 1917.27 1204.9 1917.06 1204.88 1916.85C1204.85 1916.64 1204.76 1916.44 1204.63 1916.28C1196.58 1906.37 1198.19 1891.74 1204.25 1881.18C1209.73 1871.65 1220.02 1867.46 1230.52 1871.48C1232.45 1872.22 1234.04 1873.31 1235.29 1874.76C1235.37 1874.85 1235.47 1874.93 1235.58 1874.98C1235.69 1875.03 1235.81 1875.05 1235.93 1875.06C1236.05 1875.06 1236.17 1875.03 1236.28 1874.98C1236.39 1874.93 1236.49 1874.86 1236.57 1874.77C1243.65 1866.8 1252.24 1865.11 1262.33 1869.72C1271.42 1873.87 1277.81 1885.13 1277.17 1895.01C1277.05 1896.89 1276.56 1898.63 1275.7 1900.23C1275.61 1900.41 1275.58 1900.62 1275.64 1900.81C1275.69 1901.01 1275.82 1901.18 1275.99 1901.28C1279.5 1903.37 1282.22 1904.92 1284.13 1905.93C1288.03 1907.98 1289.7 1910.38 1291.82 1914.23C1297.94 1925.33 1296.79 1940.12 1284.92 1946.91C1281.92 1948.63 1279.43 1947.87 1276.32 1946.57C1275.95 1946.42 1275.53 1946.41 1275.15 1946.57C1274.77 1946.72 1274.47 1947.01 1274.31 1947.38C1273.16 1949.96 1273.49 1953.32 1272.27 1956.03C1269.41 1962.42 1264.81 1967.88 1258.13 1970.67C1253.81 1972.48 1249.18 1973.68 1244.24 1974.27C1241.14 1974.64 1238.7 1973.83 1235.66 1972.43C1230.05 1969.85 1228.8 1965.77 1227.47 1960.15C1227.35 1959.62 1227.06 1959.14 1226.65 1958.78C1226.25 1958.41 1225.73 1958.19 1225.19 1958.13C1218.37 1957.38 1212.3 1954.61 1206.98 1949.82ZM1275.97 1938.33C1276.06 1938.27 1276.17 1938.23 1276.29 1938.23C1276.4 1938.24 1276.51 1938.28 1276.6 1938.35C1276.69 1938.41 1276.75 1938.51 1276.78 1938.62C1276.81 1938.73 1276.81 1938.84 1276.77 1938.95C1275.85 1941.27 1276.17 1942.96 1277.72 1944.02C1279.55 1945.26 1281.76 1944.5 1283.58 1943.49C1294.23 1937.58 1293.44 1924.2 1288.45 1914.84C1287.26 1912.61 1285.16 1910.34 1282.16 1908.04C1278.38 1905.14 1272.01 1905.22 1269.71 1900.64C1269.63 1900.49 1269.6 1900.33 1269.61 1900.16C1269.63 1899.99 1269.69 1899.84 1269.78 1899.7C1269.88 1899.57 1270.02 1899.47 1270.17 1899.41C1270.32 1899.35 1270.49 1899.33 1270.65 1899.36C1273.32 1899.86 1273.87 1896 1273.83 1893.99C1273.65 1885.28 1269.89 1878.44 1262.55 1873.49C1260.87 1872.36 1259.28 1871.64 1257.78 1871.34C1251.22 1870.03 1245.37 1871.39 1240.23 1875.43C1237.64 1877.47 1236.64 1880.04 1237.21 1883.15C1237.25 1883.35 1237.22 1883.56 1237.12 1883.73L1235.91 1885.95C1235.83 1886.09 1235.78 1886.25 1235.76 1886.41C1235.75 1886.58 1235.76 1886.74 1235.81 1886.9C1236.15 1888.07 1237 1888.55 1238.35 1888.34C1243.86 1887.47 1249.03 1888.43 1253.84 1891.23C1255.57 1892.24 1257.54 1893.95 1259.73 1896.35C1260.16 1896.82 1262.1 1898.59 1265.53 1901.68C1272.17 1907.65 1275.47 1915.14 1275.44 1924.15C1275.44 1924.27 1275.43 1924.39 1275.4 1924.5L1273.41 1934.52C1273.36 1934.76 1273.26 1934.99 1273.12 1935.19C1272.15 1936.61 1271.58 1937.7 1271.43 1938.47C1271.07 1940.24 1270.43 1942.22 1269.51 1944.39C1269.37 1944.73 1269.15 1945.04 1268.87 1945.28C1260.88 1952.25 1252.85 1958.17 1242 1951.94C1241.74 1951.79 1241.43 1951.75 1241.13 1951.82C1240.84 1951.89 1240.59 1952.07 1240.42 1952.32C1239.29 1954.07 1237.64 1955.41 1235.49 1956.36C1233.3 1957.34 1231.89 1958.65 1232.01 1961C1232.65 1973.34 1247.59 1970.4 1255.39 1967.47C1265.22 1963.77 1270.54 1954.63 1271.46 1944.77C1271.48 1944.56 1271.62 1944.35 1271.87 1944.15C1271.95 1944.08 1272 1944 1272.02 1943.9L1272.69 1940.95C1272.74 1940.74 1272.87 1940.56 1273.04 1940.44L1275.97 1938.33ZM1235.12 1888.86C1235.11 1888.86 1234.79 1888.83 1234.16 1888.78C1233.52 1888.73 1233.19 1888.7 1233.18 1888.69C1230.74 1887.16 1233.41 1883.17 1234.71 1880.69C1235.26 1879.66 1234.91 1878.54 1233.68 1877.33C1230.09 1873.81 1225.84 1872.52 1220.93 1873.45C1209.72 1875.58 1206.39 1884.07 1203.02 1893.99C1202.91 1894.29 1202.85 1894.61 1202.84 1894.93C1202.62 1900.32 1204.77 1907.13 1206.22 1912.48C1206.33 1912.89 1206.58 1913.25 1206.9 1913.5C1207.23 1913.75 1207.63 1913.88 1208.03 1913.86C1208.32 1913.84 1208.98 1913.55 1209.99 1912.99C1212.59 1911.54 1214.98 1910 1217.17 1908.39C1217.44 1908.2 1217.68 1907.97 1217.9 1907.72C1221.13 1904 1223.25 1901.41 1224.25 1899.94C1227.32 1895.42 1231.26 1892.63 1235.27 1890.17C1235.39 1890.1 1235.48 1889.99 1235.54 1889.87C1235.6 1889.74 1235.62 1889.6 1235.61 1889.47C1235.59 1889.33 1235.54 1889.2 1235.45 1889.09C1235.37 1888.99 1235.25 1888.9 1235.12 1888.86ZM1226.5 1901.96C1231.27 1901.17 1235.2 1902.16 1238.31 1904.93C1238.54 1905.14 1238.84 1905.27 1239.15 1905.3C1239.46 1905.33 1239.77 1905.26 1240.04 1905.11L1245.46 1901.98C1245.56 1901.91 1245.68 1901.88 1245.8 1901.87C1249.6 1901.56 1253.04 1902.51 1256.11 1904.74C1256.22 1904.82 1256.32 1904.91 1256.41 1905.02L1261.37 1911.24C1261.97 1911.99 1262.36 1912.89 1262.52 1913.85L1264.05 1923.49C1264.09 1923.73 1264.2 1923.95 1264.37 1924.13C1264.54 1924.3 1264.75 1924.42 1264.99 1924.47C1265.23 1924.51 1265.48 1924.48 1265.7 1924.38C1265.92 1924.28 1266.11 1924.12 1266.23 1923.91L1267.48 1921.82C1267.64 1921.55 1267.71 1921.25 1267.69 1920.94C1267.54 1918.64 1267.55 1916.69 1267.71 1915.08C1268.36 1908.68 1265.5 1905.14 1261.22 1901.07C1260.9 1900.76 1260.47 1900.58 1260.02 1900.56C1259.58 1900.54 1259.14 1900.69 1258.79 1900.97L1257.42 1902.08C1257.27 1902.2 1257.09 1902.27 1256.9 1902.27C1256.7 1902.28 1256.51 1902.22 1256.36 1902.1L1252.39 1899.05C1252.26 1898.95 1252.16 1898.81 1252.11 1898.65C1252.06 1898.49 1252.06 1898.32 1252.11 1898.16C1252.16 1898 1252.26 1897.86 1252.4 1897.77C1252.53 1897.67 1252.69 1897.61 1252.86 1897.61L1255.45 1897.53C1255.53 1897.53 1255.61 1897.5 1255.67 1897.46C1255.74 1897.42 1255.79 1897.35 1255.82 1897.28C1255.85 1897.21 1255.87 1897.13 1255.85 1897.05C1255.84 1896.97 1255.81 1896.9 1255.76 1896.84C1246.79 1886.03 1233.24 1892.83 1226.3 1901.62C1226.27 1901.65 1226.26 1901.69 1226.25 1901.74C1226.25 1901.78 1226.26 1901.82 1226.28 1901.86C1226.3 1901.9 1226.34 1901.93 1226.37 1901.94C1226.41 1901.96 1226.46 1901.97 1226.5 1901.96ZM1258.08 1914.13L1257.05 1909.78C1254.4 1905.06 1250.09 1904.71 1244.88 1905.2C1244.62 1905.23 1244.36 1905.3 1244.12 1905.42C1243.31 1905.82 1242.46 1906.61 1241.58 1907.8C1238.15 1912.41 1236.5 1917.42 1238.07 1923C1239.25 1927.18 1240.39 1931.76 1244.28 1933.11C1245.41 1933.5 1246.24 1934 1246.76 1934.59C1249.25 1937.43 1253.46 1934.76 1256.3 1932.86C1257.57 1932.02 1258.49 1930.73 1259.07 1929C1259.52 1927.64 1259.85 1926.09 1260.06 1924.35C1260.47 1920.87 1259.81 1917.46 1258.08 1914.13ZM1235.05 1908.65C1232.54 1907.94 1228.6 1904.37 1225.31 1905.5C1223.55 1906.1 1222.37 1907.51 1221.76 1909.73C1221.65 1910.12 1221.63 1910.52 1221.7 1910.91C1223.44 1921.48 1225.98 1929.82 1233.48 1937.56C1235.34 1939.49 1238.97 1942.99 1240.73 1938.74C1240.82 1938.53 1240.85 1938.3 1240.84 1938.07C1240.82 1937.85 1240.75 1937.63 1240.63 1937.43C1236.51 1930.63 1233.67 1924.86 1233.93 1916.65C1234.01 1914.24 1234.7 1912.98 1235.88 1910.44C1235.96 1910.27 1236 1910.09 1236 1909.9C1236 1909.71 1235.96 1909.53 1235.88 1909.36C1235.8 1909.19 1235.69 1909.03 1235.54 1908.91C1235.4 1908.79 1235.23 1908.7 1235.05 1908.65ZM1217.41 1911.43L1211.26 1915.94C1210.98 1916.15 1210.74 1916.42 1210.57 1916.73L1207.69 1922C1207.58 1922.21 1207.5 1922.44 1207.47 1922.68C1207.26 1924.11 1206.46 1927.15 1205.05 1931.82C1203.25 1937.81 1208.88 1945.01 1213.14 1949.31C1215.51 1951.72 1218.72 1953.2 1222.77 1953.76C1224.65 1954.02 1226.16 1953.99 1227.31 1953.66C1231.2 1952.54 1234.33 1952.25 1237.89 1949.83C1238.19 1949.62 1238.41 1949.32 1238.51 1948.96C1238.6 1948.61 1238.57 1948.24 1238.41 1947.91C1236.65 1944.3 1232.68 1942.61 1230.67 1940.32C1223.5 1932.19 1219.32 1922.67 1218.12 1911.74C1218.11 1911.66 1218.08 1911.59 1218.03 1911.53C1217.99 1911.46 1217.92 1911.41 1217.85 1911.38C1217.78 1911.35 1217.7 1911.34 1217.63 1911.35C1217.55 1911.36 1217.47 1911.38 1217.41 1911.43ZM1269.59 1921.15L1267.03 1927.36C1266.95 1927.56 1266.83 1927.73 1266.67 1927.88C1266.52 1928.03 1266.34 1928.14 1266.14 1928.22C1265.08 1928.72 1263.85 1929.22 1263.49 1930.68C1262.74 1933.76 1257.67 1939.08 1254.49 1938.64C1250.37 1938.06 1247.64 1937.18 1244.59 1938.98C1244.31 1939.14 1244.09 1939.39 1243.95 1939.68L1241.63 1944.48C1241.52 1944.71 1241.46 1944.96 1241.44 1945.22C1241.43 1945.47 1241.47 1945.73 1241.56 1945.97C1243.28 1950.66 1248.69 1950.61 1253.02 1949.76C1258.14 1948.75 1263.91 1943.52 1267.62 1939.77C1268.23 1939.15 1268.65 1938.37 1268.83 1937.52C1269.85 1932.66 1272.33 1927.32 1272.29 1922.07C1272.27 1919.87 1273.94 1915.44 1271.18 1913.99C1270.93 1913.86 1270.65 1913.82 1270.37 1913.87C1270.09 1913.92 1269.82 1914.06 1269.59 1914.29C1269.36 1914.51 1269.18 1914.8 1269.06 1915.13C1268.94 1915.46 1268.89 1915.82 1268.92 1916.17C1269.06 1917.97 1269.29 1919.34 1269.61 1920.27C1269.71 1920.56 1269.71 1920.87 1269.59 1921.15Z" fill="#211612"/>
<path d="M1275.97 1938.33L1273.04 1940.44C1272.87 1940.56 1272.74 1940.74 1272.69 1940.95L1272.02 1943.9C1272 1944 1271.95 1944.08 1271.87 1944.15C1271.62 1944.35 1271.48 1944.56 1271.46 1944.77C1270.54 1954.63 1265.22 1963.77 1255.39 1967.47C1247.59 1970.4 1232.65 1973.34 1232.01 1961C1231.89 1958.65 1233.3 1957.34 1235.49 1956.36C1237.64 1955.41 1239.29 1954.07 1240.42 1952.32C1240.59 1952.07 1240.84 1951.89 1241.14 1951.82C1241.43 1951.75 1241.74 1951.79 1242 1951.94C1252.85 1958.17 1260.88 1952.25 1268.87 1945.28C1269.15 1945.04 1269.37 1944.73 1269.51 1944.39C1270.43 1942.22 1271.07 1940.24 1271.43 1938.47C1271.58 1937.7 1272.15 1936.61 1273.12 1935.19C1273.26 1934.99 1273.36 1934.76 1273.41 1934.52L1275.4 1924.5C1275.43 1924.39 1275.44 1924.27 1275.44 1924.15C1275.47 1915.14 1272.17 1907.65 1265.53 1901.68C1262.1 1898.59 1260.16 1896.82 1259.73 1896.35C1257.54 1893.95 1255.57 1892.24 1253.84 1891.23C1249.03 1888.43 1243.86 1887.47 1238.35 1888.34C1237 1888.55 1236.15 1888.07 1235.81 1886.9C1235.76 1886.74 1235.75 1886.58 1235.76 1886.41C1235.78 1886.25 1235.83 1886.09 1235.91 1885.95L1237.12 1883.73C1237.22 1883.56 1237.25 1883.35 1237.21 1883.15C1236.64 1880.04 1237.64 1877.47 1240.23 1875.43C1245.37 1871.39 1251.22 1870.03 1257.78 1871.34C1259.28 1871.64 1260.87 1872.36 1262.55 1873.49C1269.89 1878.44 1273.65 1885.28 1273.83 1893.99C1273.87 1896 1273.32 1899.86 1270.65 1899.36C1270.49 1899.33 1270.32 1899.35 1270.17 1899.41C1270.02 1899.47 1269.88 1899.57 1269.79 1899.7C1269.69 1899.84 1269.63 1899.99 1269.62 1900.16C1269.6 1900.33 1269.63 1900.49 1269.71 1900.64C1272.01 1905.22 1278.38 1905.14 1282.16 1908.04C1285.16 1910.34 1287.26 1912.61 1288.45 1914.84C1293.44 1924.2 1294.23 1937.58 1283.58 1943.49C1281.76 1944.5 1279.55 1945.26 1277.72 1944.02C1276.17 1942.96 1275.85 1941.27 1276.77 1938.95C1276.81 1938.84 1276.81 1938.73 1276.78 1938.62C1276.75 1938.51 1276.69 1938.41 1276.6 1938.35C1276.51 1938.28 1276.4 1938.24 1276.29 1938.23C1276.17 1938.23 1276.06 1938.26 1275.97 1938.33Z" fill="#C88C6A"/>
<path d="M1235.12 1888.86C1235.25 1888.9 1235.37 1888.99 1235.45 1889.09C1235.54 1889.2 1235.59 1889.33 1235.61 1889.47C1235.62 1889.6 1235.6 1889.74 1235.54 1889.87C1235.48 1889.99 1235.39 1890.1 1235.27 1890.17C1231.26 1892.63 1227.32 1895.42 1224.25 1899.94C1223.25 1901.41 1221.13 1904 1217.9 1907.72C1217.68 1907.97 1217.44 1908.2 1217.17 1908.39C1214.98 1910 1212.59 1911.54 1209.99 1912.99C1208.98 1913.55 1208.32 1913.84 1208.03 1913.86C1207.63 1913.88 1207.23 1913.75 1206.9 1913.5C1206.58 1913.25 1206.33 1912.89 1206.22 1912.48C1204.77 1907.13 1202.62 1900.32 1202.84 1894.93C1202.85 1894.61 1202.91 1894.29 1203.02 1893.99C1206.39 1884.07 1209.72 1875.58 1220.93 1873.45C1225.84 1872.52 1230.09 1873.81 1233.68 1877.33C1234.91 1878.54 1235.26 1879.66 1234.71 1880.69C1233.41 1883.17 1230.74 1887.16 1233.18 1888.69C1233.19 1888.7 1233.52 1888.73 1234.16 1888.78C1234.79 1888.83 1235.11 1888.86 1235.12 1888.86Z" fill="#C88C6A"/>
<path d="M1226.5 1901.96C1226.46 1901.97 1226.41 1901.96 1226.37 1901.94C1226.34 1901.93 1226.3 1901.9 1226.28 1901.86C1226.26 1901.82 1226.25 1901.78 1226.25 1901.74C1226.26 1901.69 1226.27 1901.65 1226.3 1901.62C1233.24 1892.83 1246.79 1886.03 1255.76 1896.84C1255.81 1896.9 1255.84 1896.97 1255.85 1897.05C1255.87 1897.13 1255.85 1897.21 1255.82 1897.28C1255.79 1897.35 1255.74 1897.42 1255.67 1897.46C1255.61 1897.5 1255.53 1897.53 1255.45 1897.53L1252.86 1897.61C1252.69 1897.61 1252.53 1897.67 1252.4 1897.76C1252.26 1897.86 1252.16 1898 1252.11 1898.16C1252.06 1898.32 1252.06 1898.49 1252.11 1898.65C1252.16 1898.81 1252.26 1898.95 1252.39 1899.05L1256.36 1902.1C1256.51 1902.22 1256.7 1902.28 1256.9 1902.27C1257.09 1902.27 1257.27 1902.2 1257.42 1902.08L1258.79 1900.97C1259.14 1900.69 1259.58 1900.54 1260.02 1900.56C1260.47 1900.58 1260.9 1900.76 1261.22 1901.07C1265.5 1905.14 1268.36 1908.68 1267.71 1915.08C1267.55 1916.69 1267.54 1918.64 1267.69 1920.94C1267.71 1921.25 1267.64 1921.55 1267.48 1921.82L1266.23 1923.91C1266.11 1924.12 1265.92 1924.28 1265.7 1924.38C1265.48 1924.48 1265.23 1924.51 1264.99 1924.47C1264.75 1924.42 1264.54 1924.3 1264.37 1924.13C1264.2 1923.95 1264.09 1923.73 1264.05 1923.49L1262.52 1913.85C1262.36 1912.89 1261.97 1911.99 1261.37 1911.24L1256.41 1905.02C1256.32 1904.91 1256.22 1904.82 1256.11 1904.74C1253.04 1902.51 1249.6 1901.56 1245.8 1901.87C1245.68 1901.88 1245.56 1901.91 1245.46 1901.98L1240.04 1905.11C1239.77 1905.26 1239.46 1905.33 1239.15 1905.3C1238.84 1905.27 1238.54 1905.14 1238.31 1904.93C1235.2 1902.16 1231.27 1901.17 1226.5 1901.96Z" fill="#C88C6A"/>
<path d="M1257.05 1909.78L1256.88 1910.86C1256.87 1910.93 1256.84 1910.99 1256.8 1911.05C1256.76 1911.1 1256.71 1911.15 1256.65 1911.18C1256.58 1911.21 1256.51 1911.22 1256.45 1911.22C1256.38 1911.22 1256.31 1911.2 1256.25 1911.16L1251.94 1908.64C1251.79 1908.55 1251.64 1908.49 1251.47 1908.46C1247.12 1907.55 1242.91 1911.68 1240.91 1914.95C1240.85 1915.05 1240.81 1915.16 1240.79 1915.27C1240.78 1915.39 1240.78 1915.51 1240.81 1915.62C1240.84 1915.73 1240.89 1915.83 1240.96 1915.93C1241.03 1916.02 1241.12 1916.09 1241.22 1916.15C1242.31 1916.78 1243.03 1917.87 1243.38 1919.41C1243.39 1919.44 1243.39 1919.47 1243.39 1919.5L1243.33 1927.02C1243.33 1927.21 1243.37 1927.4 1243.45 1927.57L1245.13 1931.23C1245.2 1931.38 1245.3 1931.51 1245.42 1931.62C1245.54 1931.73 1245.68 1931.82 1245.84 1931.87C1245.99 1931.92 1246.16 1931.94 1246.32 1931.93C1246.49 1931.91 1246.65 1931.87 1246.79 1931.79C1248.42 1930.91 1250.06 1930.5 1251.69 1930.57C1252.01 1930.59 1252.32 1930.52 1252.61 1930.37C1252.89 1930.23 1253.13 1930.01 1253.31 1929.74L1257.45 1923.48C1257.54 1923.35 1257.59 1923.2 1257.6 1923.05C1257.81 1921.04 1257.48 1919.1 1256.6 1917.24C1256.46 1916.94 1256.24 1916.7 1255.95 1916.54C1255.67 1916.38 1255.34 1916.31 1255.01 1916.33C1254.68 1916.36 1254.35 1916.48 1254.08 1916.68C1253.8 1916.89 1253.59 1917.16 1253.46 1917.48C1253.31 1917.85 1253.12 1918.2 1252.89 1918.52C1252.78 1918.67 1252.63 1918.79 1252.46 1918.87C1252.29 1918.95 1252.1 1918.97 1251.92 1918.95C1250.79 1918.8 1249.79 1918.26 1248.94 1917.32C1248.74 1917.09 1248.6 1916.81 1248.55 1916.5C1248.37 1915.41 1248.64 1914.45 1249.37 1913.63C1249.58 1913.38 1249.88 1913.22 1250.2 1913.18C1253.37 1912.73 1255.99 1913.05 1258.08 1914.13C1259.81 1917.46 1260.47 1920.87 1260.06 1924.35C1259.85 1926.09 1259.52 1927.64 1259.07 1929C1258.49 1930.73 1257.57 1932.02 1256.3 1932.86C1253.46 1934.76 1249.25 1937.43 1246.76 1934.59C1246.24 1934 1245.41 1933.5 1244.28 1933.11C1240.39 1931.76 1239.25 1927.18 1238.07 1923C1236.5 1917.42 1238.15 1912.41 1241.58 1907.8C1242.46 1906.61 1243.31 1905.82 1244.12 1905.42C1244.36 1905.3 1244.62 1905.23 1244.88 1905.2C1250.09 1904.71 1254.4 1905.06 1257.05 1909.78Z" fill="#C88C6A"/>
<path d="M1235.05 1908.65C1235.23 1908.7 1235.4 1908.79 1235.54 1908.91C1235.69 1909.03 1235.8 1909.19 1235.88 1909.36C1235.96 1909.53 1236 1909.71 1236 1909.9C1236 1910.09 1235.96 1910.27 1235.88 1910.44C1234.7 1912.98 1234.01 1914.24 1233.93 1916.65C1233.67 1924.86 1236.51 1930.63 1240.63 1937.43C1240.75 1937.63 1240.82 1937.85 1240.84 1938.07C1240.85 1938.3 1240.82 1938.53 1240.73 1938.74C1238.97 1942.99 1235.34 1939.49 1233.48 1937.56C1225.98 1929.82 1223.44 1921.48 1221.7 1910.91C1221.63 1910.52 1221.65 1910.12 1221.76 1909.73C1222.37 1907.51 1223.55 1906.1 1225.31 1905.5C1228.6 1904.37 1232.54 1907.94 1235.05 1908.65Z" fill="#C88C6A"/>
<path d="M1257.05 1909.78L1258.08 1914.13C1255.99 1913.05 1253.37 1912.73 1250.2 1913.18C1249.88 1913.23 1249.58 1913.39 1249.37 1913.63C1248.64 1914.45 1248.37 1915.41 1248.55 1916.5C1248.6 1916.81 1248.74 1917.09 1248.94 1917.32C1249.79 1918.26 1250.79 1918.8 1251.92 1918.95C1252.1 1918.97 1252.29 1918.95 1252.46 1918.87C1252.63 1918.8 1252.78 1918.67 1252.89 1918.52C1253.12 1918.2 1253.31 1917.85 1253.46 1917.48C1253.59 1917.16 1253.8 1916.89 1254.08 1916.68C1254.36 1916.48 1254.68 1916.36 1255.01 1916.33C1255.34 1916.31 1255.67 1916.38 1255.95 1916.54C1256.24 1916.7 1256.46 1916.95 1256.6 1917.24C1257.48 1919.1 1257.81 1921.04 1257.6 1923.05C1257.59 1923.2 1257.54 1923.35 1257.45 1923.48L1253.31 1929.74C1253.13 1930.01 1252.89 1930.23 1252.61 1930.37C1252.32 1930.52 1252.01 1930.59 1251.69 1930.57C1250.06 1930.5 1248.42 1930.91 1246.79 1931.79C1246.65 1931.87 1246.49 1931.91 1246.32 1931.93C1246.16 1931.94 1245.99 1931.92 1245.84 1931.87C1245.68 1931.82 1245.54 1931.73 1245.42 1931.62C1245.3 1931.51 1245.2 1931.38 1245.13 1931.23L1243.45 1927.57C1243.37 1927.4 1243.33 1927.21 1243.33 1927.02L1243.39 1919.5C1243.39 1919.47 1243.39 1919.44 1243.38 1919.41C1243.03 1917.87 1242.31 1916.78 1241.22 1916.15C1241.12 1916.09 1241.03 1916.02 1240.96 1915.93C1240.89 1915.83 1240.84 1915.73 1240.81 1915.62C1240.78 1915.51 1240.78 1915.39 1240.79 1915.27C1240.81 1915.16 1240.85 1915.05 1240.91 1914.95C1242.91 1911.68 1247.12 1907.55 1251.47 1908.46C1251.64 1908.49 1251.79 1908.55 1251.94 1908.64L1256.25 1911.16C1256.31 1911.2 1256.38 1911.22 1256.45 1911.22C1256.51 1911.22 1256.58 1911.21 1256.65 1911.18C1256.71 1911.15 1256.76 1911.1 1256.8 1911.05C1256.84 1910.99 1256.87 1910.93 1256.88 1910.86L1257.05 1909.78ZM1248.57 1923.08C1248.31 1924.23 1248.9 1925.64 1250.33 1927.33C1250.57 1927.62 1250.92 1927.8 1251.29 1927.84C1251.66 1927.88 1252.03 1927.78 1252.33 1927.55C1253.75 1926.46 1254.57 1925.43 1254.79 1924.47C1255 1923.5 1254.7 1922.23 1253.88 1920.64C1253.71 1920.31 1253.42 1920.05 1253.06 1919.93C1252.7 1919.81 1252.31 1919.82 1251.97 1919.98C1249.96 1920.89 1248.82 1921.93 1248.57 1923.08Z" fill="#2F1910"/>
<path d="M1217.41 1911.43C1217.47 1911.38 1217.55 1911.36 1217.63 1911.35C1217.7 1911.34 1217.78 1911.35 1217.85 1911.38C1217.92 1911.41 1217.99 1911.46 1218.03 1911.53C1218.08 1911.59 1218.11 1911.66 1218.12 1911.74C1219.32 1922.67 1223.5 1932.19 1230.67 1940.32C1232.68 1942.61 1236.65 1944.3 1238.41 1947.91C1238.57 1948.24 1238.6 1948.61 1238.51 1948.96C1238.41 1949.32 1238.19 1949.62 1237.89 1949.83C1234.33 1952.25 1231.2 1952.54 1227.31 1953.66C1226.16 1953.99 1224.65 1954.02 1222.77 1953.76C1218.72 1953.2 1215.51 1951.72 1213.14 1949.31C1208.88 1945.01 1203.25 1937.81 1205.05 1931.82C1206.46 1927.15 1207.26 1924.11 1207.47 1922.68C1207.5 1922.44 1207.58 1922.21 1207.69 1922L1210.57 1916.73C1210.74 1916.42 1210.98 1916.15 1211.26 1915.94L1217.41 1911.43Z" fill="#C88C6A"/>
<path d="M1269.59 1921.15C1269.71 1920.87 1269.71 1920.56 1269.61 1920.27C1269.29 1919.34 1269.06 1917.97 1268.92 1916.17C1268.89 1915.82 1268.94 1915.46 1269.06 1915.13C1269.18 1914.8 1269.36 1914.51 1269.59 1914.29C1269.82 1914.06 1270.09 1913.92 1270.37 1913.87C1270.65 1913.82 1270.93 1913.86 1271.18 1913.99C1273.94 1915.44 1272.27 1919.87 1272.29 1922.07C1272.33 1927.32 1269.85 1932.66 1268.83 1937.52C1268.65 1938.37 1268.23 1939.15 1267.62 1939.77C1263.91 1943.52 1258.14 1948.75 1253.02 1949.76C1248.69 1950.61 1243.28 1950.66 1241.56 1945.97C1241.47 1945.73 1241.43 1945.47 1241.44 1945.22C1241.46 1944.96 1241.52 1944.71 1241.63 1944.48L1243.95 1939.68C1244.09 1939.39 1244.31 1939.14 1244.59 1938.98C1247.64 1937.18 1250.37 1938.06 1254.49 1938.64C1257.67 1939.08 1262.74 1933.76 1263.49 1930.68C1263.85 1929.22 1265.08 1928.72 1266.14 1928.22C1266.34 1928.14 1266.52 1928.03 1266.67 1927.88C1266.83 1927.73 1266.95 1927.56 1267.03 1927.36L1269.59 1921.15Z" fill="#C88C6A"/>
<path d="M1204.36 1945.85C1205.55 1946.96 1206.43 1948.28 1206.98 1949.82C1196.95 1956.85 1187.28 1964.49 1177.97 1972.72C1176.87 1973.69 1175.98 1974.85 1175.31 1976.18C1175.25 1976.29 1175.23 1976.42 1175.24 1976.54C1175.25 1976.66 1175.29 1976.78 1175.37 1976.88C1175.45 1976.98 1175.55 1977.06 1175.66 1977.1C1175.78 1977.15 1175.91 1977.16 1176.03 1977.13C1187.94 1974.72 1199.58 1975.97 1210.93 1980.88C1216.08 1983.1 1220.5 1986.43 1224.17 1990.88C1224.48 1991.26 1224.65 1991.73 1224.65 1992.22C1224.64 1992.71 1224.46 1993.18 1224.14 1993.55C1219.83 1998.53 1208.31 2000.96 1202.01 2001.41C1187.89 2002.42 1175.62 1998.43 1165.2 1989.45C1165.1 1989.36 1164.97 1989.32 1164.84 1989.32C1164.7 1989.33 1164.58 1989.38 1164.48 1989.47C1160.54 1993.27 1157.76 1997.11 1156.14 2001C1156.07 2001.17 1155.96 2001.33 1155.83 2001.46C1155.69 2001.59 1155.53 2001.69 1155.36 2001.76C1155.18 2001.83 1154.99 2001.86 1154.81 2001.86C1154.62 2001.85 1154.43 2001.81 1154.26 2001.73L1152.82 2001.07C1152.5 2000.92 1152.25 2000.66 1152.11 2000.33C1151.98 2000 1151.98 1999.64 1152.11 1999.31C1152.72 1997.76 1153.08 1996.9 1153.19 1996.72C1157.97 1989.49 1161.79 1984.12 1164.64 1980.62C1164.9 1980.3 1165.61 1979.59 1166.78 1978.5C1167.22 1978.09 1167.5 1977.53 1167.56 1976.93C1167.62 1976.33 1167.45 1975.73 1167.1 1975.24C1155.41 1959.13 1157.75 1936.91 1169.43 1921.71C1169.88 1921.12 1170.84 1920.39 1172.31 1919.52C1172.48 1919.42 1172.67 1919.35 1172.87 1919.33C1173.08 1919.31 1173.28 1919.33 1173.47 1919.39C1179.4 1921.34 1182.39 1936.1 1183.07 1942.34C1183.81 1948.98 1181.95 1957.27 1180.09 1963.74C1180.06 1963.84 1180.07 1963.95 1180.11 1964.05C1180.14 1964.14 1180.21 1964.23 1180.3 1964.28C1180.39 1964.33 1180.5 1964.36 1180.6 1964.35C1180.71 1964.34 1180.8 1964.29 1180.88 1964.22C1188.04 1957.46 1195.87 1951.34 1204.36 1945.85ZM1173.31 1941.32C1173.34 1941.25 1173.4 1941.2 1173.47 1941.17C1173.54 1941.13 1173.61 1941.12 1173.69 1941.14C1173.76 1941.15 1173.83 1941.19 1173.88 1941.25C1173.93 1941.3 1173.96 1941.37 1173.97 1941.45C1174.14 1943.41 1174.18 1945.18 1174.11 1946.75C1173.79 1953.6 1173.33 1960.48 1172.73 1967.39C1172.72 1967.5 1172.75 1967.6 1172.81 1967.69C1172.87 1967.78 1172.96 1967.84 1173.07 1967.87C1173.17 1967.9 1173.28 1967.9 1173.38 1967.86C1173.48 1967.82 1173.56 1967.74 1173.61 1967.65C1178.76 1957.76 1180.09 1945.31 1177.33 1934.54C1176.31 1930.57 1175.26 1927.14 1174.19 1924.27C1174.15 1924.15 1174.07 1924.05 1173.97 1923.97C1173.87 1923.89 1173.76 1923.84 1173.63 1923.82C1173.51 1923.8 1173.38 1923.81 1173.26 1923.85C1173.14 1923.9 1173.04 1923.97 1172.96 1924.07C1163.67 1935.4 1161.21 1948.15 1165.59 1962.32C1166.44 1965.08 1166.99 1967.61 1168.76 1969.95C1168.84 1970.05 1168.95 1970.12 1169.07 1970.16C1169.19 1970.19 1169.32 1970.18 1169.44 1970.14C1169.56 1970.1 1169.66 1970.01 1169.73 1969.91C1169.8 1969.8 1169.84 1969.68 1169.83 1969.55C1169.31 1960.3 1168.95 1949.38 1173.31 1941.32ZM1177.38 1989.11C1174.4 1988.38 1172.48 1987.96 1171.63 1987.86C1171.52 1987.85 1171.4 1987.86 1171.3 1987.92C1171.2 1987.97 1171.12 1988.05 1171.06 1988.14C1171 1988.24 1170.98 1988.36 1170.99 1988.47C1171 1988.58 1171.04 1988.69 1171.11 1988.78C1174.22 1992.82 1180.48 1995.05 1185.06 1995.94C1189.82 1996.87 1194.34 1997.83 1199.5 1997.42C1201.52 1997.26 1203.55 1996.92 1205.58 1996.41C1212.2 1994.74 1215.33 1994.22 1218.31 1992.65C1218.49 1992.55 1218.65 1992.42 1218.77 1992.25C1218.9 1992.09 1218.98 1991.9 1219.02 1991.69C1219.06 1991.49 1219.05 1991.28 1219 1991.08C1218.95 1990.88 1218.85 1990.7 1218.72 1990.54C1217.43 1989 1215.84 1987.74 1213.93 1986.75C1210.54 1985 1206.71 1983.51 1202.44 1982.29C1198.99 1981.3 1194.97 1980.79 1190.4 1980.74C1182 1980.65 1177.72 1980.61 1177.57 1980.62C1175.84 1980.69 1174.15 1980.96 1172.49 1981.42C1172.31 1981.47 1172.16 1981.57 1172.04 1981.72C1171.93 1981.86 1171.86 1982.03 1171.84 1982.22C1171.83 1982.4 1171.87 1982.58 1171.96 1982.74C1172.06 1982.9 1172.19 1983.02 1172.36 1983.1L1172.78 1983.29C1173.03 1983.4 1173.3 1983.46 1173.58 1983.45C1177.21 1983.33 1180.47 1983.79 1183.36 1984.84C1183.76 1984.99 1184.19 1985.08 1184.62 1985.11L1192.24 1985.63C1192.42 1985.64 1192.6 1985.69 1192.76 1985.78C1192.92 1985.86 1193.06 1985.98 1193.17 1986.12C1193.28 1986.27 1193.36 1986.43 1193.41 1986.61C1193.45 1986.79 1193.46 1986.97 1193.43 1987.15C1192.92 1990.07 1190 1989.73 1187.79 1989.69C1186.03 1989.66 1183.24 1988.31 1181.68 1988.61C1179.31 1989.06 1177.87 1989.23 1177.38 1989.11Z" fill="#41120A"/>
<path d="M1254.79 1924.47C1254.57 1925.43 1253.75 1926.46 1252.33 1927.55C1252.03 1927.78 1251.66 1927.88 1251.29 1927.84C1250.92 1927.8 1250.57 1927.62 1250.33 1927.33C1248.9 1925.64 1248.31 1924.23 1248.57 1923.08C1248.82 1921.93 1249.96 1920.89 1251.97 1919.98C1252.31 1919.82 1252.7 1919.81 1253.06 1919.93C1253.41 1920.05 1253.71 1920.31 1253.88 1920.64C1254.7 1922.23 1255 1923.5 1254.79 1924.47Z" fill="#D7AF74"/>
<path d="M1173.31 1941.32C1168.95 1949.38 1169.31 1960.3 1169.83 1969.55C1169.84 1969.68 1169.8 1969.8 1169.73 1969.91C1169.66 1970.01 1169.56 1970.1 1169.44 1970.14C1169.32 1970.18 1169.19 1970.19 1169.07 1970.16C1168.95 1970.12 1168.84 1970.05 1168.76 1969.95C1166.99 1967.61 1166.44 1965.08 1165.59 1962.32C1161.21 1948.15 1163.67 1935.4 1172.96 1924.07C1173.04 1923.97 1173.14 1923.9 1173.26 1923.85C1173.38 1923.81 1173.51 1923.8 1173.63 1923.82C1173.76 1923.84 1173.87 1923.89 1173.97 1923.97C1174.07 1924.05 1174.15 1924.15 1174.19 1924.27C1175.26 1927.14 1176.31 1930.57 1177.33 1934.54C1180.09 1945.31 1178.76 1957.76 1173.61 1967.65C1173.56 1967.74 1173.48 1967.82 1173.38 1967.86C1173.28 1967.9 1173.17 1967.9 1173.07 1967.87C1172.96 1967.84 1172.87 1967.78 1172.81 1967.69C1172.75 1967.6 1172.72 1967.5 1172.73 1967.39C1173.33 1960.48 1173.79 1953.6 1174.11 1946.75C1174.18 1945.18 1174.14 1943.41 1173.97 1941.45C1173.96 1941.37 1173.93 1941.3 1173.88 1941.25C1173.83 1941.19 1173.76 1941.15 1173.69 1941.14C1173.61 1941.12 1173.54 1941.13 1173.47 1941.16C1173.4 1941.2 1173.34 1941.25 1173.31 1941.32Z" fill="#9EA269"/>
<path d="M1177.38 1989.11C1177.87 1989.23 1179.31 1989.06 1181.68 1988.61C1183.24 1988.31 1186.03 1989.66 1187.79 1989.69C1190 1989.73 1192.92 1990.07 1193.43 1987.15C1193.46 1986.97 1193.45 1986.79 1193.41 1986.61C1193.36 1986.43 1193.28 1986.27 1193.17 1986.12C1193.06 1985.98 1192.92 1985.86 1192.76 1985.78C1192.6 1985.69 1192.42 1985.64 1192.24 1985.63L1184.62 1985.11C1184.19 1985.08 1183.76 1984.99 1183.36 1984.84C1180.47 1983.79 1177.21 1983.33 1173.58 1983.45C1173.3 1983.46 1173.03 1983.4 1172.78 1983.29L1172.36 1983.1C1172.19 1983.02 1172.06 1982.9 1171.96 1982.74C1171.87 1982.58 1171.83 1982.4 1171.84 1982.21C1171.86 1982.03 1171.93 1981.86 1172.04 1981.72C1172.16 1981.57 1172.31 1981.47 1172.49 1981.42C1174.15 1980.96 1175.84 1980.69 1177.57 1980.62C1177.72 1980.61 1182 1980.65 1190.4 1980.74C1194.97 1980.79 1198.99 1981.3 1202.44 1982.29C1206.71 1983.51 1210.54 1985 1213.93 1986.75C1215.84 1987.74 1217.43 1989 1218.72 1990.54C1218.85 1990.7 1218.95 1990.88 1219 1991.08C1219.05 1991.28 1219.06 1991.49 1219.02 1991.69C1218.98 1991.9 1218.9 1992.09 1218.77 1992.25C1218.65 1992.42 1218.49 1992.55 1218.31 1992.65C1215.33 1994.22 1212.2 1994.74 1205.58 1996.41C1203.55 1996.92 1201.52 1997.26 1199.5 1997.42C1194.34 1997.83 1189.82 1996.87 1185.06 1995.94C1180.48 1995.05 1174.22 1992.82 1171.11 1988.78C1171.04 1988.69 1171 1988.58 1170.99 1988.47C1170.98 1988.36 1171 1988.24 1171.06 1988.14C1171.12 1988.05 1171.2 1987.97 1171.3 1987.92C1171.4 1987.86 1171.52 1987.85 1171.63 1987.86C1172.48 1987.96 1174.4 1988.38 1177.38 1989.11Z" fill="#9EA269"/>
</svg>
