<svg width="1449" height="2270" viewBox="0 0 1449 2270" fill="none" xmlns="http://www.w3.org/2000/svg">
<path d="M359.788 696.19C358.777 696.103 357.473 696.627 355.874 697.76C347.641 700.993 339.709 700.31 332.078 695.71C331.332 695.263 330.747 694.81 330.324 694.35C330.279 694.299 330.223 694.259 330.161 694.233C330.098 694.206 330.03 694.195 329.961 694.199C329.893 694.203 329.826 694.222 329.765 694.255C329.705 694.288 329.652 694.334 329.61 694.39C325.884 699.583 320.694 701.44 314.041 699.96C313.347 699.808 312.685 699.527 312.089 699.13C304.068 693.83 299.277 686.567 297.718 677.34C296.793 671.847 297.46 666.733 299.72 662C300.295 660.793 301.193 659.893 302.416 659.3C302.514 659.251 302.595 659.175 302.65 659.08C302.705 658.984 302.731 658.875 302.725 658.765C302.718 658.655 302.68 658.55 302.614 658.462C302.549 658.374 302.459 658.307 302.356 658.27C299.928 657.44 298.243 656.7 296.598 654.34C292.7 648.76 292.053 642.607 294.656 635.88C297.659 628.12 305.27 621.37 313.853 621.51C317.738 621.58 323 622.67 327.073 624.23C327.294 624.314 327.538 624.313 327.759 624.227C327.981 624.14 328.163 623.974 328.273 623.76C333.297 613.96 341.632 606.01 353.703 607.48C365.219 608.88 371.641 616.91 373.227 627.95C373.259 628.15 373.353 628.334 373.495 628.476C373.638 628.618 373.822 628.711 374.02 628.74C381.499 629.807 386.996 633.46 390.511 639.7C393.702 645.36 393.484 651.91 391.423 657.85C389.124 664.52 384.912 669.44 379.6 673.87C377.551 675.583 375.196 676.67 372.533 677.13C372.096 677.203 371.692 677.411 371.377 677.727C371.063 678.042 370.854 678.449 370.779 678.89C369.537 686.243 365.873 692.01 359.788 696.19ZM367.241 658.22C366.845 658.42 366.6 658.813 366.508 659.4C366.448 659.767 366.712 660.197 367.301 660.69C370.204 663.14 370.194 667.92 370.997 673.3C371.031 673.523 371.118 673.734 371.25 673.915C371.382 674.097 371.557 674.243 371.757 674.341C371.958 674.44 372.18 674.487 372.403 674.48C372.626 674.473 372.845 674.411 373.039 674.3C381.552 669.37 390.135 658.41 388.955 647.94C387.997 639.407 383.247 634.2 374.704 632.32C374.487 632.267 374.263 632.243 374.04 632.25L368.896 632.31C368.657 632.315 368.423 632.242 368.229 632.101C368.035 631.96 367.891 631.758 367.821 631.528C367.75 631.297 367.756 631.05 367.837 630.823C367.919 630.596 368.071 630.402 368.272 630.27C369.038 629.757 369.491 629.367 369.63 629.1C369.841 628.712 369.915 628.263 369.838 627.83C368.582 620.41 364.592 615.233 357.866 612.3C351.226 609.41 341.711 611.45 337.103 616.74C334.262 620 332.022 622.967 330.384 625.64C330.006 626.255 329.44 626.731 328.771 626.995C328.101 627.26 327.363 627.3 326.667 627.11C319.046 625.01 312.336 622.72 305.954 627.29C300.338 631.317 297.275 636.833 296.767 643.84C296.734 644.324 296.774 644.806 296.886 645.27C298.392 651.44 299.809 654.46 305.726 656.4C305.758 656.411 305.792 656.414 305.825 656.41C305.859 656.406 305.891 656.394 305.919 656.376C305.947 656.358 305.972 656.333 305.99 656.305C306.008 656.276 306.019 656.244 306.023 656.21L306.826 650.22C306.865 649.95 306.963 649.69 307.113 649.46C309.386 645.907 311.626 642.333 313.833 638.74C314.992 636.86 316.578 635.23 318.322 634.28C322.941 631.76 326.244 629.893 328.233 628.68C328.627 628.435 329.058 628.253 329.511 628.14C335.18 626.673 340.268 626.473 344.774 627.54C352.048 629.26 357.657 631.82 361.493 638.38C364.04 642.73 365.705 645.03 365.943 649.56C365.969 650.003 366.077 650.437 366.26 650.84C367.073 652.62 368.698 655.78 367.637 657.82C367.547 657.99 367.409 658.129 367.241 658.22ZM326.013 641.7C328.742 641.413 331.404 640.677 334.001 639.49C335.408 638.85 337.014 636.81 338.253 636.37C341.493 635.23 342.217 637.71 342.177 640.37C342.172 640.815 342.318 641.248 342.591 641.594C342.864 641.941 343.246 642.18 343.674 642.27C348.992 643.403 352.778 646.503 355.031 651.57C355.068 651.657 355.087 651.75 355.088 651.844C355.088 651.938 355.07 652.031 355.034 652.118C354.998 652.205 354.945 652.283 354.878 652.349C354.811 652.415 354.732 652.466 354.645 652.5L350.036 654.31C349.072 654.686 348.258 655.367 347.717 656.25C345.306 660.17 342.494 663.74 339.283 666.96C338.064 668.19 334.576 668.53 333.208 670.14C332.395 671.107 331.83 672.11 331.513 673.15C331.474 673.279 331.464 673.416 331.485 673.55C331.506 673.683 331.558 673.81 331.635 673.92C331.713 674.031 331.815 674.121 331.933 674.185C332.051 674.25 332.182 674.285 332.316 674.29C334.166 674.357 336.069 673.99 338.025 673.19C346.399 669.77 353.911 666.68 360.363 661.22C361.592 660.18 362.471 659.103 362.999 657.99C363.057 657.873 363.078 657.737 363.059 657.6L361.82 649.52C361.813 649.493 361.807 649.467 361.8 649.44C360.314 645.1 356.884 637.04 352.821 634.89C340.889 628.583 329.819 629.663 319.611 638.13C315.085 641.883 312.049 646.47 310.503 651.89C308.098 660.31 310.189 667.703 316.776 674.07C318.917 676.14 321.196 677.35 324.15 676.08C327.209 674.76 329.231 672.797 330.215 670.19C330.401 669.69 330.39 669.137 330.183 668.647C329.976 668.157 329.59 667.768 329.105 667.56C326.442 666.413 324.52 665.2 323.337 663.92C319.439 659.693 318.187 654.847 319.581 649.38C320.275 646.7 322.624 643.16 322.703 641.01C322.706 640.918 322.73 640.827 322.772 640.745C322.814 640.663 322.874 640.592 322.947 640.536C323.02 640.481 323.105 640.442 323.195 640.424C323.284 640.406 323.377 640.408 323.466 640.43C323.902 640.543 324.404 640.853 324.972 641.36C325.113 641.486 325.277 641.581 325.457 641.64C325.636 641.698 325.825 641.719 326.013 641.7ZM349.719 650.82C349.039 649.393 348.011 648.32 346.637 647.6C343.532 645.973 341.265 644.267 339.838 642.48C339.717 642.325 339.553 642.209 339.367 642.145C339.181 642.081 338.98 642.072 338.788 642.12C332.637 643.647 329.019 644.607 327.936 645C318.253 648.48 325.22 667.26 334.526 663.6C337.513 662.427 340.007 659.88 342.009 655.96C342.086 655.804 342.211 655.675 342.365 655.59L349.541 651.4C349.637 651.346 349.709 651.256 349.742 651.148C349.775 651.04 349.767 650.923 349.719 650.82ZM321.494 680.25C316.974 680.26 315.448 678.22 312.168 674.51C309.836 671.87 308.121 669.33 307.024 666.89C306.063 664.76 305.954 663.34 305.557 660.83C305.542 660.734 305.502 660.643 305.441 660.567C305.38 660.491 305.301 660.433 305.211 660.398C305.121 660.362 305.023 660.351 304.927 660.366C304.832 660.38 304.741 660.42 304.665 660.48C300.81 663.53 300.424 672.38 301.286 676.66C302.766 684.08 306.103 689.927 311.296 694.2C314.705 697.013 318.392 697.647 322.356 696.1C325.005 695.073 326.419 693.153 326.598 690.34C326.611 690.13 326.573 689.92 326.489 689.73L322.475 680.89C322.389 680.7 322.251 680.538 322.077 680.425C321.903 680.311 321.701 680.251 321.494 680.25ZM326.508 680.03C326.386 680.088 326.289 680.188 326.236 680.312C326.183 680.435 326.178 680.574 326.221 680.7C327.483 684.447 329.013 687.487 330.81 689.82C331.06 690.139 331.35 690.424 331.672 690.67C336.132 694.02 341.434 697.27 346.895 696.27C348.474 695.983 350.789 695.133 353.842 693.72C363.336 689.307 367.766 681.217 367.132 669.45C367.053 667.957 366.676 666.463 366.002 664.97C365.88 664.699 365.697 664.46 365.467 664.273C365.237 664.085 364.968 663.954 364.679 663.89C364.391 663.826 364.091 663.831 363.805 663.904C363.519 663.976 363.253 664.116 363.029 664.31C358.678 668.12 354.248 671.38 348.758 673.6C347.053 674.287 344.949 675.217 342.445 676.39C341.394 676.883 338.593 677.643 334.041 678.67C331.632 679.21 328.61 679.06 326.508 680.03Z" fill="#211612"/>
<path d="M367.637 657.82C368.698 655.78 367.072 652.62 366.26 650.84C366.076 650.437 365.969 650.003 365.943 649.56C365.705 645.03 364.04 642.73 361.493 638.38C357.657 631.82 352.048 629.26 344.774 627.54C340.268 626.473 335.18 626.673 329.511 628.14C329.058 628.252 328.627 628.435 328.233 628.68C326.244 629.893 322.941 631.76 318.322 634.28C316.578 635.23 314.992 636.86 313.833 638.74C311.626 642.333 309.386 645.907 307.113 649.46C306.963 649.69 306.865 649.95 306.826 650.22L306.023 656.21C306.019 656.244 306.007 656.276 305.989 656.305C305.971 656.333 305.947 656.357 305.919 656.376C305.89 656.394 305.858 656.405 305.825 656.41C305.792 656.414 305.758 656.41 305.726 656.4C299.809 654.46 298.392 651.44 296.886 645.27C296.774 644.806 296.734 644.324 296.767 643.84C297.275 636.833 300.338 631.316 305.954 627.29C312.336 622.72 319.046 625.01 326.667 627.11C327.363 627.3 328.101 627.26 328.77 626.995C329.44 626.73 330.006 626.255 330.383 625.64C332.022 622.967 334.262 620 337.103 616.74C341.711 611.45 351.225 609.41 357.866 612.3C364.592 615.233 368.582 620.41 369.838 627.83C369.914 628.263 369.841 628.711 369.629 629.1C369.491 629.366 369.038 629.757 368.272 630.27C368.071 630.402 367.919 630.596 367.837 630.823C367.756 631.05 367.75 631.297 367.821 631.528C367.891 631.758 368.034 631.959 368.228 632.101C368.423 632.242 368.657 632.315 368.896 632.31L374.04 632.25C374.263 632.243 374.487 632.267 374.704 632.32C383.247 634.2 387.997 639.407 388.955 647.94C390.134 658.41 381.552 669.37 373.039 674.3C372.844 674.411 372.626 674.473 372.403 674.48C372.18 674.487 371.958 674.44 371.757 674.341C371.556 674.243 371.382 674.097 371.25 673.915C371.117 673.734 371.031 673.523 370.997 673.3C370.194 667.92 370.204 663.14 367.3 660.69C366.712 660.197 366.448 659.767 366.508 659.4C366.6 658.813 366.845 658.42 367.241 658.22C367.409 658.129 367.547 657.99 367.637 657.82Z" fill="#C88C6A"/>
<path d="M324.973 641.36C324.404 640.853 323.902 640.543 323.466 640.43C323.377 640.408 323.285 640.405 323.195 640.424C323.105 640.442 323.021 640.481 322.947 640.536C322.874 640.592 322.814 640.663 322.772 640.745C322.73 640.827 322.706 640.918 322.703 641.01C322.624 643.16 320.275 646.7 319.581 649.38C318.187 654.847 319.439 659.693 323.337 663.92C324.52 665.2 326.443 666.413 329.105 667.56C329.59 667.768 329.976 668.157 330.183 668.647C330.39 669.137 330.401 669.69 330.215 670.19C329.231 672.797 327.209 674.76 324.15 676.08C321.197 677.35 318.917 676.14 316.776 674.07C310.189 667.703 308.098 660.31 310.503 651.89C312.049 646.47 315.085 641.883 319.611 638.13C329.819 629.663 340.889 628.583 352.821 634.89C356.885 637.04 360.314 645.1 361.8 649.44C361.807 649.467 361.814 649.493 361.82 649.52L363.059 657.6C363.078 657.737 363.058 657.873 363 657.99C362.471 659.103 361.592 660.18 360.363 661.22C353.911 666.68 346.399 669.77 338.025 673.19C336.069 673.99 334.166 674.357 332.316 674.29C332.182 674.285 332.051 674.249 331.933 674.185C331.815 674.121 331.713 674.03 331.636 673.92C331.558 673.81 331.507 673.683 331.485 673.549C331.464 673.416 331.474 673.279 331.513 673.15C331.831 672.11 332.396 671.107 333.208 670.14C334.576 668.53 338.064 668.19 339.283 666.96C342.494 663.74 345.306 660.17 347.717 656.25C348.258 655.367 349.072 654.686 350.036 654.31L354.645 652.5C354.732 652.466 354.811 652.415 354.878 652.349C354.945 652.283 354.998 652.205 355.034 652.118C355.07 652.031 355.089 651.938 355.088 651.844C355.088 651.75 355.068 651.656 355.031 651.57C352.778 646.503 348.993 643.403 343.674 642.27C343.247 642.18 342.864 641.941 342.591 641.594C342.318 641.248 342.172 640.815 342.177 640.37C342.217 637.71 341.493 635.23 338.253 636.37C337.014 636.81 335.408 638.85 334.001 639.49C331.404 640.677 328.742 641.413 326.013 641.7C325.825 641.719 325.636 641.698 325.457 641.64C325.278 641.581 325.113 641.486 324.973 641.36Z" fill="#C88C6A"/>
<path d="M349.719 650.82C349.767 650.923 349.776 651.041 349.743 651.148C349.71 651.256 349.637 651.346 349.541 651.4L342.366 655.59C342.211 655.675 342.087 655.804 342.009 655.96C340.007 659.88 337.513 662.427 334.526 663.6C325.22 667.26 318.253 648.48 327.936 645C329.019 644.607 332.637 643.647 338.788 642.12C338.98 642.073 339.181 642.081 339.367 642.145C339.553 642.209 339.717 642.325 339.839 642.48C341.266 644.267 343.532 645.973 346.637 647.6C348.011 648.32 349.039 649.393 349.719 650.82ZM332.643 654.97C333.407 653.13 334.487 650.79 336.697 651.07C337.004 651.11 337.288 651.24 337.518 651.448C337.749 651.655 337.918 651.933 338.008 652.251C338.098 652.57 338.105 652.918 338.03 653.259C337.955 653.599 337.799 653.921 337.579 654.19C336.806 655.143 335.825 655.97 334.635 656.67C334.535 656.73 334.454 656.819 334.405 656.927C334.356 657.034 334.34 657.154 334.361 657.269C334.382 657.385 334.437 657.49 334.52 657.571C334.603 657.652 334.709 657.704 334.824 657.72L338.104 658.27C338.48 658.331 338.865 658.246 339.179 658.032C339.494 657.819 339.716 657.492 339.799 657.12C339.911 656.587 340.354 654.617 341.127 651.21C341.583 649.18 341.305 647.09 339.69 645.83C339.478 645.666 339.22 645.571 338.951 645.559C338.682 645.546 338.414 645.616 338.183 645.76C334.398 648.13 330.235 650.1 328.372 654.2C328.316 654.323 328.288 654.458 328.293 654.594C328.297 654.73 328.333 654.863 328.397 654.983C328.462 655.103 328.553 655.207 328.663 655.286C328.774 655.365 328.902 655.418 329.036 655.44L331.167 655.8C331.469 655.849 331.78 655.793 332.047 655.643C332.315 655.492 332.525 655.255 332.643 654.97Z" fill="#C88C6A"/>
<path d="M332.643 654.97C332.525 655.255 332.315 655.492 332.047 655.643C331.78 655.793 331.469 655.849 331.167 655.8L329.036 655.44C328.902 655.418 328.774 655.365 328.663 655.286C328.553 655.207 328.462 655.103 328.397 654.983C328.333 654.863 328.297 654.73 328.293 654.594C328.288 654.458 328.316 654.323 328.372 654.2C330.235 650.1 334.398 648.13 338.183 645.76C338.414 645.616 338.682 645.546 338.951 645.559C339.22 645.571 339.478 645.666 339.69 645.83C341.305 647.09 341.583 649.18 341.127 651.21C340.354 654.617 339.911 656.587 339.799 657.12C339.716 657.492 339.494 657.818 339.179 658.032C338.865 658.246 338.48 658.331 338.104 658.27L334.824 657.72C334.709 657.704 334.603 657.652 334.52 657.571C334.437 657.49 334.382 657.385 334.361 657.269C334.34 657.154 334.356 657.034 334.405 656.927C334.454 656.819 334.535 656.73 334.635 656.67C335.825 655.97 336.806 655.143 337.579 654.19C337.799 653.921 337.955 653.599 338.03 653.258C338.105 652.917 338.098 652.57 338.008 652.251C337.918 651.933 337.749 651.655 337.518 651.448C337.288 651.24 337.004 651.109 336.697 651.07C334.487 650.79 333.407 653.13 332.643 654.97Z" fill="#2F1910"/>
<path d="M321.494 680.25C321.701 680.251 321.904 680.311 322.078 680.425C322.251 680.538 322.389 680.7 322.475 680.89L326.489 689.73C326.573 689.92 326.611 690.13 326.598 690.34C326.419 693.153 325.005 695.073 322.356 696.1C318.392 697.647 314.705 697.013 311.296 694.2C306.103 689.927 302.766 684.08 301.286 676.66C300.424 672.38 300.81 663.53 304.666 660.48C304.741 660.419 304.832 660.38 304.927 660.366C305.023 660.351 305.121 660.362 305.211 660.397C305.301 660.433 305.38 660.491 305.441 660.567C305.502 660.643 305.542 660.734 305.558 660.83C305.954 663.34 306.063 664.76 307.024 666.89C308.121 669.33 309.836 671.87 312.168 674.51C315.448 678.22 316.975 680.26 321.494 680.25Z" fill="#C88C6A"/>
<path d="M326.509 680.03C328.61 679.06 331.632 679.21 334.041 678.67C338.593 677.643 341.394 676.883 342.445 676.39C344.949 675.217 347.053 674.287 348.758 673.6C354.248 671.38 358.678 668.12 363.029 664.31C363.253 664.116 363.519 663.976 363.805 663.904C364.091 663.831 364.391 663.826 364.679 663.89C364.968 663.954 365.237 664.085 365.467 664.272C365.697 664.46 365.88 664.699 366.002 664.97C366.676 666.463 367.053 667.957 367.132 669.45C367.766 681.217 363.336 689.307 353.842 693.72C350.79 695.133 348.474 695.983 346.895 696.27C341.434 697.27 336.132 694.02 331.672 690.67C331.35 690.424 331.06 690.139 330.81 689.82C329.013 687.487 327.483 684.447 326.221 680.7C326.178 680.574 326.183 680.435 326.236 680.312C326.289 680.188 326.386 680.088 326.509 680.03Z" fill="#C88C6A"/>
<path d="M355.874 697.76C357.473 696.627 358.777 696.103 359.788 696.19C362.748 699.997 365.338 704.027 367.558 708.28C368.629 710.347 369.933 713.08 371.473 716.48C371.671 716.907 371.982 717.023 372.405 716.83C372.537 716.77 372.623 716.59 372.662 716.29C374.175 704.517 379.385 694.54 388.291 686.36C390.465 684.367 393.775 681.893 398.222 678.94C398.69 678.631 399.255 678.51 399.807 678.601C400.36 678.691 400.858 678.987 401.205 679.43C403.603 682.51 404.029 687.8 403.95 691.5C403.593 709.08 394.307 724.68 378.361 731.94C377.961 732.122 377.64 732.446 377.46 732.851C377.279 733.256 377.251 733.714 377.38 734.14C380.439 744.167 382.431 754.37 383.356 764.75C383.475 766.137 383.435 768.013 383.237 770.38C383.22 770.569 383.14 770.747 383.011 770.886C382.882 771.025 382.711 771.118 382.523 771.15L380.373 771.49C380.282 771.505 380.188 771.502 380.099 771.479C380.009 771.456 379.925 771.414 379.853 771.357C379.78 771.3 379.72 771.228 379.676 771.145C379.633 771.063 379.607 770.973 379.6 770.88L378.331 756.08C378.318 755.936 378.273 755.797 378.2 755.673C378.128 755.548 378.029 755.442 377.91 755.36C377.792 755.279 377.657 755.225 377.516 755.203C377.374 755.18 377.23 755.189 377.092 755.23C373.029 756.403 368.017 756.963 362.058 756.91C348.441 756.8 334.833 749.85 326.112 739.64C324.844 738.153 323.734 736.33 322.782 734.17C321.956 732.31 322.584 731.103 324.665 730.55C338.778 726.79 351.952 728.723 364.189 736.35C368.741 739.183 372.163 741.453 374.456 743.16C374.507 743.199 374.568 743.221 374.632 743.224C374.695 743.226 374.758 743.209 374.811 743.174C374.865 743.139 374.906 743.088 374.929 743.028C374.953 742.968 374.957 742.902 374.942 742.84L373.128 734.93C373.062 734.63 372.969 734.336 372.851 734.05C370.462 728.28 367.796 719.28 364.238 712.2C361.949 707.64 358.619 702.66 355.874 697.76ZM389.044 701.01C389.414 702.91 389.332 704.487 388.797 705.74C386.392 711.373 383.534 717.053 380.224 722.78C379.339 724.32 378.665 725.967 378.202 727.72C378.178 727.808 378.18 727.901 378.206 727.988C378.233 728.075 378.283 728.153 378.352 728.214C378.421 728.274 378.506 728.314 378.597 728.329C378.687 728.344 378.781 728.334 378.866 728.3C380.241 727.733 381.506 726.87 382.662 725.71C386.223 722.137 388.856 719.287 390.561 717.16C398.033 707.833 400.798 697.01 398.856 684.69C398.84 684.593 398.804 684.5 398.75 684.417C398.696 684.335 398.625 684.265 398.542 684.213C398.459 684.16 398.365 684.125 398.267 684.111C398.169 684.096 398.069 684.103 397.974 684.13C397.227 684.343 396.709 684.583 396.418 684.85C392.949 688 388.45 692.09 385.437 696.38C380.535 703.34 377.251 710.7 375.586 718.46C375.563 718.57 375.571 718.685 375.611 718.791C375.65 718.896 375.719 718.988 375.809 719.055C375.898 719.123 376.005 719.163 376.117 719.171C376.229 719.178 376.34 719.154 376.438 719.1C377.105 718.733 377.717 718.04 378.272 717.02C381.83 710.45 384.832 703.98 388.43 700.81C388.48 700.766 388.54 700.735 388.605 700.721C388.67 700.708 388.737 700.711 388.8 700.731C388.862 700.752 388.917 700.788 388.96 700.837C389.004 700.886 389.032 700.946 389.044 701.01ZM370.64 752.66C370.715 752.652 370.786 752.62 370.843 752.569C370.9 752.519 370.939 752.452 370.956 752.378C370.973 752.304 370.965 752.228 370.935 752.16C370.905 752.092 370.854 752.036 370.789 752C364.516 748.27 358.183 744.87 351.087 743.08C350.691 742.978 350.344 742.74 350.105 742.407C349.866 742.075 349.75 741.669 349.779 741.26L349.798 741C349.811 740.819 349.865 740.643 349.954 740.485C350.044 740.327 350.168 740.192 350.316 740.089C350.465 739.987 350.634 739.919 350.812 739.891C350.99 739.864 351.172 739.877 351.344 739.93C357.046 741.71 361.037 743.01 363.317 743.83C364.75 744.35 367.033 745.533 370.165 747.38C370.426 747.532 370.72 747.63 371.027 747.67C371.919 747.777 372.715 748.1 373.415 748.64C373.465 748.68 373.529 748.698 373.594 748.69C373.659 748.683 373.719 748.65 373.762 748.6C373.803 748.554 373.824 748.494 373.822 748.433C373.821 748.371 373.796 748.313 373.752 748.27C372.431 746.91 370.518 745.447 368.014 743.88C360.997 739.48 354.192 736.157 347.598 733.91C346.946 733.69 346.275 733.54 345.596 733.46C339.954 732.84 333.879 733.053 327.371 734.1C327.301 734.111 327.236 734.139 327.18 734.182C327.124 734.224 327.079 734.28 327.05 734.345C327.02 734.409 327.007 734.48 327.011 734.55C327.015 734.621 327.037 734.69 327.073 734.75C327.926 736.123 329.257 737.587 331.067 739.14C335.197 742.68 337.817 744.833 338.926 745.6C348.461 752.18 359.154 753.72 370.64 752.66Z" fill="#41120A"/>
<path d="M388.43 700.81C384.833 703.98 381.83 710.45 378.272 717.02C377.717 718.04 377.106 718.733 376.438 719.1C376.34 719.154 376.229 719.179 376.117 719.171C376.006 719.163 375.899 719.123 375.809 719.055C375.719 718.988 375.651 718.896 375.611 718.791C375.572 718.685 375.563 718.57 375.586 718.46C377.251 710.7 380.535 703.34 385.437 696.38C388.45 692.09 392.949 688 396.418 684.85C396.709 684.583 397.228 684.343 397.974 684.13C398.07 684.103 398.169 684.097 398.267 684.111C398.365 684.125 398.459 684.16 398.542 684.213C398.625 684.266 398.696 684.335 398.751 684.418C398.805 684.5 398.841 684.593 398.856 684.69C400.799 697.01 398.034 707.833 390.561 717.16C388.856 719.287 386.223 722.137 382.662 725.71C381.506 726.87 380.241 727.733 378.866 728.3C378.781 728.334 378.688 728.345 378.597 728.329C378.506 728.314 378.421 728.274 378.352 728.214C378.283 728.154 378.233 728.075 378.206 727.988C378.18 727.901 378.178 727.808 378.202 727.72C378.665 725.967 379.339 724.32 380.224 722.78C383.534 717.053 386.392 711.373 388.797 705.74C389.332 704.487 389.415 702.91 389.045 701.01C389.033 700.946 389.004 700.886 388.961 700.837C388.918 700.788 388.862 700.752 388.8 700.731C388.737 700.711 388.67 700.708 388.605 700.722C388.54 700.735 388.48 700.766 388.43 700.81Z" fill="#9EA269"/>
<path d="M370.641 752.66C359.154 753.72 348.461 752.18 338.927 745.6C337.817 744.834 335.197 742.68 331.068 739.14C329.257 737.587 327.926 736.124 327.074 734.75C327.037 734.69 327.015 734.621 327.011 734.551C327.007 734.48 327.02 734.409 327.05 734.345C327.079 734.281 327.124 734.225 327.18 734.182C327.236 734.139 327.302 734.111 327.371 734.1C333.879 733.054 339.954 732.84 345.597 733.46C346.275 733.54 346.946 733.691 347.598 733.91C354.192 736.157 360.998 739.48 368.014 743.88C370.518 745.447 372.431 746.91 373.753 748.27C373.796 748.314 373.821 748.372 373.823 748.433C373.824 748.495 373.803 748.554 373.762 748.6C373.719 748.651 373.659 748.683 373.594 748.691C373.53 748.698 373.466 748.68 373.416 748.64C372.715 748.1 371.919 747.777 371.027 747.67C370.72 747.631 370.427 747.532 370.165 747.38C367.033 745.534 364.75 744.35 363.317 743.83C361.037 743.01 357.047 741.71 351.345 739.93C351.172 739.877 350.99 739.864 350.812 739.892C350.634 739.919 350.465 739.987 350.316 740.09C350.168 740.192 350.044 740.328 349.955 740.485C349.865 740.643 349.812 740.819 349.799 741L349.779 741.26C349.75 741.669 349.866 742.075 350.105 742.407C350.344 742.74 350.691 742.978 351.087 743.08C358.183 744.87 364.516 748.27 370.789 752C370.854 752.036 370.905 752.092 370.935 752.16C370.966 752.228 370.973 752.305 370.956 752.378C370.94 752.452 370.9 752.519 370.843 752.57C370.787 752.62 370.716 752.652 370.641 752.66Z" fill="#9EA269"/>
</svg>
