<svg width="1449" height="2270" viewBox="0 0 1449 2270" fill="none" xmlns="http://www.w3.org/2000/svg">
<path d="M1303.61 735.95C1303.63 736.017 1303.66 736.078 1303.71 736.127C1303.76 736.176 1303.82 736.211 1303.89 736.229C1303.96 736.246 1304.03 736.245 1304.09 736.226C1304.16 736.207 1304.22 736.17 1304.27 736.12C1306.51 733.78 1308.75 731.83 1310.99 730.27C1316.64 726.33 1325.18 726.55 1325.82 735.25C1326.21 740.58 1323.13 745.41 1320.09 749.86C1315.16 757.106 1308.98 763.843 1301.57 770.07C1298.48 772.656 1295.92 774.376 1293.9 775.23C1293.57 775.365 1293.2 775.376 1292.87 775.26C1289.17 773.91 1287.72 766.53 1286.79 762.23C1284.28 750.66 1282.85 741.19 1283.85 730.08C1284.25 725.61 1286.79 718.36 1291.99 718.06C1299.48 717.64 1303.22 724.74 1303.7 731.31C1303.8 732.62 1303.3 734.71 1303.61 735.95ZM1295.02 770C1302.82 763.613 1309.63 756.6 1315.46 748.96C1317.25 746.63 1324.69 735.12 1320.28 732.39C1314.19 728.63 1306.38 740.66 1303.95 744.46C1303.36 745.4 1302.7 746.08 1301.97 746.5C1301.78 746.61 1301.57 746.674 1301.35 746.687C1301.13 746.699 1300.91 746.659 1300.7 746.571C1300.5 746.482 1300.32 746.347 1300.18 746.176C1300.04 746.006 1299.95 745.805 1299.9 745.59C1299.47 743.596 1299 738.846 1298.51 731.34C1298.3 728.14 1297.31 725.23 1295.56 722.61C1295.36 722.303 1295.05 722.077 1294.7 721.973C1294.34 721.869 1293.97 721.892 1293.63 722.04C1287.33 724.81 1287.34 731.77 1287.67 737.93C1288.24 748.863 1290.02 759.35 1293.01 769.39C1293.07 769.589 1293.18 769.77 1293.32 769.918C1293.47 770.065 1293.65 770.174 1293.85 770.234C1294.05 770.295 1294.26 770.305 1294.46 770.264C1294.67 770.223 1294.86 770.132 1295.02 770Z" fill="#211612"/>
<path d="M1295.02 770C1294.86 770.132 1294.67 770.223 1294.47 770.264C1294.26 770.305 1294.05 770.295 1293.85 770.234C1293.65 770.174 1293.47 770.065 1293.32 769.918C1293.18 769.77 1293.07 769.589 1293.01 769.39C1290.02 759.35 1288.24 748.863 1287.67 737.93C1287.34 731.77 1287.33 724.81 1293.63 722.04C1293.97 721.892 1294.34 721.868 1294.7 721.973C1295.05 722.077 1295.36 722.302 1295.56 722.61C1297.31 725.23 1298.3 728.14 1298.51 731.34C1299 738.846 1299.47 743.596 1299.9 745.59C1299.95 745.805 1300.04 746.006 1300.18 746.176C1300.32 746.347 1300.5 746.482 1300.7 746.57C1300.91 746.659 1301.13 746.699 1301.35 746.687C1301.57 746.674 1301.78 746.61 1301.97 746.5C1302.7 746.08 1303.36 745.4 1303.95 744.46C1306.38 740.66 1314.19 728.63 1320.28 732.39C1324.69 735.12 1317.25 746.63 1315.46 748.96C1309.63 756.6 1302.82 763.613 1295.02 770Z" fill="#D7AF74"/>
</svg>
