<svg width="1449" height="2270" viewBox="0 0 1449 2270" fill="none" xmlns="http://www.w3.org/2000/svg">
<path d="M1282.3 1109.11L1282.19 1109.11C1281.18 1109.05 1280.32 1109.81 1280.26 1110.82L1279.57 1122.53C1279.51 1123.53 1280.27 1124.39 1281.27 1124.45L1281.39 1124.46C1282.39 1124.52 1283.25 1123.76 1283.31 1122.75L1284.01 1111.04C1284.07 1110.04 1283.3 1109.17 1282.3 1109.11Z" fill="#785E46"/>
<path d="M1257.91 1122.16C1255.49 1118.67 1252.8 1116.35 1251.9 1116.97C1250.99 1117.6 1252.22 1120.93 1254.64 1124.42C1257.05 1127.91 1259.75 1130.23 1260.65 1129.61C1261.55 1128.98 1260.32 1125.65 1257.91 1122.16Z" fill="#785E46"/>
<path d="M1311.62 1121.04L1311.54 1120.96C1310.71 1120.22 1309.45 1120.29 1308.71 1121.12L1301.28 1129.42C1300.55 1130.25 1300.62 1131.52 1301.44 1132.25L1301.53 1132.33C1302.35 1133.07 1303.62 1133 1304.36 1132.17L1311.78 1123.87C1312.52 1123.04 1312.45 1121.77 1311.62 1121.04Z" fill="#785E46"/>
<path d="M1264.67 1169.54C1264.78 1169.54 1264.89 1169.5 1264.99 1169.44C1265.09 1169.38 1265.16 1169.29 1265.22 1169.19C1265.27 1169.09 1265.29 1168.98 1265.28 1168.86C1265.28 1168.75 1265.24 1168.64 1265.18 1168.55C1262.18 1164.1 1259.44 1159.73 1256.97 1155.46C1255.5 1152.94 1255.48 1150.69 1256.89 1148.71C1260.04 1144.34 1265.59 1138.85 1271.51 1139.41C1274.98 1139.74 1281.17 1140.62 1290.11 1142.06C1291.06 1142.2 1291.98 1142.54 1292.81 1143.05C1298.11 1146.26 1301.52 1150.81 1303.05 1156.7C1303.3 1157.66 1303.28 1158.67 1303 1159.62C1302.71 1160.57 1302.17 1161.42 1301.43 1162.08L1290 1172.37C1289.89 1172.46 1289.81 1172.58 1289.76 1172.72C1289.71 1172.85 1289.7 1173 1289.72 1173.14C1289.75 1173.28 1289.81 1173.42 1289.9 1173.53C1289.99 1173.65 1290.11 1173.74 1290.24 1173.79C1298.5 1177.26 1305.53 1182.66 1311.33 1190.01C1311.5 1190.23 1311.71 1190.4 1311.95 1190.52C1312.2 1190.63 1312.47 1190.69 1312.74 1190.69C1332.21 1190.46 1347.38 1197.31 1358.26 1211.23C1369.43 1225.57 1372.63 1241.17 1367.86 1258.03C1361.29 1281.22 1341.27 1295.86 1317.46 1296.08C1301.34 1296.22 1284.95 1288.68 1275.82 1275.48C1275.53 1275.05 1275.12 1274.71 1274.65 1274.49C1274.18 1274.27 1273.66 1274.18 1273.14 1274.22C1253.5 1275.87 1233.59 1265.06 1223.16 1247.87C1203.98 1216.22 1225.17 1171.02 1264.67 1169.54ZM1271.55 1142.79C1268.03 1143.14 1265.03 1145.07 1262.57 1148.58C1262.49 1148.7 1262.43 1148.84 1262.42 1148.98C1262.4 1149.13 1262.42 1149.28 1262.48 1149.41C1262.53 1149.55 1262.62 1149.66 1262.74 1149.75C1262.85 1149.85 1262.99 1149.91 1263.13 1149.93L1266.94 1150.55C1267.35 1150.61 1267.76 1150.55 1268.13 1150.38C1268.51 1150.2 1268.82 1149.91 1269.02 1149.55L1272.28 1143.91C1272.35 1143.79 1272.39 1143.65 1272.38 1143.51C1272.38 1143.38 1272.34 1143.24 1272.26 1143.12C1272.19 1143.01 1272.08 1142.91 1271.95 1142.85C1271.83 1142.79 1271.69 1142.77 1271.55 1142.79ZM1272.94 1151.3L1285.52 1153.57C1285.64 1153.59 1285.76 1153.56 1285.87 1153.49C1285.97 1153.42 1286.04 1153.31 1286.06 1153.19L1286.12 1152.89C1286.27 1152.02 1286.29 1151.12 1286.17 1150.27C1286.05 1149.41 1285.79 1148.61 1285.41 1147.9C1285.03 1147.19 1284.53 1146.6 1283.95 1146.15C1283.37 1145.7 1282.71 1145.4 1282.01 1145.28L1279.11 1144.75C1278.41 1144.63 1277.69 1144.68 1276.98 1144.89C1276.28 1145.11 1275.61 1145.5 1275 1146.03C1274.4 1146.56 1273.87 1147.23 1273.46 1147.99C1273.05 1148.75 1272.76 1149.6 1272.6 1150.47L1272.56 1150.75C1272.54 1150.88 1272.57 1151 1272.64 1151.1C1272.71 1151.21 1272.82 1151.28 1272.94 1151.3ZM1290.28 1153.57C1290.5 1153.79 1290.47 1153.79 1290.67 1153.83C1292.22 1154.2 1294.38 1154.68 1297.16 1155.25C1297.28 1155.28 1297.41 1155.27 1297.53 1155.23C1297.66 1155.19 1297.76 1155.12 1297.85 1155.03C1297.93 1154.93 1297.99 1154.82 1298.02 1154.69C1298.05 1154.57 1298.04 1154.44 1298 1154.32C1297.5 1152.82 1296.35 1151.16 1294.53 1149.35C1292.72 1147.52 1291.07 1146.35 1289.59 1145.84C1289.47 1145.81 1289.34 1145.8 1289.22 1145.83C1289.09 1145.85 1288.98 1145.91 1288.89 1145.99C1288.79 1146.07 1288.72 1146.18 1288.68 1146.3C1288.64 1146.42 1288.63 1146.54 1288.65 1146.67C1289.2 1149.45 1289.65 1151.62 1290.02 1153.17C1290.07 1153.38 1290.05 1153.34 1290.28 1153.57ZM1271.1 1168.62C1270.9 1167.38 1269.78 1163.16 1267.74 1155.97C1267.66 1155.66 1267.5 1155.38 1267.28 1155.16C1267.06 1154.93 1266.79 1154.76 1266.49 1154.67L1261.63 1153.19C1261.45 1153.14 1261.26 1153.14 1261.07 1153.2C1260.89 1153.26 1260.74 1153.38 1260.62 1153.53C1260.51 1153.68 1260.44 1153.87 1260.44 1154.06C1260.43 1154.25 1260.48 1154.44 1260.58 1154.6L1270.2 1168.98C1270.26 1169.08 1270.35 1169.16 1270.46 1169.2C1270.57 1169.24 1270.7 1169.24 1270.81 1169.2C1270.92 1169.15 1271.01 1169.07 1271.06 1168.96C1271.12 1168.86 1271.13 1168.74 1271.1 1168.62ZM1271.14 1156.1L1275.77 1168.88C1275.95 1169.4 1276.29 1169.85 1276.73 1170.17C1277.17 1170.5 1277.7 1170.69 1278.24 1170.71C1278.79 1170.73 1279.33 1170.59 1279.8 1170.31C1280.27 1170.02 1280.64 1169.61 1280.87 1169.11L1285.61 1158.97C1285.66 1158.86 1285.68 1158.75 1285.68 1158.63C1285.68 1158.52 1285.65 1158.4 1285.6 1158.3C1285.54 1158.2 1285.47 1158.11 1285.38 1158.04C1285.29 1157.97 1285.18 1157.92 1285.07 1157.9L1271.89 1155.23C1271.77 1155.21 1271.66 1155.22 1271.55 1155.26C1271.44 1155.29 1271.34 1155.36 1271.26 1155.45C1271.19 1155.53 1271.13 1155.64 1271.11 1155.76C1271.09 1155.87 1271.1 1155.99 1271.14 1156.1ZM1297.25 1159.27L1291.18 1158.83C1290.94 1158.82 1290.71 1158.87 1290.5 1158.99C1290.3 1159.11 1290.13 1159.29 1290.04 1159.51L1284.77 1170.85C1284.73 1170.95 1284.72 1171.06 1284.75 1171.16C1284.77 1171.26 1284.83 1171.35 1284.92 1171.41C1285 1171.47 1285.11 1171.51 1285.21 1171.5C1285.32 1171.5 1285.42 1171.46 1285.5 1171.4L1297.67 1160.45C1297.77 1160.36 1297.84 1160.24 1297.87 1160.11C1297.91 1159.98 1297.9 1159.84 1297.86 1159.72C1297.81 1159.59 1297.73 1159.48 1297.62 1159.4C1297.52 1159.32 1297.39 1159.27 1297.25 1159.27ZM1317.54 1221.77C1317.54 1208.87 1312.41 1196.5 1303.29 1187.38C1294.17 1178.26 1281.8 1173.14 1268.91 1173.14C1256.01 1173.14 1243.64 1178.26 1234.52 1187.38C1225.4 1196.5 1220.28 1208.87 1220.28 1221.77C1220.28 1234.67 1225.4 1247.04 1234.52 1256.16C1243.64 1265.28 1256.01 1270.4 1268.91 1270.4C1281.8 1270.4 1294.17 1265.28 1303.29 1256.16C1312.41 1247.04 1317.54 1234.67 1317.54 1221.77ZM1319.34 1206.57C1319.4 1206.72 1319.5 1206.85 1319.63 1206.94C1319.76 1207.04 1319.91 1207.1 1320.07 1207.11C1356.48 1210.67 1366.71 1260.03 1334.75 1277.32C1320.41 1285.06 1302.5 1282.74 1292.27 1270.31C1292.12 1270.13 1291.92 1270 1291.69 1269.93C1291.47 1269.87 1291.23 1269.87 1291.01 1269.93L1279.26 1273.49C1279.21 1273.51 1279.16 1273.53 1279.12 1273.57C1279.09 1273.6 1279.06 1273.65 1279.04 1273.7C1279.03 1273.74 1279.03 1273.8 1279.04 1273.85C1279.05 1273.9 1279.07 1273.94 1279.11 1273.98C1297.55 1296.93 1330.79 1297.58 1351.25 1277.66C1361.03 1268.11 1366.96 1253.77 1365.49 1240.57C1363.19 1219.75 1352.24 1205.4 1332.63 1197.51C1328.64 1195.91 1322.81 1194.95 1315.12 1194.62C1315.06 1194.62 1314.99 1194.64 1314.94 1194.67C1314.88 1194.69 1314.83 1194.74 1314.8 1194.79C1314.76 1194.84 1314.73 1194.9 1314.73 1194.96C1314.72 1195.02 1314.72 1195.09 1314.74 1195.15L1319.34 1206.57ZM1320.63 1211.65C1325.32 1233.22 1314.16 1255.93 1295.94 1267.31C1295.83 1267.37 1295.74 1267.46 1295.67 1267.57C1295.6 1267.68 1295.56 1267.81 1295.55 1267.94C1295.54 1268.07 1295.56 1268.2 1295.61 1268.32C1295.66 1268.44 1295.73 1268.55 1295.83 1268.64C1302.43 1274.47 1309.95 1277.33 1318.38 1277.21C1346.92 1276.77 1359.55 1239.13 1339.6 1220.1C1334.6 1215.33 1328.54 1212.25 1321.4 1210.88C1321.29 1210.86 1321.18 1210.86 1321.08 1210.89C1320.97 1210.93 1320.88 1210.98 1320.8 1211.06C1320.72 1211.13 1320.67 1211.23 1320.64 1211.33C1320.61 1211.43 1320.61 1211.54 1320.63 1211.65Z" fill="#562C12"/>
<path d="M1272.28 1143.91L1269.02 1149.55C1268.82 1149.91 1268.51 1150.2 1268.13 1150.38C1267.76 1150.55 1267.35 1150.61 1266.94 1150.55L1263.13 1149.93C1262.99 1149.91 1262.85 1149.85 1262.74 1149.75C1262.62 1149.66 1262.53 1149.55 1262.48 1149.41C1262.42 1149.28 1262.4 1149.13 1262.42 1148.98C1262.43 1148.84 1262.49 1148.7 1262.57 1148.58C1265.03 1145.07 1268.03 1143.14 1271.55 1142.79C1271.69 1142.77 1271.83 1142.79 1271.96 1142.85C1272.08 1142.91 1272.19 1143.01 1272.26 1143.12C1272.34 1143.24 1272.38 1143.38 1272.38 1143.52C1272.39 1143.65 1272.35 1143.79 1272.28 1143.91Z" fill="#F4EDE3"/>
<path d="M1272.81 1151.3C1272.69 1151.28 1272.58 1151.21 1272.51 1151.1C1272.44 1151 1272.42 1150.88 1272.44 1150.75L1272.48 1150.47C1272.63 1149.6 1272.93 1148.75 1273.34 1147.99C1273.75 1147.23 1274.27 1146.56 1274.88 1146.03C1275.48 1145.5 1276.16 1145.11 1276.86 1144.89C1277.56 1144.68 1278.29 1144.63 1278.98 1144.76L1281.89 1145.28C1282.58 1145.4 1283.24 1145.7 1283.83 1146.15C1284.41 1146.6 1284.9 1147.19 1285.29 1147.9C1285.67 1148.61 1285.93 1149.41 1286.05 1150.27C1286.17 1151.12 1286.15 1152.02 1285.99 1152.89L1285.94 1153.19C1285.91 1153.31 1285.84 1153.42 1285.74 1153.49C1285.64 1153.56 1285.52 1153.59 1285.39 1153.57L1272.81 1151.3Z" fill="#F4EDE3"/>
<path d="M1294.53 1149.35C1296.35 1151.16 1297.5 1152.82 1298 1154.32C1298.04 1154.44 1298.05 1154.57 1298.02 1154.69C1297.99 1154.82 1297.94 1154.93 1297.85 1155.03C1297.76 1155.12 1297.66 1155.19 1297.53 1155.23C1297.41 1155.27 1297.28 1155.28 1297.16 1155.25C1294.38 1154.68 1292.22 1154.2 1290.67 1153.83C1290.47 1153.79 1290.5 1153.79 1290.28 1153.57C1290.05 1153.34 1290.07 1153.38 1290.02 1153.17C1289.65 1151.62 1289.2 1149.45 1288.65 1146.67C1288.63 1146.54 1288.64 1146.42 1288.68 1146.3C1288.72 1146.18 1288.79 1146.07 1288.89 1145.99C1288.98 1145.91 1289.09 1145.85 1289.22 1145.83C1289.34 1145.8 1289.47 1145.81 1289.59 1145.84C1291.07 1146.36 1292.72 1147.52 1294.53 1149.35Z" fill="#F4EDE3"/>
<path d="M1271.1 1168.62C1271.13 1168.74 1271.12 1168.86 1271.06 1168.96C1271.01 1169.07 1270.92 1169.15 1270.81 1169.2C1270.7 1169.24 1270.58 1169.24 1270.46 1169.2C1270.35 1169.16 1270.26 1169.08 1270.2 1168.98L1260.58 1154.6C1260.48 1154.44 1260.43 1154.25 1260.44 1154.06C1260.44 1153.87 1260.51 1153.68 1260.62 1153.53C1260.74 1153.38 1260.89 1153.26 1261.07 1153.2C1261.26 1153.14 1261.45 1153.14 1261.63 1153.19L1266.49 1154.67C1266.79 1154.77 1267.06 1154.93 1267.28 1155.16C1267.5 1155.38 1267.66 1155.66 1267.75 1155.97C1269.78 1163.17 1270.9 1167.38 1271.1 1168.62Z" fill="#F4EDE3"/>
<path d="M1271.89 1155.92L1285.07 1158.59C1285.18 1158.61 1285.29 1158.66 1285.38 1158.73C1285.47 1158.8 1285.54 1158.89 1285.6 1158.99C1285.65 1159.09 1285.68 1159.21 1285.68 1159.32C1285.68 1159.44 1285.66 1159.55 1285.61 1159.65L1280.87 1169.8C1280.64 1170.29 1280.27 1170.71 1279.8 1171C1279.33 1171.28 1278.79 1171.42 1278.24 1171.4C1277.7 1171.37 1277.17 1171.19 1276.73 1170.86C1276.29 1170.54 1275.95 1170.09 1275.77 1169.57L1271.14 1156.79C1271.1 1156.68 1271.09 1156.56 1271.11 1156.44C1271.13 1156.33 1271.19 1156.22 1271.26 1156.14C1271.34 1156.05 1271.44 1155.98 1271.55 1155.94C1271.66 1155.91 1271.77 1155.9 1271.89 1155.92Z" fill="#F4EDE3"/>
<path d="M1298.08 1158.22C1298.21 1158.23 1298.34 1158.27 1298.45 1158.35C1298.56 1158.43 1298.64 1158.54 1298.68 1158.67C1298.73 1158.8 1298.73 1158.93 1298.7 1159.06C1298.66 1159.19 1298.59 1159.31 1298.49 1159.4L1286.32 1170.35C1286.24 1170.42 1286.14 1170.45 1286.04 1170.46C1285.93 1170.46 1285.83 1170.43 1285.74 1170.36C1285.66 1170.3 1285.6 1170.21 1285.57 1170.11C1285.54 1170.01 1285.55 1169.9 1285.59 1169.81L1290.86 1158.46C1290.96 1158.25 1291.12 1158.07 1291.33 1157.95C1291.53 1157.83 1291.77 1157.77 1292 1157.79L1298.08 1158.22Z" fill="#F4EDE3"/>
<path d="M1317.54 1221.77C1317.54 1234.67 1312.41 1247.04 1303.29 1256.16C1294.17 1265.28 1281.81 1270.4 1268.91 1270.4C1256.01 1270.4 1243.64 1265.28 1234.52 1256.16C1225.4 1247.04 1220.28 1234.67 1220.28 1221.77C1220.28 1208.87 1225.4 1196.5 1234.52 1187.38C1243.64 1178.26 1256.01 1173.14 1268.91 1173.14C1281.81 1173.14 1294.17 1178.26 1303.29 1187.38C1312.41 1196.5 1317.54 1208.87 1317.54 1221.77ZM1282.23 1185.64C1272.82 1182.12 1262.38 1182.53 1253.21 1186.78C1244.04 1191.03 1236.89 1198.77 1233.32 1208.3C1231.56 1213.02 1230.73 1218.03 1230.88 1223.06C1231.04 1228.09 1232.17 1233.02 1234.21 1237.59C1236.26 1242.16 1239.18 1246.27 1242.81 1249.68C1246.44 1253.1 1250.7 1255.75 1255.36 1257.49C1264.77 1261.01 1275.21 1260.6 1284.38 1256.35C1293.55 1252.1 1300.7 1244.35 1304.27 1234.83C1306.03 1230.11 1306.86 1225.09 1306.71 1220.07C1306.55 1215.04 1305.42 1210.1 1303.38 1205.54C1301.33 1200.97 1298.41 1196.86 1294.78 1193.45C1291.15 1190.03 1286.89 1187.38 1282.23 1185.64Z" fill="#D5B175"/>
<path d="M1282.23 1185.64C1286.89 1187.38 1291.15 1190.03 1294.78 1193.45C1298.41 1196.86 1301.33 1200.97 1303.38 1205.54C1305.42 1210.1 1306.55 1215.04 1306.71 1220.07C1306.86 1225.09 1306.03 1230.11 1304.27 1234.83C1300.7 1244.35 1293.55 1252.1 1284.38 1256.35C1275.21 1260.6 1264.77 1261.01 1255.36 1257.49C1250.7 1255.75 1246.44 1253.1 1242.81 1249.68C1239.18 1246.27 1236.26 1242.16 1234.21 1237.59C1232.17 1233.02 1231.04 1228.09 1230.88 1223.06C1230.73 1218.03 1231.56 1213.02 1233.32 1208.3C1236.89 1198.77 1244.04 1191.03 1253.21 1186.78C1262.38 1182.53 1272.82 1182.12 1282.23 1185.64ZM1238.31 1207.43C1228.17 1229.55 1242.25 1251.13 1264.75 1255.72C1264.88 1255.75 1265.01 1255.74 1265.13 1255.69C1265.26 1255.64 1265.37 1255.56 1265.44 1255.45C1265.52 1255.35 1265.57 1255.22 1265.58 1255.09C1265.59 1254.96 1265.56 1254.83 1265.5 1254.71C1264.93 1253.65 1264.54 1252.28 1264.31 1250.62C1262.93 1240.45 1264.38 1230.69 1268.66 1221.36C1272.95 1212.01 1279.4 1204.54 1288.01 1198.95C1289.41 1198.04 1290.7 1197.45 1291.87 1197.19C1292.01 1197.17 1292.13 1197.1 1292.22 1197.01C1292.32 1196.92 1292.39 1196.8 1292.42 1196.66C1292.45 1196.53 1292.44 1196.4 1292.39 1196.27C1292.34 1196.14 1292.26 1196.03 1292.15 1195.95C1274.01 1181.91 1248.45 1185.32 1238.31 1207.43ZM1280.1 1252.4C1275.08 1236.17 1284.28 1218.28 1299.17 1210.52C1299.47 1210.36 1299.71 1210.09 1299.81 1209.76C1299.92 1209.43 1299.89 1209.07 1299.73 1208.76L1295.49 1200.45C1295.42 1200.32 1295.32 1200.2 1295.2 1200.1C1295.08 1200 1294.94 1199.93 1294.79 1199.89C1294.64 1199.85 1294.49 1199.84 1294.34 1199.87C1294.19 1199.89 1294.05 1199.94 1293.92 1200.02C1274.19 1212.3 1264.01 1231.52 1269.25 1254.58C1269.34 1254.99 1269.59 1255.34 1269.94 1255.57C1270.29 1255.79 1270.72 1255.87 1271.12 1255.78L1279.09 1254.11C1279.27 1254.07 1279.45 1253.99 1279.6 1253.88C1279.75 1253.77 1279.88 1253.64 1279.97 1253.47C1280.07 1253.31 1280.13 1253.14 1280.15 1252.95C1280.17 1252.77 1280.16 1252.58 1280.1 1252.4ZM1286.38 1229.83C1283.53 1236.04 1282.69 1242.82 1283.85 1250.17C1283.9 1250.47 1284.06 1250.68 1284.34 1250.81C1284.6 1250.93 1284.86 1250.92 1285.11 1250.75C1291.44 1246.84 1296.04 1241.79 1298.88 1235.59C1301.73 1229.37 1302.58 1222.59 1301.42 1215.25C1301.37 1214.95 1301.21 1214.73 1300.95 1214.61C1300.67 1214.5 1300.41 1214.51 1300.16 1214.66C1293.82 1218.58 1289.23 1223.63 1286.38 1229.83Z" fill="#562C12"/>
<path d="M1315.12 1194.62C1322.81 1194.95 1328.64 1195.91 1332.63 1197.51C1352.24 1205.4 1363.19 1219.75 1365.49 1240.57C1366.96 1253.77 1361.03 1268.11 1351.25 1277.66C1330.79 1297.58 1297.55 1296.93 1279.11 1273.98C1279.07 1273.94 1279.05 1273.9 1279.04 1273.85C1279.03 1273.8 1279.03 1273.74 1279.04 1273.7C1279.06 1273.65 1279.09 1273.6 1279.12 1273.57C1279.16 1273.53 1279.21 1273.51 1279.26 1273.49L1291.01 1269.93C1291.23 1269.87 1291.47 1269.87 1291.69 1269.93C1291.92 1270 1292.12 1270.13 1292.27 1270.31C1302.5 1282.74 1320.41 1285.06 1334.75 1277.32C1366.71 1260.03 1356.48 1210.67 1320.07 1207.11C1319.91 1207.1 1319.76 1207.04 1319.63 1206.95C1319.5 1206.85 1319.4 1206.72 1319.34 1206.57L1314.74 1195.15C1314.72 1195.09 1314.72 1195.02 1314.73 1194.96C1314.73 1194.9 1314.76 1194.84 1314.8 1194.79C1314.83 1194.74 1314.88 1194.7 1314.94 1194.67C1314.99 1194.64 1315.06 1194.62 1315.12 1194.62Z" fill="#D5B175"/>
<path d="M1280.1 1252.4C1280.16 1252.58 1280.17 1252.77 1280.15 1252.95C1280.13 1253.14 1280.07 1253.31 1279.97 1253.47C1279.88 1253.64 1279.75 1253.77 1279.6 1253.88C1279.44 1253.99 1279.27 1254.07 1279.09 1254.11L1271.12 1255.78C1270.71 1255.87 1270.29 1255.79 1269.94 1255.57C1269.59 1255.34 1269.34 1254.99 1269.24 1254.58C1264.01 1231.52 1274.19 1212.3 1293.92 1200.02C1294.04 1199.94 1294.19 1199.89 1294.34 1199.87C1294.49 1199.84 1294.64 1199.85 1294.79 1199.89C1294.94 1199.93 1295.08 1200 1295.2 1200.1C1295.32 1200.2 1295.42 1200.32 1295.49 1200.45L1299.73 1208.76C1299.89 1209.07 1299.92 1209.43 1299.81 1209.76C1299.7 1210.09 1299.47 1210.36 1299.17 1210.52C1284.28 1218.28 1275.07 1236.17 1280.1 1252.4Z" fill="#D5B175"/>
</svg>
