<svg width="1449" height="2270" viewBox="0 0 1449 2270" fill="none" xmlns="http://www.w3.org/2000/svg">
<path d="M471.309 2225.95C471.309 2227.7 471.071 2229.49 470.595 2231.32C470.119 2233.11 469.404 2234.75 468.452 2236.22C467.5 2237.65 466.289 2238.85 464.821 2239.8C463.353 2240.72 461.627 2241.18 459.643 2241.18C458.135 2241.18 456.825 2240.64 455.714 2239.56C454.643 2238.49 454.008 2237.21 453.809 2235.74C453.77 2236.54 453.551 2237.23 453.155 2237.83C452.797 2238.43 452.321 2238.93 451.726 2239.32C451.17 2239.68 450.535 2239.96 449.821 2240.16C449.107 2240.36 448.393 2240.46 447.678 2240.46C446.409 2240.46 445.258 2240.18 444.226 2239.62C443.234 2239.07 442.381 2238.33 441.667 2237.41C440.952 2236.5 440.397 2235.46 440 2234.31C439.603 2233.15 439.405 2232 439.405 2230.84C439.405 2229.01 439.762 2227.26 440.476 2225.59C441.19 2223.92 442.143 2222.44 443.333 2221.17C444.563 2219.86 445.992 2218.82 447.619 2218.06C449.246 2217.27 450.992 2216.87 452.857 2216.87C453.69 2216.87 454.603 2216.97 455.595 2217.17C456.627 2217.33 457.5 2217.59 458.214 2217.94C458.77 2218.22 459.087 2218.72 459.166 2219.44C459.285 2220.11 459.345 2220.69 459.345 2221.17C459.345 2222.32 459.246 2223.5 459.047 2224.69C458.849 2225.89 458.631 2227.06 458.393 2228.22C458.194 2229.05 457.996 2229.89 457.797 2230.72C457.639 2231.52 457.559 2232.34 457.559 2233.17C457.559 2233.85 457.678 2234.47 457.916 2235.02C458.154 2235.54 458.67 2235.8 459.464 2235.8C460.456 2235.8 461.329 2235.4 462.083 2234.61C462.837 2233.77 463.452 2232.77 463.928 2231.62C464.444 2230.47 464.821 2229.27 465.059 2228.04C465.297 2226.8 465.416 2225.77 465.416 2224.93C465.416 2222.94 465.039 2221.21 464.285 2219.74C463.531 2218.22 462.519 2216.99 461.25 2216.03C459.98 2215.04 458.492 2214.3 456.785 2213.82C455.119 2213.31 453.333 2213.05 451.428 2213.05C449.047 2213.05 446.905 2213.48 445 2214.36C443.135 2215.2 441.547 2216.35 440.238 2217.82C438.928 2219.3 437.917 2221.05 437.202 2223.08C436.488 2225.07 436.131 2227.2 436.131 2229.47C436.131 2231.82 436.488 2233.97 437.202 2235.92C437.917 2237.87 438.928 2239.56 440.238 2241C441.587 2242.39 443.214 2243.48 445.119 2244.28C447.024 2245.08 449.166 2245.48 451.547 2245.48C452.778 2245.48 453.948 2245.36 455.059 2245.12C456.21 2244.88 457.301 2244.62 458.333 2244.34C459.404 2244.02 460.416 2243.74 461.369 2243.5C462.361 2243.27 463.333 2243.15 464.285 2243.15C464.801 2243.15 465.377 2243.27 466.012 2243.5C466.686 2243.74 467.023 2244.2 467.023 2244.88C467.023 2245.63 466.686 2246.31 466.012 2246.91C465.337 2247.51 464.484 2248.04 463.452 2248.52C462.42 2248.96 461.27 2249.34 460 2249.66C458.73 2249.93 457.48 2250.17 456.25 2250.37C455.02 2250.57 453.908 2250.73 452.916 2250.85C451.924 2250.93 451.17 2250.97 450.655 2250.97C449.464 2250.97 448.174 2250.91 446.786 2250.79C445.436 2250.63 444.186 2250.33 443.036 2249.89C440.813 2249.06 438.889 2247.94 437.262 2246.55C435.635 2245.12 434.286 2243.5 433.214 2241.71C432.143 2239.88 431.329 2237.89 430.774 2235.74C430.258 2233.59 430 2231.36 430 2229.05C430 2226.03 430.536 2223.16 431.607 2220.45C432.718 2217.75 434.246 2215.38 436.19 2213.35C438.135 2211.28 440.436 2209.64 443.095 2208.45C445.754 2207.25 448.651 2206.66 451.785 2206.66C454.643 2206.66 457.262 2207.11 459.643 2208.03C462.023 2208.95 464.067 2210.26 465.773 2211.97C467.519 2213.64 468.869 2215.67 469.821 2218.06C470.813 2220.41 471.309 2223.04 471.309 2225.95ZM454.583 2222.54C454.385 2222.5 454.166 2222.48 453.928 2222.48C453.73 2222.48 453.531 2222.48 453.333 2222.48C452.619 2222.48 451.885 2222.56 451.131 2222.72C450.377 2222.88 449.662 2223.12 448.988 2223.44C448.313 2223.76 447.698 2224.16 447.143 2224.63C446.587 2225.11 446.151 2225.67 445.833 2226.3C445.476 2227.02 445.178 2227.76 444.94 2228.51C444.702 2229.27 444.583 2230.03 444.583 2230.78C444.583 2231.26 444.663 2231.78 444.821 2232.34C444.98 2232.85 445.198 2233.33 445.476 2233.77C445.793 2234.21 446.151 2234.57 446.547 2234.84C446.984 2235.12 447.48 2235.26 448.036 2235.26C448.512 2235.26 449.028 2235.1 449.583 2234.79C450.139 2234.47 450.655 2234.09 451.131 2233.65C451.647 2233.21 452.083 2232.73 452.44 2232.22C452.797 2231.7 453.016 2231.24 453.095 2230.84C453.412 2229.45 453.67 2228.08 453.869 2226.72C454.107 2225.33 454.345 2223.94 454.583 2222.54Z" fill="black"/>
<path d="M491.428 2218C491.428 2219.16 491.031 2220.01 490.237 2220.57C489.483 2221.13 488.63 2221.67 487.678 2222.18C486.726 2222.66 485.853 2223.24 485.059 2223.92C484.305 2224.59 483.928 2225.61 483.928 2226.96C483.928 2227.68 484.087 2228.3 484.404 2228.81C484.761 2229.33 485.178 2229.81 485.654 2230.25C486.17 2230.64 486.726 2231.06 487.321 2231.5C487.916 2231.94 488.452 2232.44 488.928 2232.99C489.444 2233.55 489.86 2234.23 490.178 2235.02C490.535 2235.82 490.714 2236.8 490.714 2237.95C490.714 2239.62 490.277 2241.27 489.404 2242.91C488.571 2244.5 487.48 2245.93 486.13 2247.21C484.821 2248.44 483.333 2249.44 481.666 2250.19C479.999 2250.95 478.353 2251.33 476.726 2251.33C476.051 2251.33 475.377 2251.27 474.702 2251.15C474.027 2251.07 473.412 2250.89 472.857 2250.61C472.341 2250.33 471.904 2249.95 471.547 2249.48C471.19 2248.96 471.011 2248.3 471.011 2247.51C471.011 2246.39 471.23 2245.53 471.666 2244.94C472.103 2244.3 472.658 2243.8 473.333 2243.44C474.007 2243.09 474.722 2242.81 475.476 2242.61C476.269 2242.41 477.003 2242.17 477.678 2241.89C478.353 2241.57 478.908 2241.18 479.345 2240.7C479.781 2240.22 479.999 2239.54 479.999 2238.67C479.999 2237.83 479.662 2236.98 478.988 2236.1C478.353 2235.18 477.638 2234.23 476.845 2233.23C476.051 2232.2 475.317 2231.1 474.642 2229.95C474.007 2228.79 473.69 2227.52 473.69 2226.13C473.69 2224.41 474.027 2222.84 474.702 2221.41C475.416 2219.93 476.349 2218.66 477.499 2217.59C478.69 2216.51 480.039 2215.67 481.547 2215.08C483.055 2214.44 484.642 2214.12 486.309 2214.12C486.944 2214.12 487.559 2214.18 488.154 2214.3C488.789 2214.42 489.345 2214.64 489.821 2214.96C490.297 2215.24 490.674 2215.63 490.952 2216.15C491.269 2216.63 491.428 2217.25 491.428 2218Z" fill="black"/>
<path d="M505.118 2252.58C503.094 2252.58 501.329 2252.04 499.821 2250.97C498.313 2249.89 497.043 2248.52 496.011 2246.85C494.979 2245.18 494.206 2243.33 493.69 2241.29C493.174 2239.22 492.916 2237.19 492.916 2235.2C492.916 2233.09 493.174 2230.92 493.69 2228.69C494.206 2226.42 494.999 2224.37 496.071 2222.54C497.142 2220.67 498.511 2219.16 500.178 2218C501.844 2216.81 503.829 2216.21 506.13 2216.21C508.352 2216.21 510.237 2216.83 511.785 2218.06C513.372 2219.26 514.642 2220.77 515.594 2222.6C516.547 2224.39 517.221 2226.36 517.618 2228.51C518.015 2230.66 518.154 2232.7 518.035 2234.61C517.916 2236.72 517.578 2238.85 517.023 2241C516.507 2243.15 515.733 2245.08 514.701 2246.79C513.67 2248.5 512.36 2249.89 510.773 2250.97C509.186 2252.04 507.301 2252.58 505.118 2252.58ZM505.713 2225.59C505.118 2225.59 504.583 2225.91 504.106 2226.54C503.67 2227.18 503.293 2227.96 502.975 2228.87C502.698 2229.79 502.479 2230.76 502.321 2231.8C502.162 2232.79 502.083 2233.67 502.083 2234.43C502.083 2235.38 502.162 2236.42 502.321 2237.53C502.519 2238.65 502.777 2239.68 503.094 2240.64C503.412 2241.55 503.789 2242.33 504.225 2242.97C504.702 2243.56 505.237 2243.86 505.833 2243.86C506.467 2243.86 507.003 2243.56 507.44 2242.97C507.916 2242.37 508.293 2241.61 508.571 2240.7C508.848 2239.78 509.047 2238.79 509.166 2237.71C509.285 2236.6 509.344 2235.56 509.344 2234.61C509.344 2233.73 509.265 2232.77 509.106 2231.74C508.948 2230.66 508.709 2229.67 508.392 2228.75C508.114 2227.84 507.737 2227.08 507.261 2226.48C506.825 2225.89 506.309 2225.59 505.713 2225.59Z" fill="black"/>
<path d="M532.38 2252.58C530.356 2252.58 528.59 2252.04 527.082 2250.97C525.574 2249.89 524.305 2248.52 523.273 2246.85C522.241 2245.18 521.467 2243.33 520.951 2241.29C520.436 2239.22 520.178 2237.19 520.178 2235.2C520.178 2233.09 520.436 2230.92 520.951 2228.69C521.467 2226.42 522.261 2224.37 523.332 2222.54C524.404 2220.67 525.773 2219.16 527.439 2218C529.106 2216.81 531.09 2216.21 533.392 2216.21C535.614 2216.21 537.499 2216.83 539.046 2218.06C540.634 2219.26 541.904 2220.77 542.856 2222.6C543.808 2224.39 544.483 2226.36 544.88 2228.51C545.277 2230.66 545.415 2232.7 545.296 2234.61C545.177 2236.72 544.84 2238.85 544.285 2241C543.769 2243.15 542.995 2245.08 541.963 2246.79C540.931 2248.5 539.622 2249.89 538.035 2250.97C536.447 2252.04 534.562 2252.58 532.38 2252.58ZM532.975 2225.59C532.38 2225.59 531.844 2225.91 531.368 2226.54C530.931 2227.18 530.554 2227.96 530.237 2228.87C529.959 2229.79 529.741 2230.76 529.582 2231.8C529.424 2232.79 529.344 2233.67 529.344 2234.43C529.344 2235.38 529.424 2236.42 529.582 2237.53C529.781 2238.65 530.039 2239.68 530.356 2240.64C530.674 2241.55 531.051 2242.33 531.487 2242.97C531.963 2243.56 532.499 2243.86 533.094 2243.86C533.729 2243.86 534.265 2243.56 534.701 2242.97C535.177 2242.37 535.554 2241.61 535.832 2240.7C536.11 2239.78 536.308 2238.79 536.427 2237.71C536.546 2236.6 536.606 2235.56 536.606 2234.61C536.606 2233.73 536.527 2232.77 536.368 2231.74C536.209 2230.66 535.971 2229.67 535.654 2228.75C535.376 2227.84 534.999 2227.08 534.523 2226.48C534.086 2225.89 533.57 2225.59 532.975 2225.59Z" fill="black"/>
<path d="M574.76 2218.72C574.76 2219.84 574.463 2220.97 573.868 2222.12C573.312 2223.28 572.618 2224.43 571.784 2225.59C570.991 2226.7 570.137 2227.78 569.225 2228.81C568.352 2229.81 567.578 2230.72 566.903 2231.56C567.459 2232.44 568.153 2233.61 568.987 2235.08C569.82 2236.52 570.614 2238.05 571.368 2239.68C572.122 2241.31 572.756 2242.91 573.272 2244.46C573.828 2246.01 574.106 2247.31 574.106 2248.34C574.106 2249.18 573.848 2249.95 573.332 2250.67C572.816 2251.35 572.102 2251.69 571.189 2251.69C570.514 2251.69 569.82 2251.41 569.106 2250.85C568.431 2250.25 567.737 2249.5 567.022 2248.58C566.348 2247.63 565.693 2246.57 565.058 2245.42C564.423 2244.26 563.828 2243.13 563.272 2242.01C562.757 2240.9 562.28 2239.86 561.844 2238.91C561.447 2237.91 561.13 2237.11 560.891 2236.52C560.376 2237.03 559.82 2237.47 559.225 2237.83C558.669 2238.15 558.114 2238.53 557.558 2238.97C557.558 2239.8 557.518 2240.98 557.439 2242.49C557.399 2244 557.221 2245.5 556.903 2246.97C556.626 2248.44 556.149 2249.74 555.475 2250.85C554.8 2251.93 553.808 2252.46 552.499 2252.46C551.467 2252.46 550.673 2251.98 550.118 2251.03C549.562 2250.11 549.146 2249.04 548.868 2247.8C548.63 2246.53 548.491 2245.26 548.451 2243.98C548.411 2242.67 548.392 2241.67 548.392 2241C548.392 2238.05 548.471 2235.1 548.63 2232.16C548.788 2229.21 548.888 2226.27 548.927 2223.32C548.927 2222.64 548.927 2221.77 548.927 2220.69C548.967 2219.58 549.046 2218.38 549.165 2217.11C549.284 2215.83 549.463 2214.54 549.701 2213.23C549.939 2211.91 550.277 2210.74 550.713 2209.7C551.15 2208.63 551.705 2207.77 552.38 2207.13C553.094 2206.46 553.947 2206.12 554.939 2206.12C555.653 2206.12 556.249 2206.4 556.725 2206.96C557.241 2207.47 557.638 2208.15 557.915 2208.99C558.233 2209.82 558.451 2210.76 558.57 2211.79C558.729 2212.83 558.828 2213.86 558.868 2214.9C558.947 2215.89 558.987 2216.83 558.987 2217.71C558.987 2218.58 558.987 2219.28 558.987 2219.8C558.987 2220.15 558.967 2220.69 558.927 2221.41C558.927 2222.08 558.907 2222.8 558.868 2223.56C558.868 2224.31 558.868 2225.01 558.868 2225.65C558.868 2226.29 558.907 2226.74 558.987 2227.02C559.265 2227.02 559.681 2226.76 560.237 2226.25C560.792 2225.69 561.427 2224.99 562.141 2224.16C562.895 2223.32 563.689 2222.44 564.522 2221.53C565.395 2220.57 566.268 2219.68 567.141 2218.84C568.054 2218 568.947 2217.33 569.82 2216.81C570.693 2216.25 571.506 2215.97 572.26 2215.97C573.054 2215.97 573.669 2216.25 574.106 2216.81C574.542 2217.37 574.76 2218 574.76 2218.72Z" fill="black"/>
<path d="M586.665 2209.17C586.665 2209.72 586.506 2210.22 586.189 2210.66C585.911 2211.1 585.534 2211.49 585.058 2211.85C584.582 2212.17 584.066 2212.43 583.51 2212.63C582.955 2212.79 582.439 2212.87 581.963 2212.87C581.169 2212.87 580.475 2212.67 579.879 2212.27C579.284 2211.87 578.987 2211.26 578.987 2210.42C578.987 2209.82 579.125 2209.3 579.403 2208.87C579.721 2208.39 580.098 2208.01 580.534 2207.73C580.971 2207.41 581.467 2207.17 582.022 2207.02C582.578 2206.86 583.113 2206.78 583.629 2206.78C584.383 2206.78 585.078 2206.96 585.713 2207.31C586.348 2207.67 586.665 2208.29 586.665 2209.17ZM587.141 2229.47C587.141 2230.03 587.141 2230.62 587.141 2231.26C587.141 2231.86 587.121 2232.44 587.082 2232.99C587.042 2233.67 587.022 2234.59 587.022 2235.74C587.022 2236.86 586.982 2238.07 586.903 2239.38C586.824 2240.7 586.685 2242.03 586.486 2243.39C586.328 2244.74 586.05 2245.97 585.653 2247.09C585.256 2248.2 584.721 2249.12 584.046 2249.83C583.411 2250.51 582.598 2250.87 581.606 2250.91C580.852 2250.95 580.217 2250.65 579.701 2250.01C579.185 2249.38 578.748 2248.56 578.391 2247.57C578.074 2246.53 577.836 2245.4 577.677 2244.16C577.518 2242.89 577.399 2241.67 577.32 2240.52C577.241 2239.32 577.201 2238.23 577.201 2237.23C577.201 2236.24 577.201 2235.5 577.201 2235.02C577.201 2234.39 577.201 2233.49 577.201 2232.34C577.201 2231.14 577.241 2229.87 577.32 2228.51C577.399 2227.16 577.538 2225.79 577.737 2224.39C577.975 2223 578.292 2221.73 578.689 2220.57C579.125 2219.42 579.681 2218.48 580.356 2217.76C581.03 2217.05 581.883 2216.69 582.915 2216.69C583.986 2216.69 584.8 2217.23 585.356 2218.3C585.911 2219.38 586.328 2220.63 586.605 2222.06C586.883 2223.5 587.042 2224.93 587.082 2226.36C587.121 2227.76 587.141 2228.79 587.141 2229.47Z" fill="black"/>
<path d="M618.093 2245.24C618.093 2246.03 617.756 2246.73 617.081 2247.33C616.446 2247.92 615.613 2248.46 614.581 2248.94C613.589 2249.42 612.439 2249.81 611.129 2250.13C609.859 2250.45 608.589 2250.71 607.32 2250.91C606.089 2251.11 604.919 2251.25 603.808 2251.33C602.697 2251.45 601.804 2251.51 601.129 2251.51C600.455 2251.51 599.502 2251.49 598.272 2251.45C597.082 2251.41 595.891 2251.25 594.701 2250.97C593.51 2250.73 592.478 2250.33 591.605 2249.78C590.732 2249.18 590.296 2248.36 590.296 2247.33C590.296 2246.53 590.574 2245.55 591.129 2244.4C591.685 2243.25 592.399 2241.99 593.272 2240.64C594.145 2239.28 595.117 2237.91 596.189 2236.52C597.26 2235.08 598.312 2233.71 599.343 2232.4C600.375 2231.08 601.347 2229.89 602.26 2228.81C603.173 2227.7 603.887 2226.78 604.403 2226.07C603.847 2226.19 603.133 2226.36 602.26 2226.6C601.427 2226.8 600.554 2227 599.641 2227.2C598.728 2227.4 597.836 2227.58 596.963 2227.74C596.129 2227.86 595.415 2227.92 594.82 2227.92C594.344 2227.92 593.808 2227.84 593.213 2227.68C592.617 2227.48 592.042 2227.22 591.486 2226.9C590.971 2226.58 590.514 2226.21 590.117 2225.77C589.76 2225.33 589.582 2224.83 589.582 2224.27C589.582 2223.56 589.899 2222.9 590.534 2222.3C591.169 2221.67 592.002 2221.11 593.034 2220.63C594.066 2220.11 595.217 2219.68 596.486 2219.32C597.756 2218.92 599.006 2218.6 600.236 2218.36C601.466 2218.08 602.637 2217.88 603.748 2217.76C604.859 2217.65 605.752 2217.59 606.427 2217.59C607.181 2217.59 608.093 2217.67 609.165 2217.82C610.236 2217.98 611.268 2218.26 612.26 2218.66C613.292 2219.06 614.165 2219.6 614.879 2220.27C615.593 2220.95 615.95 2221.81 615.95 2222.84C615.95 2223.16 615.911 2223.46 615.831 2223.74C615.792 2223.98 615.732 2224.25 615.653 2224.57C615.573 2224.85 615.216 2225.49 614.581 2226.48C613.986 2227.44 613.232 2228.59 612.32 2229.95C611.446 2231.26 610.474 2232.7 609.403 2234.25C608.371 2235.76 607.379 2237.19 606.427 2238.55C605.474 2239.9 604.641 2241.1 603.927 2242.13C603.212 2243.17 602.736 2243.86 602.498 2244.22C604.125 2243.78 605.772 2243.42 607.439 2243.15C609.145 2242.83 610.831 2242.67 612.498 2242.67C612.895 2242.67 613.411 2242.69 614.046 2242.73C614.681 2242.77 615.296 2242.89 615.891 2243.09C616.486 2243.25 617.002 2243.5 617.438 2243.86C617.875 2244.18 618.093 2244.64 618.093 2245.24Z" fill="black"/>
<path d="M645.355 2233.77C645.355 2235.96 645.137 2238.13 644.7 2240.28C644.264 2242.43 643.529 2244.36 642.498 2246.07C641.466 2247.74 640.077 2249.1 638.331 2250.13C636.625 2251.17 634.482 2251.69 631.903 2251.69C629.363 2251.69 627.24 2251.19 625.534 2250.19C623.827 2249.16 622.458 2247.8 621.427 2246.13C620.434 2244.46 619.72 2242.57 619.284 2240.46C618.887 2238.35 618.688 2236.2 618.688 2234.01C618.688 2231.62 618.966 2229.25 619.522 2226.9C619.641 2226.27 619.859 2225.39 620.177 2224.27C620.534 2223.12 620.97 2222.01 621.486 2220.93C622.042 2219.82 622.657 2218.86 623.331 2218.06C624.046 2217.27 624.819 2216.87 625.653 2216.87C626.446 2216.87 627.081 2217.09 627.557 2217.53C628.034 2217.96 628.411 2218.52 628.688 2219.2C628.966 2219.84 629.145 2220.53 629.224 2221.29C629.303 2222.01 629.343 2222.66 629.343 2223.26C629.343 2224.17 629.264 2225.07 629.105 2225.95C628.986 2226.82 628.847 2227.7 628.688 2228.57C628.53 2229.77 628.371 2230.96 628.212 2232.16C628.093 2233.35 628.034 2234.55 628.034 2235.74C628.034 2236.34 628.053 2237.01 628.093 2237.77C628.173 2238.49 628.331 2239.18 628.569 2239.86C628.807 2240.54 629.145 2241.12 629.581 2241.59C630.018 2242.03 630.633 2242.25 631.426 2242.25C632.458 2242.25 633.272 2241.97 633.867 2241.41C634.502 2240.86 634.958 2240.16 635.236 2239.32C635.553 2238.49 635.752 2237.59 635.831 2236.64C635.911 2235.68 635.95 2234.81 635.95 2234.01C635.95 2232.26 635.831 2230.55 635.593 2228.87C635.355 2227.16 635.137 2225.43 634.938 2223.68C634.899 2223.48 634.879 2223.2 634.879 2222.84C634.879 2222.24 634.978 2221.65 635.176 2221.05C635.375 2220.45 635.653 2219.91 636.01 2219.44C636.367 2218.96 636.803 2218.58 637.319 2218.3C637.835 2217.98 638.41 2217.82 639.045 2217.82C639.918 2217.82 640.692 2218.14 641.367 2218.78C642.041 2219.38 642.597 2220.17 643.033 2221.17C643.51 2222.12 643.887 2223.22 644.164 2224.45C644.482 2225.65 644.72 2226.84 644.879 2228.04C645.077 2229.19 645.196 2230.29 645.236 2231.32C645.315 2232.36 645.355 2233.17 645.355 2233.77Z" fill="black"/>
<path d="M717.14 2220.03C717.14 2220.67 717.021 2221.35 716.783 2222.06C716.545 2222.74 716.247 2223.44 715.89 2224.16C715.533 2224.87 715.156 2225.57 714.759 2226.25C714.362 2226.88 714.005 2227.48 713.687 2228.04C712.894 2229.31 712.1 2230.6 711.307 2231.92C710.553 2233.23 709.779 2234.53 708.985 2235.8C709.342 2236.36 709.838 2237.13 710.473 2238.13C711.108 2239.12 711.723 2240.18 712.318 2241.29C712.953 2242.37 713.489 2243.44 713.926 2244.52C714.362 2245.59 714.58 2246.51 714.58 2247.27C714.58 2247.98 714.303 2248.68 713.747 2249.36C713.191 2250.03 712.517 2250.37 711.723 2250.37C710.89 2250.37 710.037 2250.07 709.164 2249.48C708.33 2248.88 707.497 2248.18 706.664 2247.39C705.87 2246.55 705.136 2245.69 704.461 2244.82C703.787 2243.9 703.211 2243.15 702.735 2242.55C702.219 2243.11 701.545 2243.86 700.711 2244.82C699.918 2245.77 699.045 2246.71 698.092 2247.63C697.18 2248.54 696.267 2249.34 695.354 2250.01C694.442 2250.65 693.628 2250.97 692.914 2250.97C692.081 2250.97 691.426 2250.67 690.95 2250.07C690.473 2249.48 690.235 2248.78 690.235 2247.98C690.235 2247.19 690.493 2246.17 691.009 2244.94C691.565 2243.7 692.2 2242.43 692.914 2241.12C693.668 2239.8 694.402 2238.55 695.116 2237.35C695.87 2236.16 696.446 2235.22 696.842 2234.55C696.446 2233.83 695.95 2232.89 695.354 2231.74C694.759 2230.55 694.184 2229.31 693.628 2228.04C693.112 2226.72 692.656 2225.45 692.259 2224.21C691.902 2222.94 691.723 2221.89 691.723 2221.05C691.723 2220.13 692.001 2219.4 692.557 2218.84C693.112 2218.28 693.846 2218 694.759 2218C695.751 2218 696.684 2218.4 697.557 2219.2C698.43 2219.95 699.243 2220.89 699.997 2222.01C700.751 2223.08 701.406 2224.21 701.961 2225.41C702.557 2226.56 703.033 2227.52 703.39 2228.28C703.866 2227.56 704.521 2226.58 705.354 2225.35C706.227 2224.12 707.199 2222.9 708.271 2221.71C709.342 2220.51 710.453 2219.48 711.604 2218.6C712.755 2217.73 713.846 2217.29 714.878 2217.29C715.553 2217.29 716.088 2217.59 716.485 2218.18C716.922 2218.74 717.14 2219.36 717.14 2220.03Z" fill="black"/>
<path d="M802.377 2225.95C802.377 2227.7 802.139 2229.49 801.663 2231.32C801.187 2233.11 800.472 2234.75 799.52 2236.22C798.568 2237.65 797.357 2238.85 795.889 2239.8C794.421 2240.72 792.695 2241.18 790.71 2241.18C789.203 2241.18 787.893 2240.64 786.782 2239.56C785.711 2238.49 785.076 2237.21 784.877 2235.74C784.838 2236.54 784.619 2237.23 784.222 2237.83C783.865 2238.43 783.389 2238.93 782.794 2239.32C782.238 2239.68 781.603 2239.96 780.889 2240.16C780.175 2240.36 779.461 2240.46 778.746 2240.46C777.476 2240.46 776.326 2240.18 775.294 2239.62C774.302 2239.07 773.449 2238.33 772.734 2237.41C772.02 2236.5 771.465 2235.46 771.068 2234.31C770.671 2233.15 770.473 2232 770.473 2230.84C770.473 2229.01 770.83 2227.26 771.544 2225.59C772.258 2223.92 773.211 2222.44 774.401 2221.17C775.631 2219.86 777.06 2218.82 778.687 2218.06C780.314 2217.27 782.06 2216.87 783.925 2216.87C784.758 2216.87 785.671 2216.97 786.663 2217.17C787.695 2217.33 788.568 2217.59 789.282 2217.94C789.837 2218.22 790.155 2218.72 790.234 2219.44C790.353 2220.11 790.413 2220.69 790.413 2221.17C790.413 2222.32 790.314 2223.5 790.115 2224.69C789.917 2225.89 789.699 2227.06 789.46 2228.22C789.262 2229.05 789.064 2229.89 788.865 2230.72C788.707 2231.52 788.627 2232.34 788.627 2233.17C788.627 2233.85 788.746 2234.47 788.984 2235.02C789.222 2235.54 789.738 2235.8 790.532 2235.8C791.524 2235.8 792.397 2235.4 793.151 2234.61C793.905 2233.77 794.52 2232.77 794.996 2231.62C795.512 2230.47 795.889 2229.27 796.127 2228.04C796.365 2226.8 796.484 2225.77 796.484 2224.93C796.484 2222.94 796.107 2221.21 795.353 2219.74C794.599 2218.22 793.587 2216.99 792.318 2216.03C791.048 2215.04 789.56 2214.3 787.853 2213.82C786.187 2213.31 784.401 2213.05 782.496 2213.05C780.115 2213.05 777.973 2213.48 776.068 2214.36C774.203 2215.2 772.615 2216.35 771.306 2217.82C769.996 2219.3 768.985 2221.05 768.27 2223.08C767.556 2225.07 767.199 2227.2 767.199 2229.47C767.199 2231.82 767.556 2233.97 768.27 2235.92C768.985 2237.87 769.996 2239.56 771.306 2241C772.655 2242.39 774.282 2243.48 776.187 2244.28C778.092 2245.08 780.234 2245.48 782.615 2245.48C783.845 2245.48 785.016 2245.36 786.127 2245.12C787.278 2244.88 788.369 2244.62 789.401 2244.34C790.472 2244.02 791.484 2243.74 792.437 2243.5C793.429 2243.27 794.401 2243.15 795.353 2243.15C795.869 2243.15 796.445 2243.27 797.079 2243.5C797.754 2243.74 798.091 2244.2 798.091 2244.88C798.091 2245.63 797.754 2246.31 797.079 2246.91C796.405 2247.51 795.552 2248.04 794.52 2248.52C793.488 2248.96 792.337 2249.34 791.068 2249.66C789.798 2249.93 788.548 2250.17 787.318 2250.37C786.088 2250.57 784.976 2250.73 783.984 2250.85C782.992 2250.93 782.238 2250.97 781.722 2250.97C780.532 2250.97 779.242 2250.91 777.853 2250.79C776.504 2250.63 775.254 2250.33 774.104 2249.89C771.881 2249.06 769.957 2247.94 768.33 2246.55C766.703 2245.12 765.354 2243.5 764.282 2241.71C763.211 2239.88 762.397 2237.89 761.842 2235.74C761.326 2233.59 761.068 2231.36 761.068 2229.05C761.068 2226.03 761.604 2223.16 762.675 2220.45C763.786 2217.75 765.314 2215.38 767.258 2213.35C769.203 2211.28 771.504 2209.64 774.163 2208.45C776.822 2207.25 779.719 2206.66 782.853 2206.66C785.711 2206.66 788.33 2207.11 790.71 2208.03C793.091 2208.95 795.135 2210.26 796.841 2211.97C798.587 2213.64 799.937 2215.67 800.889 2218.06C801.881 2220.41 802.377 2223.04 802.377 2225.95ZM785.651 2222.54C785.453 2222.5 785.234 2222.48 784.996 2222.48C784.798 2222.48 784.599 2222.48 784.401 2222.48C783.687 2222.48 782.953 2222.56 782.199 2222.72C781.445 2222.88 780.73 2223.12 780.056 2223.44C779.381 2223.76 778.766 2224.16 778.211 2224.63C777.655 2225.11 777.219 2225.67 776.901 2226.3C776.544 2227.02 776.246 2227.76 776.008 2228.51C775.77 2229.27 775.651 2230.03 775.651 2230.78C775.651 2231.26 775.73 2231.78 775.889 2232.34C776.048 2232.85 776.266 2233.33 776.544 2233.77C776.861 2234.21 777.219 2234.57 777.615 2234.84C778.052 2235.12 778.548 2235.26 779.103 2235.26C779.58 2235.26 780.096 2235.1 780.651 2234.79C781.207 2234.47 781.722 2234.09 782.199 2233.65C782.715 2233.21 783.151 2232.73 783.508 2232.22C783.865 2231.7 784.084 2231.24 784.163 2230.84C784.48 2229.45 784.738 2228.08 784.937 2226.72C785.175 2225.33 785.413 2223.94 785.651 2222.54Z" fill="black"/>
<path d="M825.71 2228.51C825.155 2228.55 824.678 2228.51 824.282 2228.4C823.885 2228.24 823.488 2228.08 823.091 2227.92C822.734 2227.76 822.377 2227.62 822.02 2227.5C821.663 2227.34 821.266 2227.28 820.829 2227.32C820.036 2227.36 819.321 2227.58 818.686 2227.98C818.091 2228.38 817.536 2228.87 817.02 2229.47C816.544 2230.07 816.127 2230.74 815.77 2231.5C815.413 2232.22 815.135 2232.93 814.936 2233.65C814.817 2234.13 814.718 2234.86 814.639 2235.86C814.599 2236.82 814.579 2237.85 814.579 2238.97C814.54 2240.12 814.52 2241.22 814.52 2242.25C814.52 2243.29 814.48 2244.1 814.401 2244.7C814.361 2245.34 814.262 2246.09 814.103 2246.97C813.944 2247.8 813.686 2248.6 813.329 2249.36C813.012 2250.11 812.575 2250.75 812.02 2251.27C811.464 2251.79 810.75 2252.04 809.877 2252.04C809.202 2252.04 808.607 2251.85 808.091 2251.45C807.615 2251.05 807.198 2250.53 806.841 2249.89C806.524 2249.22 806.246 2248.44 806.008 2247.57C805.81 2246.69 805.651 2245.79 805.532 2244.88C805.413 2243.92 805.313 2242.97 805.234 2242.01C805.194 2241.06 805.155 2240.16 805.115 2239.32C805.115 2238.45 805.115 2237.65 805.115 2236.94C805.155 2236.22 805.175 2235.64 805.175 2235.2C805.135 2233.81 805.056 2232.42 804.937 2231.02C804.857 2229.59 804.817 2228.18 804.817 2226.78C804.817 2225.91 804.857 2224.93 804.937 2223.86C805.016 2222.78 805.234 2221.79 805.591 2220.87C805.948 2219.91 806.464 2219.12 807.139 2218.48C807.853 2217.84 808.825 2217.53 810.056 2217.53C810.73 2217.53 811.305 2217.75 811.782 2218.18C812.258 2218.62 812.635 2219.16 812.913 2219.8C813.23 2220.43 813.468 2221.11 813.627 2221.83C813.786 2222.54 813.885 2223.2 813.925 2223.8C814.877 2222.24 815.948 2220.99 817.139 2220.03C818.329 2219.04 819.877 2218.5 821.782 2218.42C822.734 2218.38 823.666 2218.48 824.579 2218.72C825.532 2218.92 826.385 2219.28 827.139 2219.8C827.932 2220.27 828.567 2220.91 829.043 2221.71C829.559 2222.5 829.837 2223.44 829.877 2224.51C829.956 2225.79 829.579 2226.76 828.746 2227.44C827.912 2228.12 826.901 2228.47 825.71 2228.51Z" fill="black"/>
<path d="M840.591 2209.17C840.591 2209.72 840.432 2210.22 840.115 2210.66C839.837 2211.1 839.46 2211.49 838.984 2211.85C838.508 2212.17 837.992 2212.43 837.436 2212.63C836.881 2212.79 836.365 2212.87 835.889 2212.87C835.095 2212.87 834.4 2212.67 833.805 2212.27C833.21 2211.87 832.912 2211.26 832.912 2210.42C832.912 2209.82 833.051 2209.3 833.329 2208.87C833.647 2208.39 834.024 2208.01 834.46 2207.73C834.897 2207.41 835.393 2207.17 835.948 2207.02C836.504 2206.86 837.039 2206.78 837.555 2206.78C838.309 2206.78 839.004 2206.96 839.639 2207.31C840.273 2207.67 840.591 2208.29 840.591 2209.17ZM841.067 2229.47C841.067 2230.03 841.067 2230.62 841.067 2231.26C841.067 2231.86 841.047 2232.44 841.008 2232.99C840.968 2233.67 840.948 2234.59 840.948 2235.74C840.948 2236.86 840.908 2238.07 840.829 2239.38C840.75 2240.7 840.611 2242.03 840.412 2243.39C840.254 2244.74 839.976 2245.97 839.579 2247.09C839.182 2248.2 838.646 2249.12 837.972 2249.83C837.337 2250.51 836.523 2250.87 835.531 2250.91C834.777 2250.95 834.143 2250.65 833.627 2250.01C833.111 2249.38 832.674 2248.56 832.317 2247.57C832 2246.53 831.762 2245.4 831.603 2244.16C831.444 2242.89 831.325 2241.67 831.246 2240.52C831.166 2239.32 831.127 2238.23 831.127 2237.23C831.127 2236.24 831.127 2235.5 831.127 2235.02C831.127 2234.39 831.127 2233.49 831.127 2232.34C831.127 2231.14 831.166 2229.87 831.246 2228.51C831.325 2227.16 831.464 2225.79 831.662 2224.39C831.901 2223 832.218 2221.73 832.615 2220.57C833.051 2219.42 833.607 2218.48 834.281 2217.76C834.956 2217.05 835.809 2216.69 836.841 2216.69C837.912 2216.69 838.726 2217.23 839.281 2218.3C839.837 2219.38 840.254 2220.63 840.531 2222.06C840.809 2223.5 840.968 2224.93 841.008 2226.36C841.047 2227.76 841.067 2228.79 841.067 2229.47Z" fill="black"/>
<path d="M859.162 2253C856.345 2253 854.142 2252.62 852.555 2251.87C851.007 2251.15 849.837 2250.11 849.043 2248.76C848.289 2247.41 847.833 2245.77 847.674 2243.86C847.515 2241.95 847.436 2239.82 847.436 2237.47C847.436 2235.6 847.496 2233.73 847.615 2231.86C847.734 2229.95 847.912 2227.92 848.15 2225.77C847.595 2225.77 847.158 2225.79 846.841 2225.83C846.523 2225.83 846.265 2225.83 846.067 2225.83C844.797 2225.83 843.706 2225.55 842.793 2224.99C841.841 2224.43 841.365 2223.58 841.365 2222.42C841.365 2221.71 841.642 2221.07 842.198 2220.51C842.714 2219.95 843.388 2219.48 844.222 2219.08C845.055 2218.68 845.948 2218.36 846.9 2218.12C847.892 2217.88 848.825 2217.73 849.698 2217.65C849.698 2216.53 849.777 2215.3 849.936 2213.94C850.095 2212.59 850.373 2211.34 850.769 2210.18C851.206 2208.99 851.781 2207.99 852.496 2207.19C853.21 2206.4 854.122 2206 855.234 2206C855.869 2206 856.424 2206.2 856.9 2206.6C857.416 2206.96 857.833 2207.43 858.15 2208.03C858.468 2208.59 858.706 2209.22 858.865 2209.94C859.023 2210.66 859.103 2211.35 859.103 2212.03C859.103 2212.83 859.043 2213.64 858.924 2214.48C858.805 2215.32 858.587 2216.35 858.269 2217.59C858.944 2217.51 859.4 2217.47 859.638 2217.47C859.876 2217.43 860.095 2217.41 860.293 2217.41C860.968 2217.41 861.662 2217.47 862.376 2217.59C863.13 2217.71 863.805 2217.9 864.4 2218.18C865.035 2218.46 865.551 2218.84 865.948 2219.32C866.345 2219.76 866.543 2220.29 866.543 2220.93C866.543 2221.65 866.245 2222.28 865.65 2222.84C865.095 2223.4 864.38 2223.88 863.507 2224.27C862.634 2224.67 861.702 2224.99 860.71 2225.23C859.718 2225.43 858.785 2225.57 857.912 2225.65C857.674 2227.28 857.495 2228.79 857.376 2230.19C857.297 2231.54 857.198 2232.91 857.079 2234.31C856.999 2234.98 856.92 2235.68 856.841 2236.4C856.801 2237.07 856.781 2237.77 856.781 2238.49C856.781 2239.01 856.801 2239.62 856.841 2240.34C856.88 2241.02 857.019 2241.67 857.257 2242.31C857.495 2242.95 857.872 2243.5 858.388 2243.98C858.904 2244.42 859.618 2244.64 860.531 2244.64C861.087 2244.64 861.662 2244.6 862.257 2244.52C862.853 2244.4 863.448 2244.34 864.043 2244.34C865.075 2244.34 865.809 2244.7 866.245 2245.42C866.722 2246.13 866.96 2247.05 866.96 2248.16C866.96 2249 866.702 2249.74 866.186 2250.37C865.71 2250.97 865.095 2251.45 864.341 2251.81C863.587 2252.2 862.734 2252.5 861.781 2252.7C860.868 2252.9 859.995 2253 859.162 2253Z" fill="black"/>
<path d="M893.447 2242.43C893.447 2243.15 893.408 2244.08 893.328 2245.24C893.289 2246.39 893.13 2247.53 892.852 2248.64C892.574 2249.72 892.138 2250.65 891.543 2251.45C890.948 2252.24 890.114 2252.64 889.043 2252.64C887.575 2252.64 886.444 2252.16 885.65 2251.21C884.856 2250.25 884.479 2249.06 884.519 2247.63C883.249 2248.74 881.801 2249.62 880.174 2250.25C878.587 2250.89 876.96 2251.21 875.293 2251.21C874.142 2251.21 873.051 2250.93 872.019 2250.37C870.987 2249.81 870.075 2249.1 869.281 2248.22C868.487 2247.35 867.853 2246.37 867.376 2245.3C866.9 2244.18 866.662 2243.09 866.662 2242.01C866.662 2240.1 867.237 2238.43 868.388 2236.99C869.579 2235.56 871.027 2234.35 872.733 2233.35C874.44 2232.32 876.245 2231.5 878.15 2230.9C880.094 2230.31 881.821 2229.91 883.329 2229.71C883.329 2229.51 883.329 2229.33 883.329 2229.17C883.368 2229.01 883.388 2228.83 883.388 2228.63C883.388 2227.4 883.051 2226.4 882.376 2225.65C881.702 2224.89 880.749 2224.51 879.519 2224.51C878.527 2224.51 877.674 2224.69 876.96 2225.05C876.245 2225.37 875.571 2225.75 874.936 2226.19C874.301 2226.58 873.666 2226.96 873.031 2227.32C872.396 2227.64 871.682 2227.8 870.888 2227.8C870.015 2227.8 869.261 2227.52 868.626 2226.96C868.031 2226.4 867.733 2225.69 867.733 2224.81C867.733 2223.5 868.11 2222.3 868.864 2221.23C869.658 2220.15 870.63 2219.26 871.781 2218.54C872.972 2217.78 874.241 2217.21 875.591 2216.81C876.979 2216.37 878.249 2216.15 879.4 2216.15C880.471 2216.15 881.543 2216.29 882.614 2216.57C883.686 2216.81 884.698 2217.21 885.65 2217.76C886.602 2218.28 887.455 2218.94 888.209 2219.74C889.003 2220.49 889.638 2221.39 890.114 2222.42C890.828 2223.9 891.404 2225.47 891.84 2227.14C892.277 2228.77 892.614 2230.47 892.852 2232.22C893.09 2233.93 893.249 2235.66 893.328 2237.41C893.408 2239.12 893.447 2240.8 893.447 2242.43ZM883.924 2240.52L883.745 2236.46C883.666 2236.46 883.586 2236.46 883.507 2236.46C883.428 2236.42 883.348 2236.4 883.269 2236.4C882.753 2236.4 882.098 2236.54 881.305 2236.82C880.551 2237.05 879.817 2237.41 879.102 2237.89C878.388 2238.33 877.773 2238.83 877.257 2239.38C876.781 2239.94 876.543 2240.52 876.543 2241.12C876.543 2241.67 876.741 2242.05 877.138 2242.25C877.535 2242.45 877.991 2242.55 878.507 2242.55C879.38 2242.55 880.313 2242.33 881.305 2241.89C882.297 2241.41 883.17 2240.96 883.924 2240.52Z" fill="black"/>
<path d="M917.673 2228.51C917.118 2228.55 916.642 2228.51 916.245 2228.4C915.848 2228.24 915.451 2228.08 915.054 2227.92C914.697 2227.76 914.34 2227.62 913.983 2227.5C913.626 2227.34 913.229 2227.28 912.793 2227.32C911.999 2227.36 911.285 2227.58 910.65 2227.98C910.054 2228.38 909.499 2228.87 908.983 2229.47C908.507 2230.07 908.09 2230.74 907.733 2231.5C907.376 2232.22 907.098 2232.93 906.9 2233.65C906.781 2234.13 906.681 2234.86 906.602 2235.86C906.562 2236.82 906.543 2237.85 906.543 2238.97C906.503 2240.12 906.483 2241.22 906.483 2242.25C906.483 2243.29 906.443 2244.1 906.364 2244.7C906.324 2245.34 906.225 2246.09 906.066 2246.97C905.908 2247.8 905.65 2248.6 905.293 2249.36C904.975 2250.11 904.539 2250.75 903.983 2251.27C903.428 2251.79 902.713 2252.04 901.84 2252.04C901.166 2252.04 900.57 2251.85 900.055 2251.45C899.578 2251.05 899.162 2250.53 898.805 2249.89C898.487 2249.22 898.209 2248.44 897.971 2247.57C897.773 2246.69 897.614 2245.79 897.495 2244.88C897.376 2243.92 897.277 2242.97 897.197 2242.01C897.158 2241.06 897.118 2240.16 897.078 2239.32C897.078 2238.45 897.078 2237.65 897.078 2236.94C897.118 2236.22 897.138 2235.64 897.138 2235.2C897.098 2233.81 897.019 2232.42 896.9 2231.02C896.82 2229.59 896.781 2228.18 896.781 2226.78C896.781 2225.91 896.82 2224.93 896.9 2223.86C896.979 2222.78 897.197 2221.79 897.555 2220.87C897.912 2219.91 898.428 2219.12 899.102 2218.48C899.816 2217.84 900.789 2217.53 902.019 2217.53C902.693 2217.53 903.269 2217.75 903.745 2218.18C904.221 2218.62 904.598 2219.16 904.876 2219.8C905.193 2220.43 905.431 2221.11 905.59 2221.83C905.749 2222.54 905.848 2223.2 905.888 2223.8C906.84 2222.24 907.912 2220.99 909.102 2220.03C910.293 2219.04 911.84 2218.5 913.745 2218.42C914.697 2218.38 915.63 2218.48 916.542 2218.72C917.495 2218.92 918.348 2219.28 919.102 2219.8C919.896 2220.27 920.531 2220.91 921.007 2221.71C921.523 2222.5 921.8 2223.44 921.84 2224.51C921.919 2225.79 921.542 2226.76 920.709 2227.44C919.876 2228.12 918.864 2228.47 917.673 2228.51Z" fill="black"/>
<path d="M934.042 2252.58C932.019 2252.58 930.253 2252.04 928.745 2250.97C927.237 2249.89 925.967 2248.52 924.935 2246.85C923.904 2245.18 923.13 2243.33 922.614 2241.29C922.098 2239.22 921.84 2237.19 921.84 2235.2C921.84 2233.09 922.098 2230.92 922.614 2228.69C923.13 2226.42 923.923 2224.37 924.995 2222.54C926.066 2220.67 927.435 2219.16 929.102 2218C930.769 2216.81 932.753 2216.21 935.054 2216.21C937.276 2216.21 939.161 2216.83 940.709 2218.06C942.296 2219.26 943.566 2220.77 944.518 2222.6C945.471 2224.39 946.145 2226.36 946.542 2228.51C946.939 2230.66 947.078 2232.7 946.959 2234.61C946.84 2236.72 946.502 2238.85 945.947 2241C945.431 2243.15 944.657 2245.08 943.626 2246.79C942.594 2248.5 941.284 2249.89 939.697 2250.97C938.11 2252.04 936.225 2252.58 934.042 2252.58ZM934.638 2225.59C934.042 2225.59 933.507 2225.91 933.03 2226.54C932.594 2227.18 932.217 2227.96 931.899 2228.87C931.622 2229.79 931.403 2230.76 931.245 2231.8C931.086 2232.79 931.007 2233.67 931.007 2234.43C931.007 2235.38 931.086 2236.42 931.245 2237.53C931.443 2238.65 931.701 2239.68 932.019 2240.64C932.336 2241.55 932.713 2242.33 933.149 2242.97C933.626 2243.56 934.161 2243.86 934.757 2243.86C935.391 2243.86 935.927 2243.56 936.364 2242.97C936.84 2242.37 937.217 2241.61 937.495 2240.7C937.772 2239.78 937.971 2238.79 938.09 2237.71C938.209 2236.6 938.268 2235.56 938.268 2234.61C938.268 2233.73 938.189 2232.77 938.03 2231.74C937.872 2230.66 937.634 2229.67 937.316 2228.75C937.038 2227.84 936.661 2227.08 936.185 2226.48C935.749 2225.89 935.233 2225.59 934.638 2225.59Z" fill="black"/>
</svg>
