<svg width="1449" height="2270" viewBox="0 0 1449 2270" fill="none" xmlns="http://www.w3.org/2000/svg">
<path d="M1252.76 854.35C1252.07 853.93 1251.19 853.92 1250.12 854.32L1251.06 853.06C1251.15 852.937 1251.29 852.854 1251.43 852.828C1251.58 852.802 1251.74 852.835 1251.86 852.92C1252.27 853.207 1252.57 853.683 1252.76 854.35Z" fill="#6A584A"/>
<path d="M1252.76 854.35C1253.89 855.41 1254.7 856.633 1255.18 858.02L1259.81 862.62C1259.9 862.711 1259.96 862.83 1259.97 862.958C1259.98 863.085 1259.95 863.213 1259.88 863.32C1259.59 863.753 1259.56 864.087 1259.77 864.32C1255.48 866.3 1254.97 869.47 1252.83 873.21C1252.76 873.333 1252.66 873.434 1252.53 873.504C1252.41 873.574 1252.27 873.609 1252.13 873.606C1251.98 873.603 1251.85 873.562 1251.73 873.487C1251.61 873.412 1251.51 873.306 1251.45 873.18C1249.85 870.03 1246.67 865.45 1242.94 863.86C1242.86 863.823 1242.78 863.765 1242.73 863.692C1242.67 863.619 1242.63 863.533 1242.62 863.441C1242.61 863.35 1242.62 863.257 1242.65 863.171C1242.68 863.085 1242.74 863.009 1242.81 862.95C1245.75 860.443 1248.19 857.567 1250.12 854.32C1251.19 853.92 1252.07 853.93 1252.76 854.35Z" fill="#C88C6A"/>
<path d="M223.91 976.05L231.64 967.35C231.717 967.261 231.812 967.19 231.919 967.141C232.025 967.091 232.141 967.064 232.258 967.061C232.376 967.058 232.492 967.08 232.601 967.124C232.71 967.169 232.808 967.235 232.89 967.32C235.81 970.29 238.55 973.42 241.03 974.08C241.108 974.101 241.18 974.141 241.24 974.197C241.299 974.253 241.344 974.322 241.371 974.399C241.397 974.475 241.405 974.558 241.392 974.638C241.38 974.718 241.348 974.794 241.3 974.86L233.62 984.86C233.507 985.006 233.36 985.122 233.192 985.198C233.024 985.274 232.84 985.309 232.655 985.298C232.47 985.287 232.291 985.231 232.131 985.136C231.972 985.041 231.837 984.908 231.74 984.75C230.446 982.61 227.883 980.153 224.05 977.38C223.947 977.307 223.861 977.214 223.798 977.105C223.735 976.996 223.695 976.875 223.682 976.75C223.668 976.624 223.682 976.497 223.721 976.376C223.761 976.255 223.825 976.144 223.91 976.05Z" fill="#D7AF74"/>
<path d="M323.17 1029.16C323.17 1029.2 323.157 1029.24 323.132 1029.28C323.108 1029.31 323.073 1029.34 323.033 1029.35C322.993 1029.36 322.95 1029.36 322.91 1029.35C322.87 1029.34 322.835 1029.31 322.81 1029.28C322.656 1029.09 322.576 1028.81 322.57 1028.44C322.57 1028.38 322.588 1028.33 322.621 1028.28C322.655 1028.24 322.703 1028.2 322.757 1028.19C322.811 1028.17 322.869 1028.18 322.922 1028.2C322.975 1028.22 323.02 1028.25 323.05 1028.3C323.15 1028.45 323.19 1028.74 323.17 1029.16Z" fill="#6A584A"/>
<path d="M1305.28 1077.01C1305.12 1076.91 1304.99 1076.77 1304.91 1076.59C1304.83 1076.42 1304.81 1076.22 1304.85 1076.03C1304.89 1075.85 1304.99 1075.67 1305.13 1075.54C1305.27 1075.41 1305.45 1075.33 1305.64 1075.3C1307.51 1075.06 1309.05 1074.65 1310.26 1074.07C1314 1072.26 1316.08 1066.65 1316.61 1062.69C1316.65 1062.36 1316.81 1062.05 1317.06 1061.82C1317.3 1061.59 1317.62 1061.46 1317.96 1061.44C1318.3 1061.43 1318.63 1061.53 1318.89 1061.74C1319.16 1061.95 1319.34 1062.24 1319.41 1062.57L1321.01 1069.63C1321.03 1069.71 1321.06 1069.78 1321.09 1069.85C1322.5 1072.63 1324.85 1074.34 1328.15 1074.97C1328.36 1075.02 1328.63 1075.15 1328.95 1075.37C1329.4 1075.67 1329.65 1075.84 1329.71 1075.88C1329.85 1075.98 1329.96 1076.11 1330.03 1076.27C1330.1 1076.43 1330.12 1076.6 1330.09 1076.77C1330.06 1076.94 1329.98 1077.1 1329.87 1077.23C1329.75 1077.35 1329.61 1077.44 1329.44 1077.49L1324.19 1078.95C1324.03 1079 1323.88 1079.06 1323.75 1079.14C1322.27 1080 1320.93 1081.48 1319.73 1083.59C1318.89 1085.04 1318.91 1087.52 1318.18 1089.49C1318.12 1089.66 1318.03 1089.82 1317.92 1089.95C1317.8 1090.09 1317.67 1090.2 1317.53 1090.28C1317.39 1090.36 1317.24 1090.41 1317.09 1090.42C1316.94 1090.43 1316.79 1090.4 1316.66 1090.34C1314.59 1089.4 1314 1085.3 1313.46 1083.06C1312.91 1080.79 1307.66 1078.4 1305.28 1077.01ZM1314.51 1075.7C1314.46 1075.63 1314.43 1075.54 1314.42 1075.46C1314.42 1075.37 1314.45 1075.28 1314.5 1075.21C1314.54 1075.14 1314.62 1075.08 1314.7 1075.06C1314.78 1075.03 1314.87 1075.03 1314.95 1075.06L1319 1076.39C1319.19 1076.45 1319.4 1076.46 1319.59 1076.42C1319.79 1076.38 1319.97 1076.29 1320.12 1076.15C1320.27 1076.02 1320.38 1075.85 1320.44 1075.65C1320.5 1075.46 1320.51 1075.26 1320.47 1075.06C1319.87 1072.5 1316.91 1069.93 1314.54 1072.64C1313.5 1073.83 1312.86 1074.74 1312.62 1075.36C1312.42 1075.89 1312.39 1076.47 1312.55 1077.02C1312.7 1077.58 1313.03 1078.08 1313.49 1078.45C1314.97 1079.66 1316.12 1080.88 1316.94 1082.11C1317 1082.2 1317.08 1082.27 1317.17 1082.32C1317.26 1082.37 1317.36 1082.39 1317.47 1082.39C1317.57 1082.39 1317.68 1082.36 1317.77 1082.31C1317.86 1082.26 1317.94 1082.19 1318 1082.1C1319 1080.57 1319.46 1079.37 1319.37 1078.51C1319.35 1078.31 1319.27 1078.12 1319.13 1077.97C1319 1077.82 1318.82 1077.71 1318.62 1077.67C1316.57 1077.22 1315.2 1076.56 1314.51 1075.7Z" fill="#C88C6A"/>
<path d="M1173.2 1065.86C1173.28 1065.8 1173.37 1065.77 1173.47 1065.75C1173.56 1065.74 1173.66 1065.75 1173.75 1065.79C1173.84 1065.83 1173.92 1065.88 1173.98 1065.96C1174.04 1066.03 1174.08 1066.12 1174.1 1066.22C1175.22 1072.69 1172.82 1077.76 1169.6 1083.5C1166.35 1089.27 1160.24 1095.02 1153.55 1096.52C1153.46 1096.54 1153.37 1096.54 1153.28 1096.52C1153.2 1096.5 1153.11 1096.46 1153.04 1096.41C1152.97 1096.35 1152.92 1096.28 1152.88 1096.19C1152.84 1096.11 1152.82 1096.02 1152.82 1095.93V1089.88C1152.82 1089.63 1152.89 1089.4 1153.03 1089.19C1153.17 1088.99 1153.36 1088.83 1153.59 1088.74C1161.06 1085.74 1166.88 1080.38 1171.07 1072.67C1171.29 1072.27 1171.44 1071.83 1171.52 1071.37C1171.91 1069.13 1172.24 1067.68 1172.49 1067.03C1172.74 1066.42 1172.97 1066.03 1173.2 1065.86Z" fill="white"/>
<path d="M1314.51 1075.7C1315.2 1076.56 1316.57 1077.22 1318.62 1077.67C1318.82 1077.71 1319 1077.82 1319.13 1077.97C1319.27 1078.12 1319.35 1078.31 1319.37 1078.51C1319.46 1079.37 1319 1080.57 1318 1082.1C1317.94 1082.19 1317.86 1082.26 1317.77 1082.31C1317.68 1082.36 1317.57 1082.39 1317.47 1082.39C1317.36 1082.39 1317.26 1082.37 1317.17 1082.32C1317.08 1082.27 1317 1082.2 1316.94 1082.11C1316.12 1080.88 1314.97 1079.66 1313.49 1078.45C1313.03 1078.08 1312.7 1077.58 1312.55 1077.02C1312.39 1076.47 1312.42 1075.89 1312.62 1075.36C1312.86 1074.74 1313.5 1073.83 1314.54 1072.64C1316.91 1069.93 1319.87 1072.5 1320.47 1075.06C1320.51 1075.26 1320.5 1075.46 1320.44 1075.65C1320.38 1075.84 1320.27 1076.02 1320.12 1076.15C1319.97 1076.29 1319.79 1076.38 1319.59 1076.42C1319.4 1076.46 1319.19 1076.45 1319 1076.39L1314.95 1075.06C1314.87 1075.03 1314.78 1075.03 1314.7 1075.06C1314.62 1075.08 1314.54 1075.14 1314.49 1075.21C1314.45 1075.28 1314.42 1075.37 1314.42 1075.46C1314.43 1075.54 1314.46 1075.63 1314.51 1075.7Z" fill="white"/>
<path d="M310.212 1075.75C310.459 1075.37 310.506 1074.97 310.317 1074.84C310.128 1074.72 309.775 1074.92 309.528 1075.29C309.281 1075.67 309.234 1076.07 309.423 1076.2C309.612 1076.32 309.965 1076.12 310.212 1075.75Z" fill="#9EA269"/>
<path d="M1210.94 1362.6C1210.95 1362.33 1211.04 1362.08 1211.18 1361.85C1211.33 1361.63 1211.53 1361.45 1211.76 1361.32C1212 1361.2 1212.26 1361.14 1212.53 1361.15C1212.79 1361.15 1213.05 1361.23 1213.28 1361.37L1213.33 1361.4C1213.97 1361.79 1214.51 1362.32 1214.9 1362.95C1215.3 1363.59 1215.54 1364.31 1215.61 1365.05C1215.93 1368.64 1216.18 1371.38 1216.35 1373.26C1217.27 1383.36 1224.5 1385.53 1233.39 1386.32C1233.71 1386.35 1234.01 1386.45 1234.28 1386.61C1234.55 1386.77 1234.79 1386.99 1234.96 1387.26C1235.13 1387.52 1235.25 1387.82 1235.29 1388.14C1235.33 1388.45 1235.3 1388.77 1235.2 1389.07L1235.11 1389.34C1234.88 1390.03 1234.44 1390.63 1233.85 1391.06C1233.27 1391.49 1232.56 1391.72 1231.83 1391.73C1219.16 1391.8 1216.13 1402.5 1215.58 1413.14C1215.48 1415.03 1214.48 1416.23 1212.59 1416.76C1212.44 1416.8 1212.28 1416.81 1212.12 1416.79C1211.96 1416.77 1211.81 1416.72 1211.67 1416.64C1211.54 1416.55 1211.42 1416.44 1211.33 1416.31C1211.24 1416.18 1211.17 1416.04 1211.14 1415.88C1210.25 1411.53 1209.73 1408.27 1209.59 1406.1C1209.12 1399.1 1206.46 1395.36 1199.46 1394.08C1196.41 1393.53 1193.88 1393.14 1191.86 1392.92C1191.28 1392.86 1190.74 1392.58 1190.34 1392.15C1189.95 1391.71 1189.73 1391.15 1189.72 1390.56L1189.71 1390.3C1189.7 1389.73 1189.92 1389.18 1190.3 1388.76C1190.69 1388.34 1191.22 1388.09 1191.79 1388.05C1195.38 1387.81 1198.5 1387.17 1201.17 1386.14C1201.57 1385.99 1201.96 1385.78 1202.3 1385.53C1210.07 1379.99 1210.47 1371.23 1210.94 1362.6ZM1213.56 1397.93C1215.3 1394.48 1217.61 1391.59 1220.49 1389.25C1220.6 1389.16 1220.68 1389.05 1220.73 1388.92C1220.78 1388.79 1220.79 1388.65 1220.77 1388.51C1220.75 1388.37 1220.69 1388.25 1220.6 1388.14C1220.51 1388.03 1220.4 1387.95 1220.27 1387.9C1217.46 1386.85 1215.45 1384.95 1214.25 1382.22C1214.2 1382.11 1214.13 1382.02 1214.03 1381.95C1213.94 1381.89 1213.83 1381.85 1213.71 1381.84C1213.59 1381.83 1213.48 1381.85 1213.37 1381.91C1213.27 1381.96 1213.18 1382.04 1213.12 1382.14C1211.33 1385.02 1209.15 1387.5 1206.58 1389.58C1206.47 1389.67 1206.38 1389.79 1206.32 1389.92C1206.26 1390.06 1206.24 1390.2 1206.25 1390.35C1206.26 1390.49 1206.3 1390.63 1206.38 1390.76C1206.45 1390.88 1206.56 1390.98 1206.68 1391.06C1209.25 1392.65 1211.06 1394.91 1212.1 1397.84C1212.15 1397.99 1212.25 1398.11 1212.37 1398.2C1212.5 1398.3 1212.65 1398.35 1212.8 1398.36C1212.96 1398.37 1213.11 1398.33 1213.24 1398.26C1213.38 1398.18 1213.49 1398.07 1213.56 1397.93Z" fill="#D7AF74"/>
<path d="M223.18 1376.11C223.431 1376.08 223.685 1376.13 223.903 1376.26C224.121 1376.39 224.29 1376.59 224.385 1376.82C224.479 1377.06 224.494 1377.32 224.426 1377.56C224.358 1377.8 224.212 1378.02 224.01 1378.17C219.95 1381.16 219.03 1384.45 217.98 1389.27C217.916 1389.58 217.748 1389.85 217.505 1390.05C217.262 1390.25 216.958 1390.36 216.644 1390.36C216.33 1390.36 216.026 1390.25 215.781 1390.06C215.536 1389.86 215.367 1389.59 215.3 1389.28C214.27 1384.72 209.69 1383.33 205.83 1381.93C205.612 1381.85 205.42 1381.71 205.276 1381.53C205.132 1381.35 205.042 1381.13 205.015 1380.9C204.988 1380.67 205.026 1380.44 205.124 1380.23C205.222 1380.02 205.376 1379.84 205.57 1379.71C207.51 1378.43 208.974 1377.45 209.96 1376.78C212.24 1375.24 211.83 1372.85 211.66 1369.56C211.648 1369.34 211.69 1369.11 211.782 1368.91C211.873 1368.71 212.013 1368.53 212.188 1368.39C212.363 1368.25 212.569 1368.15 212.789 1368.11C213.009 1368.07 213.235 1368.08 213.45 1368.14C215.34 1368.7 216.89 1371.87 218.51 1374.48C218.843 1375.03 219.33 1375.47 219.91 1375.74C220.79 1376.16 221.88 1376.28 223.18 1376.11Z" fill="#D7AF74"/>
<path d="M242.74 1404.96C242.652 1404.73 242.611 1404.49 242.619 1404.24C242.626 1404 242.682 1403.76 242.784 1403.54C242.885 1403.31 243.03 1403.11 243.21 1402.95C243.389 1402.78 243.6 1402.65 243.83 1402.57C249.66 1400.44 254.99 1399.17 256.45 1393.73C257.53 1389.69 257.897 1385.23 257.55 1380.34C257.508 1379.78 257.619 1379.24 257.861 1378.81C258.102 1378.39 258.458 1378.11 258.86 1378.03C260.46 1377.73 261.46 1379.35 261.84 1380.9C263.16 1386.25 264.57 1395.33 270.97 1396.82C270.977 1396.82 273.064 1397.13 277.23 1397.75C278.65 1397.96 279.587 1398.53 280.04 1399.47C280.132 1399.66 280.16 1399.87 280.123 1400.09C280.086 1400.31 279.984 1400.53 279.824 1400.74C279.664 1400.96 279.451 1401.15 279.198 1401.32C278.945 1401.48 278.659 1401.61 278.36 1401.7C275.32 1402.59 273.244 1403.27 272.13 1403.76C271.568 1404.01 271.056 1404.37 270.62 1404.81C267.06 1408.47 265.05 1413.64 265.07 1418.87C265.084 1421.34 265.017 1423.08 264.87 1424.1C264.827 1424.4 264.694 1424.67 264.49 1424.89C264.286 1425.11 264.02 1425.26 263.727 1425.33C263.434 1425.4 263.129 1425.37 262.851 1425.26C262.573 1425.14 262.335 1424.95 262.17 1424.7C261.4 1423.51 260.63 1421.39 260.44 1419.96C259.907 1415.99 258.14 1412.45 255.14 1409.36C254.047 1408.23 252.98 1407.55 251.94 1407.34C246.867 1406.27 243.977 1405.58 243.27 1405.26C242.937 1405.11 242.76 1405.01 242.74 1404.96ZM260.91 1393.76C260.896 1393.75 260.879 1393.74 260.861 1393.73C260.843 1393.73 260.824 1393.73 260.805 1393.73C260.787 1393.74 260.769 1393.74 260.754 1393.76C260.74 1393.77 260.728 1393.78 260.72 1393.8C259.274 1397.08 257.64 1399.59 255.82 1401.34C255.501 1401.64 255.316 1402.06 255.305 1402.5C255.293 1402.94 255.457 1403.37 255.76 1403.69L259.46 1407.62C259.66 1407.83 259.904 1408 260.173 1408.11C260.443 1408.21 260.733 1408.26 261.023 1408.25C261.313 1408.23 261.597 1408.16 261.853 1408.02C262.11 1407.89 262.334 1407.7 262.51 1407.47L267.23 1401.32C267.331 1401.19 267.382 1401.03 267.375 1400.87C267.367 1400.71 267.302 1400.55 267.19 1400.43L260.91 1393.76Z" fill="#C88C6A"/>
<path d="M232.23 1458.35C232.144 1458.52 232.012 1458.67 231.849 1458.77C231.685 1458.88 231.496 1458.94 231.302 1458.94C231.108 1458.94 230.917 1458.9 230.749 1458.8C230.581 1458.7 230.443 1458.56 230.35 1458.39C228.89 1455.73 228.11 1453.27 224.82 1452.21C222.32 1451.41 220.67 1450.85 219.87 1450.54C219.647 1450.46 219.454 1450.31 219.315 1450.11C219.176 1449.92 219.097 1449.69 219.089 1449.45C219.08 1449.21 219.142 1448.98 219.267 1448.77C219.392 1448.57 219.574 1448.41 219.79 1448.31L223.47 1446.58C223.556 1446.54 223.634 1446.49 223.7 1446.42C226.047 1443.93 226.9 1441.25 226.26 1438.37C226.227 1438.22 226.236 1438.07 226.286 1437.92C226.336 1437.78 226.425 1437.65 226.543 1437.55C226.66 1437.45 226.803 1437.39 226.954 1437.37C227.105 1437.35 227.26 1437.37 227.4 1437.43C230.24 1438.67 231.907 1440.7 232.4 1443.52C232.431 1443.7 232.5 1443.87 232.602 1444.03C232.704 1444.18 232.837 1444.31 232.992 1444.41C233.148 1444.51 233.322 1444.57 233.504 1444.6C233.686 1444.63 233.872 1444.62 234.05 1444.57C235.91 1444.06 237.703 1444.39 239.43 1445.54C239.571 1445.63 239.688 1445.76 239.77 1445.91C239.853 1446.06 239.898 1446.22 239.902 1446.39C239.906 1446.56 239.868 1446.73 239.793 1446.88C239.718 1447.03 239.607 1447.16 239.47 1447.26C238.17 1448.21 236.82 1449.09 235.42 1449.91C232.69 1451.52 233.44 1455.92 232.23 1458.35Z" fill="#D7AF74"/>
<path d="M1230.68 1477.33C1230.54 1477.48 1230.36 1477.58 1230.16 1477.63C1229.96 1477.67 1229.75 1477.66 1229.56 1477.59C1229.36 1477.51 1229.18 1477.39 1229.04 1477.22C1228.9 1477.05 1228.81 1476.84 1228.77 1476.63C1227.74 1470.66 1224.43 1466.99 1218.84 1465.6C1218.8 1465.59 1218.53 1465.42 1218.04 1465.1C1217.69 1464.87 1217.46 1464.67 1217.36 1464.52C1217.28 1464.4 1217.23 1464.27 1217.2 1464.12C1217.18 1463.98 1217.18 1463.84 1217.22 1463.7C1217.25 1463.56 1217.32 1463.43 1217.4 1463.31C1217.49 1463.2 1217.6 1463.11 1217.73 1463.04C1223.13 1460.11 1227.83 1458.03 1227.03 1450.99C1227.01 1450.83 1227.03 1450.66 1227.09 1450.51C1227.14 1450.35 1227.23 1450.21 1227.35 1450.1C1227.47 1449.99 1227.61 1449.91 1227.77 1449.87C1227.92 1449.83 1228.08 1449.82 1228.24 1449.86C1230.24 1450.31 1230.63 1453.87 1231.12 1455.58C1231.24 1456 1231.47 1456.38 1231.8 1456.67C1234.25 1458.86 1237.27 1459.7 1240.29 1461.04C1240.54 1461.15 1240.75 1461.33 1240.88 1461.57C1241.02 1461.8 1241.08 1462.08 1241.05 1462.35C1241.03 1462.62 1240.92 1462.87 1240.74 1463.08C1240.56 1463.28 1240.32 1463.42 1240.05 1463.48L1236.75 1464.22C1236.34 1464.31 1235.97 1464.52 1235.67 1464.81C1233.29 1467.1 1231.51 1470.02 1231.43 1473.32C1231.38 1475.09 1231.48 1476.48 1230.68 1477.33ZM1230 1460.77C1229.69 1461.87 1228.76 1462.69 1227.21 1463.23C1226.65 1463.43 1226.18 1463.78 1225.88 1464.22C1225.58 1464.67 1225.48 1465.17 1225.59 1465.63C1225.79 1466.4 1226.46 1467.12 1227.61 1467.78C1227.98 1467.99 1228.41 1468.07 1228.83 1467.98C1229.24 1467.9 1229.62 1467.67 1229.88 1467.33L1232.22 1464.29C1232.6 1463.79 1232.8 1463.19 1232.79 1462.56C1232.78 1461.94 1232.56 1461.34 1232.17 1460.86L1231.8 1460.41C1231.68 1460.26 1231.53 1460.15 1231.35 1460.09C1231.17 1460.02 1230.98 1460.01 1230.8 1460.04C1230.61 1460.08 1230.44 1460.17 1230.3 1460.3C1230.16 1460.42 1230.05 1460.59 1230 1460.77Z" fill="#D7AF74"/>
<path d="M765.46 799.7C764.09 800.9 761.27 801.04 759.87 801.94C757.61 803.387 755.906 805.047 754.76 806.92C753.16 809.53 753.37 812.98 752.53 815.99C752.223 817.097 751.64 817.833 750.78 818.2C750.609 818.273 750.425 818.307 750.24 818.301C750.054 818.295 749.872 818.249 749.705 818.166C749.538 818.082 749.39 817.963 749.272 817.817C749.154 817.672 749.068 817.502 749.02 817.32C747.23 810.71 746.78 805.48 740.17 803.54C737.21 802.67 735.33 802.42 734.06 800.31C733.988 800.191 733.945 800.057 733.932 799.919C733.92 799.781 733.939 799.641 733.988 799.511C734.037 799.382 734.115 799.264 734.216 799.169C734.316 799.073 734.437 799.002 734.57 798.96C741.32 796.84 747.2 793.16 747.12 785.33C747.106 783.85 747.12 782.563 747.16 781.47C747.165 781.333 747.204 781.199 747.271 781.08C747.338 780.96 747.432 780.858 747.546 780.782C747.66 780.706 747.791 780.658 747.927 780.642C748.063 780.626 748.201 780.643 748.33 780.69L750.03 781.33C750.348 781.448 750.622 781.66 750.817 781.939C751.011 782.217 751.117 782.549 751.12 782.89L751.14 784.85C751.146 785.444 751.269 786.029 751.5 786.57C752.63 789.26 755.93 795.02 758.75 796.58C759.112 796.771 759.508 796.884 759.91 796.91L764.6 797.2C764.882 797.217 765.154 797.317 765.379 797.489C765.605 797.66 765.774 797.894 765.866 798.162C765.958 798.43 765.969 798.719 765.897 798.993C765.824 799.267 765.672 799.513 765.46 799.7ZM749.87 804.4C751.36 804.32 753.06 801.9 753.75 800.66C753.882 800.426 753.948 800.159 753.939 799.889C753.93 799.62 753.847 799.357 753.7 799.13C752.486 797.27 751.11 795.76 749.57 794.6C749.563 794.593 749.513 794.587 749.42 794.58C749.373 794.58 749.33 794.58 749.29 794.58C749.25 794.587 749.21 794.593 749.17 794.6C749.076 794.613 749.026 794.623 749.02 794.63C747.626 795.963 746.436 797.623 745.45 799.61C745.328 799.852 745.274 800.123 745.295 800.393C745.316 800.663 745.411 800.921 745.57 801.14C746.41 802.28 748.38 804.49 749.87 804.4Z" fill="#D7AF74"/>
<path d="M240.52 751.29C238.54 750.29 238.5 748.67 237.19 745.15C236.18 742.43 229.57 740.15 226.38 738.9C226.206 738.832 226.055 738.714 225.946 738.562C225.837 738.409 225.774 738.228 225.766 738.041C225.757 737.854 225.803 737.668 225.898 737.507C225.993 737.345 226.132 737.214 226.3 737.13C230.54 735.01 234.02 733.37 236.09 728.79C236.209 728.533 236.27 728.254 236.27 727.97V722.81C236.27 722.591 236.329 722.376 236.441 722.188C236.553 722 236.714 721.845 236.907 721.742C237.1 721.638 237.318 721.589 237.537 721.599C237.756 721.609 237.968 721.679 238.15 721.8L238.49 722.02C239.072 722.39 239.567 722.882 239.938 723.462C240.31 724.043 240.549 724.697 240.64 725.38C240.933 727.607 241.933 729.567 243.64 731.26C245.92 733.52 249.07 733.74 251.39 735.39C251.573 735.522 251.713 735.704 251.792 735.915C251.871 736.126 251.885 736.356 251.834 736.575C251.783 736.795 251.667 736.994 251.503 737.148C251.339 737.302 251.132 737.403 250.91 737.44C247.403 738 244.837 739.92 243.21 743.2C242.25 745.13 242.33 747.92 242.15 750.37C242.135 750.554 242.075 750.732 241.976 750.887C241.876 751.043 241.74 751.172 241.579 751.263C241.418 751.353 241.238 751.403 241.053 751.408C240.868 751.413 240.685 751.372 240.52 751.29ZM237.36 732.2L234.49 735.93C234.312 736.161 234.221 736.447 234.232 736.739C234.243 737.031 234.355 737.311 234.55 737.53C236.7 739.94 239.81 742.12 242.24 738.61C242.377 738.416 242.46 738.189 242.481 737.953C242.502 737.716 242.46 737.477 242.36 737.26C241.473 735.353 240.21 733.633 238.57 732.1C238.486 732.022 238.387 731.962 238.279 731.925C238.171 731.887 238.057 731.873 237.943 731.882C237.829 731.892 237.718 731.925 237.618 731.98C237.517 732.034 237.43 732.109 237.36 732.2Z" fill="#C88C6A"/>
<path d="M149.82 1654.21C152.19 1654.71 153.04 1659.49 154.22 1663.24C154.827 1665.19 156.42 1667.16 159 1669.16C160.76 1670.52 165.08 1670.93 167.37 1671.97C167.515 1672.03 167.644 1672.13 167.745 1672.26C167.846 1672.38 167.917 1672.52 167.953 1672.68C167.989 1672.83 167.988 1672.99 167.951 1673.15C167.914 1673.3 167.842 1673.45 167.74 1673.57C166.27 1675.33 164.64 1675.52 161.65 1676.47C160.893 1676.71 160.2 1677.12 159.62 1677.66C156.56 1680.52 154.83 1684.39 154.43 1689.27C154.337 1690.43 153.99 1691.26 153.39 1691.75C153.17 1691.93 152.908 1692.05 152.627 1692.1C152.347 1692.15 152.058 1692.13 151.788 1692.04C151.519 1691.95 151.277 1691.79 151.087 1691.58C150.896 1691.37 150.763 1691.11 150.7 1690.83C149.46 1685.49 148.7 1682.71 144.5 1679.23C143.837 1678.68 143.022 1678.36 142.17 1678.3C139.71 1678.12 135.79 1678.08 135.05 1675.56C134.94 1675.19 134.993 1674.78 135.199 1674.42C135.404 1674.06 135.747 1673.76 136.16 1673.6C137.887 1672.91 139.367 1672.45 140.6 1672.2C145.53 1671.19 148.24 1666.15 148.34 1661.48C148.427 1657.72 148.61 1655.47 148.89 1654.72C148.96 1654.54 149.091 1654.39 149.262 1654.29C149.432 1654.2 149.63 1654.17 149.82 1654.21ZM150.73 1668.42L145.72 1673.73C145.694 1673.76 145.673 1673.79 145.66 1673.83C145.646 1673.86 145.639 1673.9 145.64 1673.94C145.641 1673.98 145.65 1674.01 145.665 1674.05C145.681 1674.08 145.703 1674.11 145.73 1674.14L149.12 1677.35C149.474 1677.68 149.874 1677.96 150.299 1678.17C150.724 1678.37 151.165 1678.5 151.597 1678.54C152.029 1678.59 152.443 1678.54 152.816 1678.42C153.189 1678.3 153.513 1678.09 153.77 1677.82L155.26 1676.23C155.779 1675.68 155.993 1674.89 155.856 1674.02C155.719 1673.16 155.242 1672.29 154.53 1671.62L151.14 1668.41C151.113 1668.38 151.08 1668.36 151.045 1668.35C151.009 1668.34 150.971 1668.33 150.933 1668.33C150.895 1668.33 150.858 1668.34 150.823 1668.35C150.788 1668.37 150.756 1668.39 150.73 1668.42Z" fill="#C88C6A"/>
<path d="M727.97 710.9C728.016 711.326 727.847 711.593 727.46 711.7C722.79 712.95 721.57 717.11 720.15 720.69C720.075 720.879 719.944 721.04 719.775 721.152C719.605 721.264 719.405 721.322 719.202 721.316C718.999 721.311 718.803 721.243 718.639 721.122C718.476 721.001 718.354 720.833 718.29 720.64C717.1 717.07 713.59 714.4 710.24 712.47C710.082 712.379 709.952 712.248 709.861 712.09C709.771 711.933 709.724 711.754 709.725 711.572C709.726 711.39 709.775 711.212 709.867 711.055C709.959 710.898 710.091 710.769 710.25 710.68C713.596 708.8 715.913 705.976 717.2 702.21C717.253 702.052 717.346 701.911 717.469 701.799C717.592 701.687 717.742 701.608 717.904 701.57C718.066 701.532 718.236 701.536 718.396 701.581C718.556 701.627 718.702 701.712 718.82 701.83C719.687 702.683 720.437 703.703 721.07 704.89C722.51 707.61 725.02 709.03 727.63 710.36C727.823 710.46 727.936 710.64 727.97 710.9Z" fill="#D7AF74"/>
<path d="M1271.05 1757.87C1270.93 1756.56 1271.62 1755.81 1273.12 1755.6C1277.45 1755 1280.91 1752.64 1283.51 1748.53C1285 1746.18 1284.49 1743.5 1285.09 1740.9C1285.14 1740.67 1285.25 1740.46 1285.4 1740.29C1285.55 1740.11 1285.74 1739.97 1285.95 1739.88C1286.17 1739.8 1286.4 1739.76 1286.63 1739.78C1286.86 1739.81 1287.09 1739.88 1287.28 1740.01L1287.45 1740.13C1287.98 1740.47 1288.41 1740.94 1288.71 1741.5C1289 1742.05 1289.16 1742.67 1289.15 1743.3C1289.13 1745.46 1288.92 1747.4 1289.96 1748.96C1291.01 1750.55 1292.32 1751.99 1293.87 1753.3C1295.79 1754.92 1300.57 1755.64 1301.66 1757.82C1301.71 1757.92 1301.74 1758.04 1301.74 1758.15C1301.74 1758.27 1301.71 1758.38 1301.66 1758.49C1301.61 1758.59 1301.53 1758.68 1301.44 1758.75C1301.35 1758.82 1301.24 1758.87 1301.13 1758.89C1299.04 1759.28 1295.86 1759.33 1294.39 1760.41C1291.67 1762.4 1289.66 1764.63 1288.35 1767.12C1288.28 1767.25 1288.24 1767.38 1288.22 1767.52L1287.48 1772.95C1287.46 1773.12 1287.39 1773.29 1287.3 1773.43C1287.21 1773.58 1287.08 1773.7 1286.94 1773.79C1286.79 1773.88 1286.63 1773.94 1286.46 1773.96C1286.29 1773.98 1286.11 1773.96 1285.95 1773.91L1285.68 1773.82C1285.34 1773.71 1285.04 1773.5 1284.82 1773.22C1284.59 1772.94 1284.46 1772.6 1284.43 1772.24C1283.96 1766.7 1283.04 1760.96 1276.72 1759.6C1273.87 1758.99 1272.2 1758.64 1271.7 1758.56C1271.53 1758.53 1271.37 1758.45 1271.25 1758.33C1271.14 1758.2 1271.06 1758.04 1271.05 1757.87ZM1285.42 1752.76L1282.32 1755.34C1281.95 1755.64 1281.72 1756.08 1281.68 1756.55C1281.63 1757.02 1281.78 1757.49 1282.08 1757.86L1283.53 1759.6C1284.18 1760.39 1285.06 1760.94 1285.96 1761.14C1286.86 1761.34 1287.71 1761.16 1288.33 1760.65L1289.53 1759.65C1290.15 1759.14 1290.48 1758.33 1290.45 1757.41C1290.43 1756.49 1290.04 1755.53 1289.39 1754.74L1287.95 1753C1287.8 1752.82 1287.62 1752.67 1287.41 1752.55C1287.2 1752.44 1286.97 1752.38 1286.73 1752.35C1286.5 1752.33 1286.26 1752.36 1286.04 1752.42C1285.81 1752.49 1285.6 1752.61 1285.42 1752.76Z" fill="#C88C6A"/>
<path d="M405.44 542.19C405.311 542.094 405.209 541.966 405.144 541.819C405.079 541.672 405.053 541.512 405.068 541.352C405.083 541.193 405.139 541.041 405.23 540.911C405.322 540.781 405.446 540.677 405.59 540.61C409.64 538.71 414.08 535.6 412.69 530.89C412.46 530.12 412.59 528.75 413.23 528.22C413.375 528.097 413.55 528.016 413.742 527.982C413.935 527.948 414.139 527.962 414.342 528.023C414.545 528.084 414.742 528.19 414.918 528.335C415.093 528.48 415.244 528.659 415.36 528.86C415.807 529.646 416.447 530.943 417.28 532.75C417.445 533.113 417.676 533.445 417.96 533.73C419.827 535.616 422.083 536.783 424.73 537.23C424.888 537.255 425.039 537.313 425.172 537.4C425.305 537.486 425.416 537.599 425.497 537.73C425.578 537.86 425.627 538.004 425.64 538.151C425.652 538.299 425.628 538.445 425.57 538.58C425.08 539.71 423.7 539.79 422.04 540.19C421.556 540.307 421.113 540.556 420.76 540.91C417.76 543.9 418.63 546.87 417.07 550.48C416.995 550.655 416.871 550.806 416.715 550.915C416.558 551.024 416.374 551.086 416.183 551.096C415.992 551.105 415.803 551.061 415.636 550.968C415.469 550.875 415.332 550.737 415.24 550.57C414.34 548.95 413.25 547.42 411.97 545.98C410.37 544.18 407.21 543.51 405.44 542.19Z" fill="#D7AF74"/>
<path d="M1061.58 557.05C1061.46 556.183 1062.18 555.533 1063.73 555.1C1065.8 554.52 1068.73 554.34 1071.1 553.39C1074.9 551.863 1077.46 548.907 1078.77 544.52C1079.8 541.093 1080.28 537.793 1080.23 534.62C1080.22 534.365 1080.29 534.114 1080.41 533.891C1080.53 533.668 1080.71 533.481 1080.93 533.349C1081.15 533.217 1081.4 533.145 1081.65 533.14C1081.91 533.135 1082.16 533.197 1082.38 533.32L1082.52 533.4C1083.13 533.737 1083.64 534.223 1084.01 534.813C1084.37 535.403 1084.58 536.077 1084.61 536.77C1084.76 540.163 1084.96 542.493 1085.21 543.76C1087.09 552.94 1093.54 553.37 1100.9 555.66C1101.18 555.748 1101.44 555.904 1101.65 556.111C1101.86 556.319 1102.01 556.573 1102.1 556.85C1102.19 557.127 1102.2 557.418 1102.14 557.698C1102.09 557.977 1101.96 558.236 1101.77 558.45C1101.27 559.01 1100.6 559.307 1099.77 559.34C1088.01 559.74 1085.24 568.72 1083.49 578.48C1083.46 578.653 1083.36 578.897 1083.17 579.21C1083.08 579.364 1082.95 579.497 1082.81 579.597C1082.66 579.698 1082.49 579.764 1082.31 579.791C1082.14 579.818 1081.96 579.805 1081.79 579.753C1081.62 579.7 1081.46 579.611 1081.33 579.49C1080.42 578.657 1079.9 577.733 1079.76 576.72C1079.24 573.09 1078.93 570.68 1077.91 566.91C1077.21 564.297 1075.07 562.433 1071.49 561.32C1067.21 559.987 1064.35 559.113 1062.91 558.7C1062.14 558.487 1061.69 557.937 1061.58 557.05ZM1081.8 564.66C1083.6 562.22 1086.15 559.753 1089.45 557.26C1089.63 557.121 1089.78 556.934 1089.86 556.719C1089.94 556.504 1089.96 556.27 1089.92 556.044C1089.87 555.818 1089.77 555.608 1089.61 555.44C1089.45 555.271 1089.25 555.15 1089.03 555.09C1085.45 554.14 1084.79 552.41 1083.2 549.22C1083.14 549.104 1083.06 549.005 1082.95 548.933C1082.84 548.861 1082.72 548.82 1082.59 548.812C1082.46 548.805 1082.33 548.833 1082.22 548.892C1082.1 548.952 1082.01 549.041 1081.94 549.15C1080.99 550.663 1079.71 552.18 1078.11 553.7C1077.1 554.66 1075.8 555.16 1075.08 556.18C1074.91 556.411 1074.84 556.698 1074.89 556.979C1074.93 557.261 1075.08 557.516 1075.3 557.69C1077.56 559.41 1079.39 561.703 1080.79 564.57C1080.83 564.662 1080.9 564.741 1080.99 564.799C1081.07 564.858 1081.17 564.893 1081.27 564.902C1081.37 564.911 1081.47 564.894 1081.57 564.851C1081.66 564.809 1081.74 564.743 1081.8 564.66Z" fill="#D7AF74"/>
<path d="M445.87 590.55C445.95 590.261 446.112 590.002 446.338 589.803C446.563 589.604 446.842 589.475 447.14 589.43C450.693 588.897 453.603 588.28 455.87 587.58C466.09 584.42 465.75 569.46 465.61 561.01C465.608 560.851 465.643 560.694 465.712 560.551C465.78 560.408 465.88 560.282 466.005 560.184C466.129 560.085 466.275 560.017 466.43 559.983C466.585 559.949 466.746 559.952 466.9 559.99C469.72 560.68 470.76 565.32 471.02 568.1C471.393 572.04 472.767 575.91 475.14 579.71C476.287 581.55 478.157 582.993 480.75 584.04C484.5 585.55 488.59 584.29 492.42 585.94C492.676 586.05 492.911 586.208 493.105 586.402C493.3 586.597 493.449 586.822 493.541 587.06C493.633 587.298 493.665 587.543 493.636 587.776C493.606 588.008 493.515 588.222 493.37 588.4C492.877 589 492.323 589.363 491.71 589.49C485.82 590.75 480.88 592.45 477.63 596.13C476.703 597.19 476.003 598.98 475.53 601.5C474.517 606.927 473.897 612.273 473.67 617.54C473.657 617.809 473.58 618.072 473.447 618.306C473.313 618.54 473.127 618.74 472.902 618.889C472.677 619.038 472.42 619.132 472.152 619.163C471.885 619.195 471.613 619.163 471.36 619.07L471.31 619.05C470.675 618.819 470.116 618.417 469.694 617.89C469.272 617.362 469.005 616.729 468.92 616.06C468.38 611.84 467.923 608.97 467.55 607.45C464.94 596.99 458.57 594.74 448.84 593.69C446.59 593.44 445.15 593.13 445.87 590.55ZM461.84 589.91C461.761 590.055 461.737 590.225 461.772 590.387C461.806 590.55 461.898 590.696 462.03 590.8C465.21 593.28 467.863 596.01 469.99 598.99C470.045 599.065 470.118 599.126 470.202 599.167C470.286 599.207 470.378 599.226 470.47 599.222C470.563 599.218 470.652 599.191 470.731 599.144C470.809 599.096 470.874 599.03 470.92 598.95C473.26 594.87 474.99 592 478.24 589.44C478.389 589.325 478.505 589.173 478.575 588.998C478.645 588.823 478.667 588.633 478.639 588.447C478.61 588.261 478.532 588.086 478.413 587.941C478.293 587.795 478.137 587.684 477.96 587.62C474.193 586.22 471.43 583.747 469.67 580.2C469.615 580.093 469.531 580.005 469.426 579.947C469.322 579.888 469.203 579.861 469.083 579.869C468.964 579.878 468.85 579.921 468.755 579.994C468.66 580.067 468.589 580.167 468.55 580.28C467.563 583.367 465.523 586.167 462.43 588.68C462.283 588.8 462.173 588.993 462.1 589.26C462.033 589.5 461.947 589.717 461.84 589.91Z" fill="#D7AF74"/>
</svg>
